<svg xmlns="http://www.w3.org/2000/svg" viewBox="0 0 981.52568 1243.06656">
  <defs>
    <style>
      .a {
        fill: #190d17;
      }
    </style>
  </defs>
  <title>birds</title>
  <path class="a" d="M767.57006,151.393q-.58964,2.65482-1.17862,5.30966c-.49486-1.89959-3.07016-2.12108-5.02431-1.93816,1.19854-1.49318,2.46959-3.36484,1.82843-5.16928a6.19559,6.19559,0,0,0-2.23678-2.5082,35.1999,35.1999,0,0,1-9.72472-12.2222c-.91056-1.8989-1.71533-3.96611-3.36485-5.275,4.36984.97969,7.52984,4.66313,10.35789,8.135q2.26877,2.78253,4.53546,5.56574a6.18654,6.18654,0,0,0,2.30466,2.01728,2.12054,2.12054,0,0,0,2.69173-.79945,3.15423,3.15423,0,0,0,1.98,2.53544,9.27331,9.27331,0,0,0,3.31227.59391c7.36226.40973,14.81358.81346,22.052-.58794a9.01017,9.01017,0,0,1-5.875,3.277,37.41037,37.41037,0,0,1-6.88664.20151,62.64133,62.64133,0,0,0-13.58637,1.29764"/>
  <path class="a" d="M681.24953,129.40651a20.52312,20.52312,0,0,1-5.30993-12.69362,10.3934,10.3934,0,0,0-.28895-2.553,8.29539,8.29539,0,0,0-1.5168-2.53208q-1.98341-2.55842-3.96677-5.11536a5.35008,5.35008,0,0,0-2.25469-1.98013c-1.11183-.38984-2.34834-.00866-3.51065-.19963a11.01144,11.01144,0,0,1-1.87132-.60741c-4.12387-1.46925-8.66493-.21762-12.85938,1.03763q-4.14724,1.24085-8.29308,2.48238a1.921,1.921,0,0,0,1.57732,1.71638,5.60625,5.60625,0,0,0,2.49175-.18159q6.87862-1.55751,13.7572-3.1172-1.33809.829-2.67476,1.65876c-.2378.147-.50151.33579-.52315.61467-.02234.29757.24141.52891.48207.7047a31.72348,31.72348,0,0,0,3.99272,2.486,2.36366,2.36366,0,0,0,2.13362.31921c.64348-.34441.82938-1.1558,1.08592-1.83891.25724-.68235.874-1.413,1.57445-1.2091a38.14513,38.14513,0,0,0,16.96447,20.64228"/>
  <path class="a" d="M742.66266,48.35494q4.70073.68526,9.40146,1.36895c2.86472.41794,5.85117.88136,8.21148,2.55825a7.12407,7.12407,0,0,1-3.49166.00734,7.43759,7.43759,0,0,0,2.42847.90334,4.96714,4.96714,0,0,1-4.57831.06744q1.84445.749,3.68889,1.4973c-2.16085,1.57351-5.08863.00071-7.58968-.94223a30.24164,30.24164,0,0,0-7.4885-1.45254c-3.224-.34679-6.64527-.66208-9.565.74867a8.87971,8.87971,0,0,0-4.818,6.45385,5.13811,5.13811,0,0,1-.82417-4.26517q-2.27883.011-4.55557.02345a15.61231,15.61231,0,0,0,3.48361-2.386,12.8545,12.8545,0,0,1-3.71015-.29179q3.48542-1.22969,6.9708-2.46a2.50552,2.50552,0,0,0,1.57279-1.08517,2.46441,2.46441,0,0,0,.02788-1.49434,136.19111,136.19111,0,0,0-5.904-21.249q1.2846.82489,2.57,1.65049-1.6256-2.64616-3.25116-5.29095a10.5588,10.5588,0,0,1,5.71114,4.02028,7.441,7.441,0,0,1-1.616-6.14081,48.39221,48.39221,0,0,0,2.73642,6.96789,6.71321,6.71321,0,0,1,.25809-4.8782c-.72151,3.65739.87545,7.33012,2.43433,10.71621Q737.19751,38.68582,739.63,43.968a2.85,2.85,0,0,0,.85349,1.22377c1.539,1.06319,3.74022-1.40121,5.35848-.46194a9.34171,9.34171,0,0,1-2.57512,2.42919"/>
</svg>
