<svg xmlns="http://www.w3.org/2000/svg" viewBox="0 0 981.52568 1243.06656">
  <defs>
    <style>
      .a {
        fill: #1a0f18;
      }
    </style>
  </defs>
  <title>fg</title>
  <path class="a" d="M467.58284,0H-.93718V1177.11a233.95927,233.95927,0,0,0,20.15-75.01,17.13535,17.13535,0,0,1,.36-4.16c-.11,1.39-.23,2.77-.36,4.16.23,7.47,5.07,14.8,12.1,17.51a45.29159,45.29159,0,0,1,8.68-26.74,19.24428,19.24428,0,0,0,18.02,12.43q-8.835-23.73-17.67-47.46a51.25137,51.25137,0,0,1,34.07995,18.5q-5.44491-16.17-10.87-32.34a236.81451,236.81451,0,0,1,114.54,35.05,44.12649,44.12649,0,0,0-30.57-26.38,381.71422,381.71422,0,0,1,78.09,17.98c-35.21-25.9-87.16-17.41-122.82995-42.68-36.55-25.88-42.95-76.63-45.83-121.32q-17.94-278.115-21.72-556.9c.49005-5.05.32-10.64.63-14.41.66-8.05,4.65-14.47,12.63-27.31a141.597,141.597,0,0,1,25.62-30.49,25.45073,25.45073,0,0,0,4.86005,3.22c3.69,1.68,9.55-.15,9.08-4.17A23.099,23.099,0,0,0,102.29286,275.41c1.42-.6,2.96-1.59,3.07995-3.12994a3.32333,3.32333,0,0,0-.71-2.16c6.03-1.93,11.06995-6.53,15.75995-10.95l8.28-7.82995c6.64-6.26,13.64-13.17005,15.2-22.17005a3.57288,3.57288,0,0,1,.43-1.4,3.51122,3.51122,0,0,1,2.07-1.11005c7.83-2.21,14.84-8.68,15.74-16.75995.2-1.82.1-3.66.41-5.46a22.29086,22.29086,0,0,1,2.06-5.65,165.36113,165.36113,0,0,1,11.57-20.4,20.791,20.791,0,0,1,5.49,8.52q2.94-1.545,5.88-3.06994a6.86522,6.86522,0,1,0,12.6-5.27c5.69-1.92,12.62,2.15,13.71,8.07-3.66,2-7.93,5.85-5.9,9.5,2.08,3.73,8.56,2.32,11.05,5.8,1.04,1.46,1.06,3.39,1.51,5.14,1.6,6.17,9.92,9.43,15.28,5.97,5.02-3.23,8.21-11.08,14.04-9.83,5.61,1.2,5.6,9.16,4.22,14.73-2.4-.87-4.81-1.73-7.22-2.6a14.7898,14.7898,0,0,0,18.41,19.2c-3.01.1-4.2-4.36-2.52-6.86s4.76-3.54,7.44-4.92,5.39-3.8,5.09-6.79c-.11-1.07-.6-2.09-.69-3.13995.18.28.37.56.56.84,3.34,4.88,7.64,9.32,13.09,11.62s12.19,2.11,16.85-1.54c1.43-1.12,2.71-2.75,2.54-4.56-.51995-5.72-12.8-4.51-12.22-10.22,2.84-.05,5.8-.13,8.28-1.51,2.47-1.37994,4.23-4.49,3.12006-7.1-.76-1.75-2.54-2.8-4.22-3.73q-6.03-3.34506-12.08-6.68,2.19-1.605,4.36005-3.19a18.705,18.705,0,0,1-3.56-7.45c4.74-1.24,5.4-9.22.92-11.22a9.543,9.543,0,0,0,5.96-5.75995c-2.24-.45-5.07995-1.69-4.73-3.95a3.67558,3.67558,0,0,1,.61-1.39c4.2-6.33,14.25-4.36,20.26.29,6.01,4.64,10.89,11.34,18.22,13.34,4.55,1.24,9.38.45,14.03-.35q8.535-1.47006,17.06-2.94a13.72322,13.72322,0,0,1-1.5-5.5,27.52658,27.52658,0,0,0,14.47-12.78,28.61318,28.61318,0,0,1-18.8-.91,37.21044,37.21044,0,0,1,16.61-15.25q-6.615-1.245-13.22-2.49005a20.20235,20.20235,0,0,0,4.11005-14.61,183.24269,183.24269,0,0,1-18.72,3.56c-2.61.36-6.14.06-6.69-2.51a5.21363,5.21363,0,0,1,.89-3.47,66.88445,66.88445,0,0,1,12.45-16.27c-2.7-.57-5.58-1.22-7.52-3.18-1.95-1.96-2.35-5.7-.07-7.27,2.09-1.44,5.01-.27,6.92,1.41s3.46,3.88,5.8,4.88c4.01995,1.72,8.81994-1,10.93-4.83,2.12-3.82,2.24-8.39,2.31-12.76a62.30113,62.30113,0,0,0,25.47.9,19.54542,19.54542,0,0,1-3.47-11.32c7.37,3.98,13.64,10.18,21.67,12.59s18.98-1.48,19.52-9.84c-3.56.59-7.47,1.12-10.54-.76-3.08-1.88-3.95-7.26-.71-8.82,8.93,2.9,19.32995-6.08,17.76-15.34,3.12.21,6.57995.32,8.97-1.7,2.38-2.02,2.03-6.93-1.07-7.34-3.63-.48-6.13,5.34-9.63,4.28a5.75012,5.75012,0,0,0-2.77-7.89c-.68006,4.83-3.42005,9.54-7.78,11.73s-10.3,1.31-13.22-2.6c-2.93006-3.91-1.6-10.5,2.91-12.35,4.67-1.92,11.02,1.09,14.56-2.51a5.25141,5.25141,0,0,1-1.14-4.96c4.28-1.26,8.84-.87,13.28-.5,4.44.36,9.02.68,13.25-.73,6.09-2.03,8.15-8.78,8.37-9.42A16.52261,16.52261,0,0,0,467.58284,0Zm-406.24,279.99c-.4,2.63-2.19,4.81-3.92,6.83q-10.95,12.87-21.88995,25.74a64.80139,64.80139,0,0,1-2.93-23.79,63.44779,63.44779,0,0,1,4.43-19.2,8.58281,8.58281,0,0,1,2.68.2c2.37.65,4.03,2.75,6.16,3.97,4.6,2.62,10.16.7,15.55.03C61.09285,275.76,61.65284,277.94,61.34285,279.99Zm71.15-47.06a46.73658,46.73658,0,0,1-16.15,19.63,63.23582,63.23582,0,0,1-9.18,5.45c.81-.69,1.65-1.33,2.44-1.91,3.94995-2.9,7.11-9.68,2.73-11.86a26.52451,26.52451,0,0,1-17.96,6.45c1.95-1.57,4.02-3.32,4.61-5.76.59-2.43-1.27-5.53-3.75-5.12-3.21.53-6.68,5.76-8.12994,2.84.97-3.4-1.68006-6.64-3.82-9.46a43.76147,43.76147,0,0,1-5.61005-41.81q6.705,2.205,13.39,4.41c1.37.45,2.89,1.02,3.51,2.33.94,1.96-.7,4.3-.23,6.43.38995,1.75,2.04,2.85,3.41,4,3.78,3.19,6.02,7.87,9.6,11.28,3.57995,3.42,9.76995,5.22,13.26995,1.73q-2.16-5.85-4.32-11.7,7.05,3.66,14.11,7.33a13.61667,13.61667,0,0,0,5.46,1.84A51.3885,51.3885,0,0,1,132.49281,232.93Zm22.47-23.24c-1.13,4.43-4.14,8.18-7.58,11.2a2.46076,2.46076,0,0,1-1.26.73c-1.07995.14-1.82995-1.01-2.25-2.01-.73-1.71-1.36-3.48-2.03-5.23a27.21282,27.21282,0,0,0,1.37-21.7,10.7261,10.7261,0,0,0,1.35.92c2.24,1.28,4.8,2,6.81,3.6C154.96284,200.04,156.08284,205.25,154.96284,209.69Zm11.95-25.71a139.9072,139.9072,0,0,0-7.29,12.98,2.33566,2.33566,0,0,1-.93,1.18,2.07547,2.07547,0,0,1-1.55.01c-3.97-1.15-6.36-5.22-9.24-8.27a10.93336,10.93336,0,0,0,5.66-4.6,11.16133,11.16133,0,0,0-.85-12.39c6.93-2.52,14.89-.92,20.86,3.33A28.4939,28.4939,0,0,0,166.91285,183.98Z"/>
</svg>
