<svg xmlns="http://www.w3.org/2000/svg" viewBox="0 0 981.5257 1527.53186">
  <defs>
    <style>
      .a {
        fill: #1a0f18;
      }
    </style>
  </defs>
  <title>fg</title>
  <path class="a" d="M467.58,0H-.94V977.11H35.23V453.87c.49-6.55.32-13.81006.63-18.7C36.52,424.72,40.51,416.39,48.49,399.73a181.08567,181.08567,0,0,1,25.62-39.57A26.19,26.19,0,0,0,78.97,364.34c3.69,2.18,9.55-.19,9.08-5.40992a18.209,18.209,0,0,0,14.24-1.53,4.66239,4.66239,0,0,0,2.83-5.93994,5.01945,5.01945,0,0,0-.46-.93c6.03-2.5,11.07-8.47009,15.76-14.21008L128.7,326.16c6.64-8.12011,13.64-17.09008,15.2-28.77a5.6356,5.6356,0,0,1,.43-1.81,3.36034,3.36034,0,0,1,2.07-1.44c7.83-2.87,14.84-11.27,15.74-21.75.2-2.37.1-4.75.41-7.09008a35.18289,35.18289,0,0,1,2.06-7.33,238.246,238.246,0,0,1,11.57-26.47,28.70469,28.70469,0,0,1,5.49,11.04993q2.94-1.99494,5.88-3.98c1.1,4.71008,4.93,7.37011,8.56,5.95007s5.68-6.39,4.59-11.1a11.11954,11.11954,0,0,0-.55-1.69006c5.69-2.49,12.62,2.79,13.71,10.47009-3.66,2.59986-7.93,7.58985-5.9,12.33,2.08,4.84,8.56,3.00989,11.05,7.52991,1.04,1.89013,1.06,4.40014,1.51,6.67,1.6,8,9.92,12.2301,15.28,7.74,5.02-4.18994,8.21-14.37,14.04-12.75,5.61,1.56006,5.6,11.88,4.22,19.11-2.4-1.12989-4.81-2.24-7.22-3.36988-2.83,9.93994,1.09,20.98,8.75,24.64991a11.60085,11.60085,0,0,0,9.66.26c-3.01.13-4.2-5.65-2.52-8.9,1.68-3.24,4.76-4.59,7.44-6.38s5.39-4.92994,5.09-8.80994c-.11-1.39-.6-2.72009-.69-4.08.18.36988.37.73.56,1.08985C278.47,283.62,282.77,289.39,288.22,292.37c5.45,2.99,12.19,2.74,16.85-2a7.88906,7.88906,0,0,0,2.54-5.90992c-.52-7.43-12.8-5.8601-12.22-13.27,2.84-.06006,5.8-.17,8.28-1.96008a8.77908,8.77908,0,0,0,3.12-9.21c-.76-2.27-2.54-3.63-4.22-4.84q-6.03-4.33519-12.08-8.67c1.46-1.39,2.92-2.77,4.36-4.14a28.06114,28.06114,0,0,1-3.56-9.66993c4.74-1.6101,5.4-11.96008.92-14.56006a11.22558,11.22558,0,0,0,5.96-7.47c-2.24-.59008-5.07995-2.19006-4.73-5.13012a5.722,5.722,0,0,1,.61-1.79993c4.2-8.22,14.25-5.66,20.26.37s10.89,14.72,18.22,17.32006c4.55,1.60987,9.37994.58,14.03-.46008q8.535-1.90485,17.06-3.80994a22.10807,22.10807,0,0,1-1.5-7.14c6.21-3.08,11.35-8.97009,14.47-16.59a22.46085,22.46085,0,0,1-18.8-1.18c3.83-8.66,9.63-15.58,16.61-19.78992q-6.615-1.60511-13.22-3.2301a32.0137,32.0137,0,0,0,4.11-18.96,144.92027,144.92027,0,0,1-18.72,4.62c-2.61.47-6.14.08-6.69-3.25a8.37976,8.37976,0,0,1,.89-4.51,88.33241,88.33241,0,0,1,12.45-21.11c-2.7-.74-5.58-1.58-7.52-4.13-1.95-2.54-2.35-7.39-.07-9.42993,2.09-1.87011,5.01-.35009,6.92,1.82984s3.46,5.03,5.8,6.33008c4.02,2.23,8.82-1.3,10.93-6.27,2.12-4.95,2.24-10.88,2.31-16.56006a48.33076,48.33076,0,0,0,25.47,1.17016A30.98546,30.98546,0,0,1,393.59,84.27c7.37,5.17,13.64,13.21,21.67,16.34s18.98-1.91993,19.52-12.77c-3.56006.77-7.47,1.45-10.54-.99-3.08-2.42994-3.95-9.41993-.71-11.43995,8.93,3.76,19.33-7.89,17.76-19.91,3.12.28,6.58.42,8.97-2.20007,2.38-2.61988,2.03-9-1.07-9.52991-3.63-.62-6.13,6.93-9.63,5.55994,1.46-3.66993.35-8.16993-2.47-10.05994-.1-.05994-.2-.13-.3-.18005-.68,6.26-3.42,12.38-7.78,15.22A9.22563,9.22563,0,0,1,416.23,51.67c-.16-.24-.3-.48-.44-.74-2.93-5.07006-1.6-13.62011,2.91-16.02,4.67-2.49,11.02,1.40992,14.56-3.26a8.39077,8.39077,0,0,1-1.14-6.43994C436.4,23.58,440.96,24.09,445.4,24.57c4.44.46008,9.02.88012,13.25-.94995,6.09-2.64,8.15-11.4,8.37-12.23A27.51975,27.51975,0,0,0,467.58,0ZM61.34,363.34c-.4,3.42-2.19,6.24-3.92,8.87011Q46.47,388.90491,35.53,405.61a108.035,108.035,0,0,1-2.93-30.87,103.38676,103.38676,0,0,1,4.43-24.92,6.56394,6.56394,0,0,1,2.68.26c2.37.84008,4.03,3.57006,6.16,5.15,4.6,3.4,10.16.91,15.55.04C61.09,357.85,61.65,360.68005,61.34,363.34ZM132.49,302.27a59.90981,59.90981,0,0,1-16.15,25.48,62.43862,62.43862,0,0,1-9.18006,7.07c.81-.89991,1.65-1.73,2.44-2.48,3.95-3.76,7.11-12.55994,2.73-15.3899-4.98,5.58-11.38,8.57-17.96,8.36988,1.95-2.03992,4.02-4.30994,4.61-7.48.59-3.14991-1.27-7.16993-3.75-6.6399-3.21.68994-6.68,7.48-8.13,3.68994.97-4.42-1.68-8.62-3.82-12.28-8.9-15.64991-11.02-36.12-5.61005-54.26q6.705,2.865,13.39,5.73c1.37.58007,2.89,1.32006,3.51,3.02.94,2.54-.7,5.58007-.23,8.34008.38995,2.27,2.04,3.7,3.41,5.18994,3.78,4.14,6.02,10.22,9.6,14.64,3.58,4.44006,9.77,6.77991,13.27,2.25q-2.16-7.58991-4.32-15.19006,7.05,4.75506,14.11,9.52a11.76727,11.76727,0,0,0,5.46,2.38A83.228,83.228,0,0,1,132.49,302.27Zm22.47-30.16a31.466,31.466,0,0,1-7.58,14.54,2.39782,2.39782,0,0,1-1.26.95c-1.08.18-1.83-1.32-2.25-2.61-.73-2.22-1.36-4.52-2.03-6.78992a44.88048,44.88048,0,0,0,1.37-28.16015,11.72126,11.72126,0,0,0,1.35,1.19006c2.24,1.67,4.8,2.6,6.81,4.68C154.96,259.59,156.08,266.35,154.96,272.11Zm11.95-33.36q-3.99,8.16009-7.29,16.84a3.03528,3.03528,0,0,1-.93,1.54,1.66573,1.66573,0,0,1-1.55.01c-3.97-1.49-6.36-6.78-9.24-10.73a12.08507,12.08507,0,0,0,5.66-5.97,18.07073,18.07073,0,0,0-.85-16.08007c6.93-3.27,14.89-1.2,20.86,4.32006A36.077,36.077,0,0,0,166.91,238.75Z"/>
</svg>
