<svg xmlns="http://www.w3.org/2000/svg" xmlns:xlink="http://www.w3.org/1999/xlink" viewBox="0 0 981.52568 1243.06656">
  <defs>
    <style>
      .a {
        fill: url(#a);
      }
    </style>
    <linearGradient id="a" x1="224.78782" y1="1243.07001" x2="224.78782" y2="-2.39001" gradientUnits="userSpaceOnUse">
      <stop offset="0.0744" stop-color="#1a0f18" stop-opacity="0"/>
      <stop offset="0.28022" stop-color="#190d17"/>
    </linearGradient>
  </defs>
  <title>fg</title>
  <path class="a" d="M365.71284,69.34a10.51683,10.51683,0,0,1,2.47,2.8,10.40347,10.40347,0,0,1,1.38,3.94,286.58148,286.58148,0,0,1-32.24-.07q24.24,41.04,48.52,82.1c-9.28,1.3-18.9-2.84-25.96-11.16a110.60351,110.60351,0,0,1,8.14,30.33c-10.91-3.86005-21.02-11.78-28.97-22.68005-15.89,8.78-33.09-5.93-46.84-19.9a49.92579,49.92579,0,0,0,3.15,31.53,12.4614,12.4614,0,0,1-7.88-1.19,33.50448,33.50448,0,0,1-10.83-11.63,46.78494,46.78494,0,0,0,7.51,13.68006,150.20384,150.20384,0,0,1,25.15,63.62994c-13.5-11.48-25.45-26.36-35.05-43.65q-8.265,23.745-16.5,47.51c-8.97-7.67005-16.45-18.48-21.53-31.1a5.77366,5.77366,0,0,0-1.04-2.72c.34.9.68,1.81,1.04,2.72.53,4.16-2.67,9.25-6.18994,9.34-4.34.09-7.96-4.25-11.12006-8.32-9.28-11.99-18.86-24.1-30.53-31.24-11.7-7.11-26.04-8.46-36.85.86a34.32052,34.32052,0,0,1,.95,20.25,246.3134,246.3134,0,0,1-37.01-36.17c12.16,14.71,20.25,35.47,22.44,57.43q-15.165-14.145-30.31994-28.28a222.76184,222.76184,0,0,1,10.21,46.18005c-8.65-24.99-25.13-44.7-44.43-53.11q16.02,14.37,32.06,28.71-21.015-7.68-42.02-15.39c8.6,3.37,12.35,16.83,14.85,28.54,4.94,23.06,9.94,47.28,6.19,70.76q-10.74-18.48-21.53-37.01a137.82565,137.82565,0,0,0,2.55,35.12c-12.15-6.67-22.43994-19.43-28.43994-35.26A46.77345,46.77345,0,0,0,23.6728,274.42c-2.79-1.44-5.61-2.86-8.43-4.3a180.69236,180.69236,0,0,1-.11,30.86c6.51,1,12.99,2.03,19.5,3.05q-8.685,9.47992-17.36,18.99c-2.41,2.65-4.95,5.55-5.7,9.41-1.29,6.65,3.69,13.16,9.18,14.69,5.49,1.54,11.16-.46,16.55-2.46,2.33,11.34-17.17,19.48-11.64,29.05005a8.62221,8.62221,0,0,0,4.54,3.51c13.03,5.16,26.5-4.2,35.11-17.78,4.13.86,8.24,1.72,12.39,2.58q-12.45,14.82-24.89,29.64c-1.59,1.88-3.27,3.93006-3.69,6.58-1.4,8.62,9.45,11.01,16.57,9.32-7.86,9.81-21.66,12.18-26.61,24.47-4.98,12.32,5.08,29.06,16.27,27.11-5.38,7.39-14.13,9.04-21.78,12.36s-15.68,11.11-14.41,20.85c1.48,11.3,13.62,14.64,23.01,13.64a83.07428,83.07428,0,0,0,36.78-13.43c2.84,8,.06,17.62-4.87,23.94-4.94,6.32-11.66,10.07-18.2,13.64q15.885,1.2,31.74,2.4c6.29.46,12.77.91,18.71-1.65,7.73-3.35,13.39-11.27,18.6-18.99q17.28-25.66506,33.09-52.79c-3.79,43.33-28.2,83.1-61.33,99.93a56.16651,56.16651,0,0,1,22.48-6.46c-17.02,21.59-39.99,36.14-64.31,40.76,3.14.33,6.25.68,9.37,1-.87,3.49-1.74,6.95-2.61,10.42q15.825,1.98,31.68,3.97c-13.12,22.48-31.38,40.47-52.21,51.46,4.49,2.1,5.63,9.46,4.24,15.04-1.42,5.58-4.56,10.28-6.32,15.69-2.27,7.04-2.07,14.85-1.86,22.41.06,2.32.15,4.65.21,6.97.02,1,.06,1.98.08,2.98.24,7.09.45,14.19995.66,21.29.25994,8.95,1.99,20.17,9.15,22.24-2.41,9.18,6.06,19.6,13.67,16.76-8.24,20.01-2.25,47,13.2,59.25-9.42,18.93-8.26995,30.64-5.01995,38.03,4.36,9.92,13.36,13.97,12.81,23.43-.38,6.49-4.80005,7.71-9.19,16.34-.68,1.32-10.91,21.84-3.07,34.72,6.42,10.53,27.5,20.21,32.51,22.13.67.25,2.87,1.06,2.9,2.21.03,1.65-4.46,2.7-7.83,4.09-8.62994,3.53-13.41,10.62-15.31995,13.44a22.93222,22.93222,0,0,0-2.44,4.59c9.73,1.89,21.56,5.86,35.88,13.08q7.13991.285,14.28.58-3.075,21.315-6.16,42.64c-.82,5.71-.98,12.87,4.04,15.71,3.07,1.74,6.89,1.02,10.34.24q17.17493-3.84,34.35-7.68c7.4-1.65,17.25-2.19,20.4,4.71,4.23,9.28-9.2,21.8-2.01,29.04,6.05,6.09,21.48.87,21.94,9.45.18,3.36-2.92005,6.06-3.4,9.4-.91,6.37,7.12,9.58,12.73,12.74,11.86005,6.65,17.13,22.96,11.43006,35.30005-2.99,6.47-8.41,11.57-11.48,18-3.08,6.44-2.76,15.66,3.53,19.02,7.32,3.92,18.48-2.27,23.78,4.13a191.59745,191.59745,0,0,0-15.31,34.91h-235.63q.93-622.725,1.82-1245.46h415.08c5.4,4.2,10.4,8.29,15.02,12.18q-8.20506,4.695-16.4,9.41a84.64328,84.64328,0,0,1,29.98,8.65c-2.27,1.58-4.51,3.13-6.76,4.72,3.09-1.1,6.63,1.06,8.11005,4.95a107.8319,107.8319,0,0,1-38.75,13.59c15.79,1.28,31.36,7.56,45.11,18.18q-31.5-5.475-63.01-10.92a14.51366,14.51366,0,0,1-3.61,8.59,14.69948,14.69948,0,0,1-6.94,4.21A16.10636,16.10636,0,0,1,365.71284,69.34Z"/>
</svg>
