<svg xmlns="http://www.w3.org/2000/svg" viewBox="0 0 981.5257 1527.53191">
  <defs>
    <style>
      .a {
        fill: #1a0f18;
      }
    </style>
  </defs>
  <title>fg</title>
  <path class="a" d="M467.58286,0H-.93718V1527.53191a376.94092,376.94092,0,0,0,20.15-97.34025,28.68214,28.68214,0,0,1,.36-5.39846c-.11,1.80382-.23,3.59464-.36,5.39846.23,9.69376,5.07,19.206,12.1,22.72269a71.22433,71.22433,0,0,1,8.68-34.7004c2.83548,9.71846,10.01221,16.14263,18.02,16.13044q-8.835-30.79425-17.67-61.58864c13.34448,1.90139,25.58132,10.5216,34.07995,24.00739q-5.44492-20.98382-10.87-41.96747c40.55274,2.17354,79.99444,17.83588,114.54,45.48433-5.33311-17.1468-16.71847-29.89645-30.57-34.23325a309.94394,309.94394,0,0,1,78.09,23.33257c-35.21-33.61038-87.16-22.59295-122.82995-55.38577-36.55-33.5844-42.95-99.44252-45.83-157.43659q-17.94-360.909-21.72-722.68741c.49-6.55335.32-13.80751.63-18.69982.66-10.44644,4.65-18.77767,12.63-35.44009a180.74859,180.74859,0,0,1,25.62-39.56677,26.06791,26.06791,0,0,0,4.86005,4.17859c3.69,2.18012,9.55-.19465,9.08-5.41142a18.2171,18.2171,0,0,0,14.24-1.53135,4.64716,4.64716,0,0,0,2.36995-6.86475c6.03-2.50454,11.07-8.47395,15.76-14.20979l8.28-10.16091c6.64-8.12358,13.64-17.09073,15.2-28.77a5.68043,5.68043,0,0,1,.43-1.81676,3.36918,3.36918,0,0,1,2.07-1.44051c7.83-2.86792,14.84-11.264,15.74-21.74933.2-2.36182.1-4.74958.41-7.08543a34.82867,34.82867,0,0,1,2.06-7.332,238.12321,238.12321,0,0,1,11.57-26.473,28.823,28.823,0,0,1,5.49,11.05638q2.94-2.00493,5.88-3.98386c1.09572,4.71035,4.9265,7.37616,8.55627,5.95425s5.684-6.3931,4.58832-11.10345a10.51907,10.51907,0,0,0-.54458-1.68967c5.69-2.49157,12.62,2.79,13.71,10.47241-3.66,2.59539-7.93,7.59153-5.9,12.32812,2.08,4.8404,8.56,3.01066,11.05,7.52664,1.04,1.89465,1.06,4.39919,1.51,6.67016,1.6,8.00679,9.92,12.23728,15.28,7.74726,5.02-4.19156,8.21-14.37849,14.04-12.75637,5.61,1.55724,5.6,11.88691,4.22,19.11507-2.4-1.129-4.81-2.245-7.22-3.374-2.82929,9.94363,1.08882,20.98093,8.75134,24.6525a11.6156,11.6156,0,0,0,9.65865.26328c-3.01.12978-4.2-5.658-2.52-8.9022s4.76-4.59384,7.44-6.38467,5.39-4.93125,5.09-8.81135c-.11-1.38855-.6-2.71218-.69-4.07471.18.36335.37.72671.56,1.09006,3.34,6.33277,7.64,12.09454,13.09,15.07923s12.19,2.73814,16.85-1.99844a7.919,7.919,0,0,0,2.54-5.9175c-.52-7.42282-12.8-5.8526-12.22-13.26246,2.84-.06489,5.8-.16871,8.28-1.95952a8.80839,8.80839,0,0,0,3.12006-9.21365c-.76-2.271-2.54-3.63356-4.22-4.84041q-6.03-4.34087-12.08-8.6686,2.19-2.08283,4.36005-4.13966a27.88459,27.88459,0,0,1-3.56-9.66783c4.74-1.60916,5.4-11.96477.92-14.56016a11.22315,11.22315,0,0,0,5.96-7.47467c-2.24-.584-5.07995-2.19311-4.73-5.1259a5.57044,5.57044,0,0,1,.61-1.8038c4.2-8.21442,14.25-5.658,20.26.37633,6.01,6.02131,10.89,14.71587,18.22,17.31127,4.55,1.60915,9.38.584,14.03-.45421q8.535-1.90769,17.06-3.81523a22.05023,22.05023,0,0,1-1.5-7.13733c6.208-3.08,11.34769-8.97073,14.47-16.58456a22.5188,22.5188,0,0,1-18.8-1.18091c3.82611-8.66722,9.6293-15.58139,16.61-19.78988q-6.615-1.61563-13.22-3.23133a32.05954,32.05954,0,0,0,4.11005-18.95935,146.35138,146.35138,0,0,1-18.72,4.61979c-2.61.46718-6.14.07786-6.69-3.25722a8.35274,8.35274,0,0,1,.89-4.503,88.14645,88.14645,0,0,1,12.45-21.11352c-2.7-.73969-5.58-1.58319-7.52-4.12668-1.95-2.54348-2.35-7.39686-.07-9.43425,2.09-1.86869,5.01-.35037,6.92,1.82976s3.46,5.03506,5.8,6.33276c4.01995,2.232,8.81994-1.2977,10.93-6.26788,2.12-4.9572,2.24-10.88768,2.31-16.55862a48.41631,48.41631,0,0,0,25.47,1.16793,30.932,30.932,0,0,1-3.47-14.68993c7.37,5.16484,13.64,13.21056,21.67,16.338s18.98-1.92059,19.52-12.76933c-3.56.76564-7.47,1.45342-10.54-.98625-3.08-2.43967-3.95-9.42128-.71-11.44569,8.93,3.76333,19.33-7.89,17.76-19.90667,3.12.27252,6.57995.41527,8.97-2.20608,2.38-2.62135,2.03-8.993-1.07-9.5251-3.63-.62289-6.13,6.9297-9.63,5.55414,1.45657-3.662.34973-8.163-2.47223-10.05324q-.1468-.09833-.29776-.18558c-.68005,6.26787-3.42005,12.38-7.78,15.222a9.231,9.231,0,0,1-13.22-3.374c-2.93005-5.074-1.6-13.62582,2.91-16.02656,4.67-2.49158,11.02,1.41449,14.56-3.25722a8.36567,8.36567,0,0,1-1.14-6.43657c4.28-1.6351,8.84-1.129,13.28-.64885,4.44.46717,9.02.88243,13.25-.94732,6.09-2.63432,8.15-11.39378,8.37-12.2243A27.55293,27.55293,0,0,0,467.58286,0Zm-406.24,363.34213c-.4,3.413-2.19,6.24192-3.92,8.86325q-10.95,16.70139-21.89,33.4027a107.76017,107.76017,0,0,1-2.93-30.87222,103.32884,103.32884,0,0,1,4.43-24.91579,6.67956,6.67956,0,0,1,2.68.25955c2.37.8435,4.03,3.56867,6.16,5.15186,4.6,3.4,10.16.90841,15.55.03893-.33007,2.58248.22992,5.41145-.08007,8.07172Zm71.15-61.06961a59.93262,59.93262,0,0,1-16.15,25.47379,62.34018,62.34018,0,0,1-9.18,7.07247c.81-.89542,1.65-1.72592,2.44-2.47861,3.94995-3.76331,7.11-12.5617,2.73-15.39069-4.97915,5.58488-11.38045,8.56816-17.96,8.37015,1.95-2.0374,4.02-4.30837,4.61-7.47473.59-3.1534-1.27-7.17626-3.75-6.6442-3.21.68777-6.68,7.47472-8.12994,3.68545.97-4.41216-1.68006-8.6167-3.82-12.27622-8.90717-15.64517-11.024-36.11788-5.61005-54.2567q6.705,2.86145,13.39,5.72285c1.37.584,2.89,1.32365,3.51,3.02363.94,2.5435-.7,5.5801-.23,8.34418.39,2.271,2.04,3.69845,3.41,5.19079,3.78,4.13966,6.02,10.21287,9.6,14.638,3.58,4.43812,9.77,6.774,13.27,2.245q-2.16-7.59155-4.32-15.18305,7.05,4.74957,14.11,9.51212a11.667,11.667,0,0,0,5.46,2.38776,83.45551,83.45551,0,0,1-3.38,18.038Zm22.47-30.15849a31.46927,31.46927,0,0,1-7.58,14.53421,2.41462,2.41462,0,0,1-1.26.94731c-1.07995.18168-1.82995-1.31067-2.25-2.60836-.73-2.21908-1.36-4.516-2.03-6.78695a44.94536,44.94536,0,0,0,1.37-28.16,11.09614,11.09614,0,0,0,1.35,1.19388c2.24,1.661,4.8,2.59539,6.81,4.67171,3.59,3.68546,4.71,10.44647,3.59,16.20824Zm11.95-33.36379q-3.98794,8.16426-7.29,16.8441a3.034,3.034,0,0,1-.93,1.53127,1.639,1.639,0,0,1-1.55.013c-3.97-1.49234-6.36-6.774-9.24-10.732a12.07961,12.07961,0,0,0,5.66-5.96941,18.10129,18.10129,0,0,0-.85-16.07846c6.93-3.2702,14.89-1.19388,20.86,4.32133a36.07812,36.07812,0,0,0-6.66,10.07018Z"/>
</svg>
