<svg xmlns="http://www.w3.org/2000/svg" viewBox="0 0 981.5257 1527.53186">
  <defs>
    <style>
      .a {
        fill: #1a0f18;
      }
    </style>
  </defs>
  <title>fg2</title>
  <path class="a" d="M147.52,1366.05a309.643,309.643,0,0,1,78.09,23.33c-35.21-33.61-87.16-22.59-122.83-55.39-36.55-33.58-42.95-99.44-45.83-157.43Q39.01,815.645,35.23,453.87H-.94V1527.53a376.60108,376.60108,0,0,0,20.15-97.34,28.72838,28.72838,0,0,1,.36-5.4c-.11,1.81-.23,3.6-.36,5.4.23,9.7,5.07,19.21,12.1,22.72A71.28023,71.28023,0,0,1,39.99,1418.21c2.84,9.72,10.02,16.15,18.02,16.13q-8.835-30.795-17.67-61.58c13.35,1.9,25.57995,10.52,34.07995,24q-5.445-20.985-10.87-41.96c40.56,2.17,80,17.83,114.54,45.48C172.76,1383.13,161.37,1370.38,147.52,1366.05Z"/>
</svg>
