<svg xmlns="http://www.w3.org/2000/svg" viewBox="0 0 981.52568 1243.06656">
  <defs>
    <style>
      .a {
        fill: #746782;
      }

      .b {
        fill: #97888d;
      }

      .c {
        fill: #333031;
      }

      .d {
        fill: #665d60;
      }

      .e {
        fill: #4c4648;
      }

      .f {
        fill: #3f3b3d;
      }

      .g {
        fill: #2f2339;
      }

      .h {
        fill: #423d3f;
      }
    </style>
  </defs>
  <title>garage</title>
  <rect class="a" x="588.53285" y="641.4626" width="393.03149" height="173.71296"/>
  <polygon class="a" points="699.913 696.97 697.293 697.54 634.113 690.55 634.063 690.55 631.733 689.77 593.913 677.13 593.483 676.99 590.403 673.23 590.403 645.89 593.913 646.31 593.913 657.84 607.163 659.6 607.163 663.54 623.033 665.65 623.033 669.59 638.903 671.69 638.903 675.63 613.443 679.18 613.443 675.24 597.573 673.14 597.573 669.2 593.913 668.72 593.913 673.33 645.153 690.95 645.153 687.34 629.283 685.23 629.283 681.29 613.413 679.19 638.873 675.64 654.743 677.74 654.743 681.68 670.613 683.78 670.613 687.72 645.843 691.18 645.913 691.21 645.723 691.2 645.523 691.23 699.913 696.97"/>
  <polyline class="b" points="752.494 665.094 614.739 648.776 743.359 620.702"/>
  <polygon class="c" points="776.125 478.66 614.739 438.064 614.739 649.003 776.125 613.493 776.125 478.66"/>
  <polygon class="d" points="614.739 433.872 788.252 477.447 788.252 481.638 614.739 438.064 614.739 433.872"/>
  <polyline class="b" points="743.359 620.702 752.494 620.702 752.494 665.094"/>
  <polygon class="e" points="981.523 560.68 981.523 692.22 744.723 664.404 744.723 533.55 981.523 560.68"/>
  <polygon class="f" points="981.523 561.683 732.146 532.894 732.146 528.043 981.523 556.832 981.523 561.683"/>
  <polygon class="d" points="981.523 556.832 732.146 528.043 820.805 468.702 981.526 488.277 981.523 556.832"/>
  <polygon class="e" points="981.526 506.385 960.848 504.447 960.848 527.17 981.526 529.108 981.526 506.385"/>
  <polygon class="g" points="960.848 504.447 981.526 506.385 981.526 503.936 981.526 499.085 960.848 504.447"/>
  <path class="h" d="M815.13309,599.5958,790.90423,596.98a1.77919,1.77919,0,0,1-1.58821-1.76891v-8.61243a1.77919,1.77919,0,0,1,1.97017-1.76891l24.22885,2.61582a1.77919,1.77919,0,0,1,1.58821,1.76891v8.61243A1.77918,1.77918,0,0,1,815.13309,599.5958Z"/>
  <path class="h" d="M844.46018,603.06533l-24.22886-2.61582a1.77919,1.77919,0,0,1-1.58821-1.76891v-8.61243a1.77919,1.77919,0,0,1,1.97017-1.76891l24.22885,2.61582a1.77919,1.77919,0,0,1,1.58821,1.76891v8.61243A1.77918,1.77918,0,0,1,844.46018,603.06533Z"/>
  <path class="h" d="M874.3936,606.63388l-24.22886-2.61582a1.77919,1.77919,0,0,1-1.58821-1.76891v-8.61243a1.77919,1.77919,0,0,1,1.97017-1.76891l24.22885,2.61582a1.7792,1.7792,0,0,1,1.58822,1.76891V604.865A1.77919,1.77919,0,0,1,874.3936,606.63388Z"/>
  <path class="h" d="M785.35281,596.26141,761.124,593.64558a1.7792,1.7792,0,0,1-1.58822-1.76891v-8.61243a1.77919,1.77919,0,0,1,1.97017-1.76891l24.22886,2.61583a1.7792,1.7792,0,0,1,1.58821,1.76891v8.61243A1.77919,1.77919,0,0,1,785.35281,596.26141Z"/>
  <path class="h" d="M981.52284,632.12v12.19l-19.79-2.14a1.77735,1.77735,0,0,1-1.59-1.77v-8.61a1.78189,1.78189,0,0,1,1.97-1.77Z"/>
  <path class="h" d="M956.17712,641.45212l-24.22885-2.61583a1.77918,1.77918,0,0,1-1.58821-1.76891V628.455a1.77919,1.77919,0,0,1,1.97016-1.76891l24.22886,2.61583a1.77919,1.77919,0,0,1,1.58821,1.76891v8.61243A1.77919,1.77919,0,0,1,956.17712,641.45212Z"/>
  <path class="h" d="M981.52284,645.91V658.1l-5.21-.56a1.78549,1.78549,0,0,1-1.59009-1.77V647.16a1.77631,1.77631,0,0,1,1.97-1.77Z"/>
  <path class="h" d="M970.7641,656.81811l-24.22886-2.61583a1.77919,1.77919,0,0,1-1.58821-1.76891v-8.61243a1.77918,1.77918,0,0,1,1.97017-1.76891l24.22885,2.61582a1.77919,1.77919,0,0,1,1.58821,1.76891v8.61244A1.77919,1.77919,0,0,1,970.7641,656.81811Z"/>
  <path class="h" d="M956.024,669.88009l-24.22886-2.61582a1.7792,1.7792,0,0,1-1.58821-1.76892v-8.61243a1.7792,1.7792,0,0,1,1.97017-1.76891l24.22885,2.61583a1.7792,1.7792,0,0,1,1.58822,1.76891v8.61243A1.77919,1.77919,0,0,1,956.024,669.88009Z"/>
  <path class="h" d="M981.52284,660.74v12.2l-20.4-2.21a1.77806,1.77806,0,0,1-1.59-1.77v-8.61a1.78182,1.78182,0,0,1,1.97-1.77Z"/>
  <path class="h" d="M926.2437,666.54569l-24.22885-2.61582a1.7792,1.7792,0,0,1-1.58822-1.76891v-8.61243a1.77919,1.77919,0,0,1,1.97017-1.76891l24.22886,2.61582a1.77919,1.77919,0,0,1,1.58821,1.76891v8.61243A1.77919,1.77919,0,0,1,926.2437,666.54569Z"/>
  <path class="h" d="M971.21728,686.09286,946.98843,683.477a1.77919,1.77919,0,0,1-1.58821-1.76891v-8.61243a1.77918,1.77918,0,0,1,1.97016-1.76891l24.22886,2.61582a1.7792,1.7792,0,0,1,1.58821,1.76892V684.324A1.7792,1.7792,0,0,1,971.21728,686.09286Z"/>
  <path class="h" d="M981.52284,675.32v12.19l-5.21-.56a1.78554,1.78554,0,0,1-1.59009-1.77v-8.61a1.77634,1.77634,0,0,1,1.97-1.77Z"/>
  <path class="h" d="M941.437,682.75846l-24.22886-2.61582a1.7792,1.7792,0,0,1-1.58821-1.76892v-8.61243a1.77919,1.77919,0,0,1,1.97017-1.76891l24.22885,2.61583a1.77919,1.77919,0,0,1,1.58821,1.76891v8.61243A1.77918,1.77918,0,0,1,941.437,682.75846Z"/>
  <path class="h" d="M800.393,583.37107l-24.22885-2.61583a1.7792,1.7792,0,0,1-1.58822-1.76891V570.3739a1.77919,1.77919,0,0,1,1.97017-1.76891l24.22886,2.61583a1.77919,1.77919,0,0,1,1.58821,1.76891v8.61243A1.77919,1.77919,0,0,1,800.393,583.37107Z"/>
  <path class="h" d="M829.72006,586.8406l-24.22885-2.61583a1.7792,1.7792,0,0,1-1.58822-1.76891v-8.61243a1.77919,1.77919,0,0,1,1.97017-1.76891l24.22886,2.61583a1.77918,1.77918,0,0,1,1.58821,1.76891v8.61243A1.7792,1.7792,0,0,1,829.72006,586.8406Z"/>
  <path class="h" d="M859.65348,590.40915l-24.22885-2.61583a1.7792,1.7792,0,0,1-1.58822-1.76891V577.412a1.77919,1.77919,0,0,1,1.97017-1.76891l24.22886,2.61583a1.77919,1.77919,0,0,1,1.58821,1.76891v8.61243A1.77919,1.77919,0,0,1,859.65348,590.40915Z"/>
  <path class="h" d="M770.61269,580.03667l-24.22885-2.61582a1.77919,1.77919,0,0,1-1.58821-1.76891V567.0395a1.77919,1.77919,0,0,1,1.97016-1.76891l24.22886,2.61583a1.77919,1.77919,0,0,1,1.58821,1.76891v8.61243A1.77919,1.77919,0,0,1,770.61269,580.03667Z"/>
  <path class="h" d="M843.91336,574.12571l-24.22885-2.61583a1.77919,1.77919,0,0,1-1.58821-1.76891v-8.61243a1.77918,1.77918,0,0,1,1.97016-1.76891l24.22886,2.61583a1.77919,1.77919,0,0,1,1.58821,1.76891v8.61243A1.77919,1.77919,0,0,1,843.91336,574.12571Z"/>
  <path class="h" d="M814.13309,570.79131l-24.22886-2.61582a1.77919,1.77919,0,0,1-1.58821-1.76891v-8.61244a1.7792,1.7792,0,0,1,1.97017-1.76891l24.22885,2.61583a1.77919,1.77919,0,0,1,1.58821,1.76891v8.61243A1.77918,1.77918,0,0,1,814.13309,570.79131Z"/>
  <path class="h" d="M829.17325,558.21156l-24.22886-2.61583a1.77919,1.77919,0,0,1-1.58821-1.76891v-8.61243a1.77919,1.77919,0,0,1,1.97017-1.76891l24.22885,2.61582a1.7792,1.7792,0,0,1,1.58822,1.76891v8.61244A1.7792,1.7792,0,0,1,829.17325,558.21156Z"/>
  <path class="h" d="M799.393,554.87716l-24.22885-2.61583a1.77919,1.77919,0,0,1-1.58822-1.76891V541.88a1.77919,1.77919,0,0,1,1.97017-1.76891l24.22886,2.61583a1.77919,1.77919,0,0,1,1.58821,1.76891v8.61243A1.77919,1.77919,0,0,1,799.393,554.87716Z"/>
  <polygon class="e" points="592.55 597.335 614.739 597.335 614.739 649.003 592.55 646.148 592.55 597.335"/>
</svg>
