<svg xmlns="http://www.w3.org/2000/svg" xmlns:xlink="http://www.w3.org/1999/xlink" viewBox="0 0 981.52568 1243.06656">
  <defs>
    <style>
      .a {
        fill: #857896;
      }

      .b {
        fill: #b1a2a5;
      }

      .c {
        fill: #393f3d;
      }

      .d {
        fill: #97888d;
      }

      .e {
        fill: #7f7478;
      }

      .f {
        fill: #665a70;
      }

      .g {
        fill: #746782;
      }

      .h {
        fill: #2f2339;
      }

      .i {
        fill: #606060;
      }

      .j {
        fill: url(#a);
      }

      .k {
        fill: #fff;
      }

      .k, .l {
        opacity: 0.58;
      }

      .l, .n {
        fill: #914800;
      }

      .m {
        fill: #ad641b;
      }

      .o {
        fill: url(#b);
      }

      .p {
        fill: url(#c);
      }

      .q {
        fill: #a05a1a;
      }

      .r {
        fill: #823e00;
      }

      .s {
        fill: #190d17;
      }
    </style>
    <linearGradient id="a" x1="427.94738" y1="554.62464" x2="417.47166" y2="704.43439" gradientUnits="userSpaceOnUse">
      <stop offset="0" stop-color="#feedc6" stop-opacity="0.6"/>
      <stop offset="0.4687" stop-color="#feedc6" stop-opacity="0.31226"/>
      <stop offset="0.95131" stop-color="#feedc6" stop-opacity="0"/>
    </linearGradient>
    <linearGradient id="b" x1="395.95283" y1="498.74002" x2="450.33284" y2="498.74002" gradientUnits="userSpaceOnUse">
      <stop offset="0" stop-color="#ba7128"/>
      <stop offset="0.78677" stop-color="#b1681f"/>
      <stop offset="1" stop-color="#ad641b"/>
    </linearGradient>
    <linearGradient id="c" x1="397.85286" y1="503.62383" x2="448.18281" y2="503.62383" gradientUnits="userSpaceOnUse">
      <stop offset="0" stop-color="#feedc5"/>
      <stop offset="0.26036" stop-color="#fef0ce"/>
      <stop offset="0.69265" stop-color="#fff8e8"/>
      <stop offset="1" stop-color="#fffffe"/>
    </linearGradient>
  </defs>
  <title>mg</title>
  <g>
    <polygon class="a" points="634.063 690.55 590.403 685.72 590.403 673.23 593.483 676.99 634.063 690.55"/>
    <polygon class="b" points="699.913 696.97 697.293 697.54 595.273 719.6 489.983 704.64 588.533 685.21 593.913 685.78 631.733 689.77 644.733 691.14 645.153 691.19 645.523 691.23 699.913 696.97"/>
    <polygon class="c" points="981.526 1243.067 -0.016 1243.088 -0.599 825.54 981.526 825.602 981.526 1243.067"/>
    <polygon class="d" points="769.233 698.83 696.083 696.57 695.843 696.54 645.913 691.21 670.423 687.4 714.483 692.5 769.233 698.83"/>
  </g>
  <polygon class="d" points="228.554 641.03 0 641.03 0 518.574 228.554 544.106 228.554 641.03"/>
  <g>
    <g>
      <rect class="e" x="309.53943" y="552.28702" width="2.07447" height="76.95933"/>
      <rect class="b" x="307.46496" y="553.09429" width="2.07447" height="85.60006"/>
      <rect class="e" x="305.39049" y="551.17021" width="2.07447" height="76.95933"/>
      <rect class="b" x="303.31602" y="551.97748" width="2.07447" height="85.60006"/>
      <rect class="e" x="301.24155" y="551.57385" width="2.07447" height="76.95933"/>
      <rect class="b" x="299.16708" y="552.38111" width="2.07447" height="85.60006"/>
      <rect class="e" x="297.09262" y="553.24906" width="2.07447" height="76.95933"/>
      <rect class="b" x="295.01815" y="554.05633" width="2.07447" height="85.60006"/>
      <rect class="e" x="292.94368" y="552.13225" width="2.07447" height="76.95933"/>
      <rect class="b" x="290.86921" y="552.93952" width="2.07447" height="85.60006"/>
      <rect class="e" x="288.79474" y="552.53588" width="2.07447" height="76.95933"/>
      <rect class="b" x="286.72028" y="553.34315" width="2.07447" height="85.60006"/>
      <rect class="e" x="284.64581" y="559.16901" width="2.07447" height="76.95933"/>
      <rect class="b" x="282.57134" y="559.97627" width="2.07447" height="85.60006"/>
      <rect class="e" x="280.49687" y="558.0522" width="2.07447" height="76.95933"/>
      <rect class="b" x="278.4224" y="558.85946" width="2.07447" height="85.60006"/>
      <rect class="e" x="276.34794" y="558.45583" width="2.07447" height="76.95933"/>
      <rect class="b" x="274.27347" y="559.2631" width="2.07447" height="85.60006"/>
      <rect class="e" x="272.199" y="560.13105" width="2.07447" height="76.95933"/>
      <rect class="b" x="270.12453" y="560.93831" width="2.07447" height="85.60006"/>
      <rect class="e" x="268.05006" y="559.01424" width="2.07447" height="76.95933"/>
      <rect class="b" x="265.9756" y="559.8215" width="2.07447" height="85.60006"/>
      <rect class="e" x="263.90113" y="559.41787" width="2.07447" height="76.95933"/>
      <rect class="b" x="261.82666" y="560.22514" width="2.07447" height="85.60006"/>
      <rect class="e" x="259.75219" y="560.37991" width="2.07447" height="76.95933"/>
      <rect class="b" x="257.67772" y="561.18717" width="2.07447" height="85.60006"/>
      <rect class="e" x="255.60325" y="559.2631" width="2.07447" height="76.95933"/>
      <rect class="b" x="253.52879" y="560.07036" width="2.07447" height="85.60006"/>
    </g>
    <path class="b" d="M137.06282,542.62a145.7206,145.7206,0,0,1,15.33,8.73l-9.45-1.11Z"/>
    <path class="b" d="M217.4828,646.91l-4.53-5.87994,3.27.36Q216.95784,644.36,217.4828,646.91Z"/>
  </g>
  <g>
    <polygon class="e" points="254.422 553.47 248.21 553.47 248.21 690.134 254.422 688.802 254.422 553.47"/>
    <polygon class="f" points="583.529 686.617 501.316 705.231 501.316 666.404 583.529 648.742 583.529 686.617"/>
    <polygon class="g" points="501.316 690.37 251.529 650.489 251.529 637.213 501.316 666.404 501.316 690.37"/>
    <polygon class="d" points="583.353 648.933 561.401 653.496 561.401 599 583.614 599.213 583.353 648.933"/>
    <polygon class="b" points="311.614 570.102 561.401 599 561.401 653.496 311.614 623.17 311.614 570.102"/>
    <polygon class="d" points="251.529 637.213 254.38 636.383 254.38 630.128 311.614 618.1 311.614 623.17 561.401 653.496 501.316 666.404 251.529 637.213"/>
  </g>
  <g>
    <polygon class="h" points="688.763 581.383 683.38 581.383 683.38 697.128 688.763 696 688.763 581.383"/>
    <rect class="i" x="677.95432" y="582.03998" width="5.42553" height="115.08768"/>
    <polygon class="h" points="459.49 580.05 454.107 580.05 454.107 698.46 459.49 697.307 459.49 580.05"/>
    <rect class="i" x="448.68127" y="580.72234" width="5.42553" height="117.73808"/>
    <polygon class="h" points="325.763 562.597 320.38 562.597 320.38 681.007 325.763 679.854 325.763 562.597"/>
    <rect class="i" x="314.95432" y="563.26908" width="5.42553" height="117.73808"/>
    <polygon class="h" points="593.913 599 593.913 716.26 588.533 717.41 588.533 599 593.913 599"/>
    <rect class="i" x="583.10325" y="599.67213" width="5.42553" height="117.73808"/>
  </g>
  <g>
    <polygon class="c" points="981.523 786.195 593.061 738.574 758.672 704.324 981.523 728.957 981.523 786.195"/>
    <path class="c" d="M756.516,704.6026c1.08106-2.31508,6.24976-4.57108,8.68079-3.06383,1.46533.90851,1.39929,2.8832,3.01282,3.24846.57043.12914.87841-.0498,4.12158-1.29541,2.43213-.93413,2.65881-.98709,3.02734-.91736,1.95679.37033,2.56763,3.18955,3.50061,2.97438.5376-.124.39734-1.09214,1.09522-1.95309,1.30761-1.61308,4.05688-1.4135,4.5957-1.36171,4.29346.41264,5.83753,4.66632,8.22119,3.9415,1.36865-.41619,1.74036-2.08635,2.89368-1.90616.73352.11461.85583.83285,1.82861,1.62576,1.1742.95711,1.9668.702,3.61817,1.28363,3.13916,1.10578,3.96447,3.32765,5.05542,2.88506,1.01574-.4121.55053-2.67128,1.36169-2.89362,1.02869-.282,2.36072,3.14131,3.34448,2.92378,1.20325-.26606.61243-5.69738,1.25122-5.81739,1.25354-.23554,4.93518,20.41926,7.65955,20.25532,2.7832-.16748,3.32971-21.98752,4.93616-21.95746.60388.01129.60766,3.09655,1.87243,8,1.0022,3.88536,3.42395,10.90079,8.17017,16.34043,4.35681,4.99328,10.33911,4.53352,10.21277,5.617-.24,2.05789-21.90076,4.41371-45.27661-2.04256C772.84877,723.07349,755.29225,707.22313,756.516,704.6026Z"/>
    <path class="c" d="M825.91176,716.87234c-.94422-1.45091,3.6643-4.66349,7.55285-12.00282,2.20154-4.1552,2.8291-7.08969,3.40418-6.97871,1.05444.20349-.87976,13.63447,0,13.78723.55749.0968,1.796-5.21689,2.38305-5.10638.65564.12341-.26635,6.86819.34034,6.97872.62548.114,2.35144-6.92044,2.89367-6.80851.54419.11233-.90784,6.2216.51062,6.80851,1.01563.42022,3.56006-1.96968,4.42554-4.93617,1.02136-3.5011-.57764-6.84013-.17017-6.97873.53931-.18342,2.47974,5.99634,4.42554,5.78723.96387-.10357.93433-1.56823,2.5531-2.7234,2.30579-1.6454,5.69568-1.05014,5.78723-.51064.09375.55283-3.366.51528-4.5957,2.5532-2.23547,3.70436,3.35571,13.50613,8,13.27659,3.55261-.17558,3.93909-6.0917,12.766-15.82979,2.63159-2.90322,6.01953-6.15289,6.468-5.78723.38843.31664-1.67078,3.14556-5.61695,9.70214-2.73693,4.54747-4.77807,8.22387-6.6383,11.57446-5.985,10.78-5.29944,10.89111-6.63831,11.91489-7.11645,5.44168-22.00061-16.80021-34.38305-14.46808C828.63588,717.26488,826.485,717.75311,825.91176,716.87234Z"/>
    <path class="c" d="M883.44374,726.40425c1.41028-6.47618-11.22388-11.12942-10.89368-22.29787.08533-2.885,1.02564-5.86538.68091-5.95744-.39966-.10672-2.28284,3.73352-2.89368,8-1.13928,7.95754,2.56043,14.51471,1.87232,14.8085-.76868.32824-4.2826-8.32788-6.63831-7.82978-1.81189.38311-2.074,5.99905-2.38293,5.95745-.40857-.055,1.01257-9.74728-.17017-10.04255-.51477-.1285-1.41016,1.55084-1.87244,2.7234-1.47668,3.74547-.49,7.28272-.68078,7.31915-.223.04259-1.12024-8.00145-2.0426-8-.73548.00116-2.22132,5.115-1.02124,10.21276.3435,1.45895,2.55346,9.91063,10.38293,11.9149C874.56434,734.94846,882.43239,731.04857,883.44374,726.40425Z"/>
    <path class="c" d="M880.55012,718.49345c-1.3761-7.83746-.99426-9.95789-.25537-10.21277.95447-.32925,2.82495,2.34409,3.82983,4.34044,2.24109,4.45222,2.12268,9.4024,1.78723,9.44681-.561.07426-3.91894-13.28311-1.27661-14.55319,1.13257-.54439,3.04859,1.28509,3.57447,1.78723,4.20092,4.01117,4.02539,10.73079,4.08508,10.7234.08008-.0099-1.967-11.80376-.51062-12.25532.83765-.25972,2.94873,3.19717,4.08508,6.6383,1.45471,4.405,1.10181,8.14656,1.532,8.17021.60511.03328-.198-7.45269,4.08509-10.97873,2.96106-2.4376,7.42907-2.22213,7.65954-1.5319.20459.61267-3.01928,1.33023-5.10632,4.0851-2.32019,3.0626-2.10828,7.15553-1.532,10.21276"/>
    <path class="c" d="M900.9229,722.06249a12.29293,12.29293,0,0,0,8.30092-9.289,23.88374,23.88374,0,0,0,4.058,5.58208c.8084-2.9457,3.03372-6.14582,6.069-5.80313,3.15786.35652,4.5834,4.16073,7.244,5.89862a1.606,1.606,0,0,0,.96026.33325,1.63585,1.63585,0,0,0,.85566-.41019,5.96463,5.96463,0,0,0,2.37879-4.72616,4.36933,4.36933,0,0,0-3.08653-4.07831,5.21308,5.21308,0,0,1,3.61786,8.89049,21.08583,21.08583,0,0,1,5.35657-4.35145,7.1406,7.1406,0,0,1,6.65143-.15447,8.926,8.926,0,0,0-4.66172,10.066,10.08161,10.08161,0,0,0,3.96453-5.8491,6.2058,6.2058,0,0,1,3.75792,5.13888l5.14391-4.8608a1.27415,1.27415,0,0,1,2.19411.0016l4.83277,4.92352c-.61347-2.08678.80119-4.33892,2.695-5.40873a14.66412,14.66412,0,0,1,6.31762-1.3837,5.31721,5.31721,0,0,0-2.37769,4.79156c.09513,1.139.571,2.22073.66126,3.36015a2.604,2.604,0,0,1-1.47573,2.80151,8.62654,8.62654,0,0,0,7.66622-7.16851,37.935,37.935,0,0,0,2.52271,9.86039"/>
    <path class="c" d="M969.71527,731.15a5.50668,5.50668,0,0,0,4.53814-2.53821,13.21128,13.21128,0,0,0,1.86238-5.0544,46.64251,46.64251,0,0,0,.75956-5.537c2.1302,1.87771,3.27178,4.632,4.0238,7.37021.75215,2.7387,1.108,5.91993-.58453,8.2006a5.51583,5.51583,0,0,1-5.44507,2.05986"/>
  </g>
  <g>
    <polyline class="g" points="769.233 698.83 590.252 737.128 590.252 740.361 769.233 702.064"/>
    <polygon class="g" points="981.523 794.49 981.523 944.11 0.003 825.54 0.003 628.28 423.473 679.45 535.263 740.58 981.523 794.49"/>
    <polygon class="f" points="554.081 714.739 482.047 725.723 482.047 718.608 554.081 707.624 554.081 714.739"/>
    <polygon class="f" points="670.613 683.78 670.613 687.72 645.843 691.18 645.723 691.2 645.523 691.23 645.153 691.28 645.153 687.34 670.613 683.78"/>
    <polygon class="d" points="670.613 683.78 645.153 687.34 629.283 685.23 654.743 681.68 670.613 683.78"/>
    <polygon class="f" points="654.743 677.74 654.743 681.68 629.283 685.23 629.283 681.29 654.743 677.74"/>
    <polygon class="f" points="638.903 671.69 638.903 675.63 613.443 679.18 613.443 675.24 638.903 671.69"/>
    <polygon class="d" points="638.903 671.69 613.443 675.24 597.573 673.14 623.033 669.59 638.903 671.69"/>
    <polygon class="d" points="654.728 677.735 629.268 681.285 613.398 679.185 638.858 675.635 654.728 677.735"/>
    <polygon class="f" points="623.033 665.65 623.033 669.59 597.573 673.14 597.573 669.2 623.033 665.65"/>
    <polygon class="d" points="623.033 665.65 597.573 669.2 593.913 668.72 593.913 665.39 607.163 663.54 623.033 665.65"/>
    <polygon class="f" points="607.163 659.6 607.163 663.54 593.913 665.39 593.913 661.45 607.163 659.6"/>
    <polygon class="d" points="607.163 659.6 593.913 661.45 593.913 657.84 607.163 659.6"/>
    <path class="g" d="M147.10328,548.36169l101.10639,11.6146v86.56209H234.93306c-5.22724,1.714-12.58649,3.17965-17.87238-.47455-5.54156-3.831-5.451-10.97086-8.13995-19.92391-2.24964-7.49017-7.07007-14.29541-16.71106-27.90588C176.20289,575.63675,156.69563,557.06516,147.10328,548.36169Z"/>
    <polygon class="g" points="645.153 687.342 645.153 690.952 593.913 673.332 593.913 668.722 597.573 669.202 597.573 673.142 613.413 675.242 613.413 679.192 629.283 681.292 629.283 685.232 645.153 687.342"/>
    <g>
      <path class="j" d="M696.0829,574.74V696.57l-100.28,21.7q-108.9451-21.16507-217.91-42.34l65.85-10.04-225.69-24.3c-4.98-18.9-16.57-50.02-44.74-75.36a141.31011,141.31011,0,0,0-23.06-16.85l446.18994,40.6Z"/>
      <polygon class="d" points="443.743 665.89 371.703 676.87 0.003 636.85 0.003 618.1 202.453 639.9 205.683 640.25 212.953 641.03 216.223 641.39 443.743 665.89"/>
    </g>
    <path class="h" d="M221.87281,643.241l-3.3684-.36547-7.48877-.79191a148.27831,148.27831,0,0,0-6.17023-16.65976c-1.37006-3.12692-2.93573-6.396-4.72809-9.75635-5.10925-9.63446-17.03772-31.46176-41.06976-48.77127a120.98382,120.98382,0,0,0-11.87689-7.56345A133.81591,133.81591,0,0,0,115.506,547.12125l30.6045,2.92828,10.48211,1.52432c2.42877,1.56253,5.8028,3.83161,9.67145,6.771a151.79872,151.79872,0,0,1,30.92432,31.50622,160.18822,160.18822,0,0,1,19.15289,36.06009A164.81981,164.81981,0,0,1,221.87281,643.241Z"/>
    <path class="i" d="M217.4828,642.82979l-3.31024-.36547-7.35944-.7919a149.96362,149.96362,0,0,0-6.06372-16.65979c-1.34637-3.12689-2.885-6.39593-4.64642-9.75634-5.021-9.63443-16.74347-31.46173-40.36054-48.77127a118.62574,118.62574,0,0,0-11.67181-7.56342A130.16257,130.16257,0,0,0,112.95283,546.71l27.93768-.476q4.68082,1.57447,9.3617,3.14893c2.99615,1.98333,7.05133,4.80847,11.64508,8.46249a164.54777,164.54777,0,0,1,30.24756,31.36026,157.73247,157.73247,0,0,1,19.90191,36.29422A150.78578,150.78578,0,0,1,217.4828,642.82979Z"/>
  </g>
  <g>
    <polygon class="k" points="106.953 753.7 107.403 753.75 106.953 753.87 106.953 753.7"/>
    <polygon class="d" points="135.533 746.49 116.633 753.75 107.403 753.75 107.403 757.3 106.953 757.47 66.333 764.36 0 756.222 0 737.104 135.533 746.49"/>
    <polygon class="d" points="369.463 743.04 369.463 746.04 355.933 744.43 355.933 747.42 341.503 745.7 341.503 749.58 327.553 747.91 327.553 752.38 221.363 739.62 221.363 743.01 206.373 741.22 206.373 744.83 192.593 743.19 192.593 746.51 177.713 744.73 177.713 748.16 162.903 746.39 162.903 750.1 148.863 748.43 148.863 751.83 135.333 750.22 135.333 753.21 120.903 751.49 120.903 755.37 107.403 753.75 135.533 746.49 259.103 730.15 355.813 741.45 369.463 743.04"/>
    <polygon class="d" points="981.523 926.63 981.523 938.82 307.703 856.87 348.553 849.64 981.523 926.63"/>
    <polygon class="d" points="981.523 783.47 981.523 798.96 480.783 738.05 441.953 733.38 441.953 737.22 426.973 735.43 426.973 739.04 413.193 737.4 413.193 740.72 398.313 738.94 398.313 742.37 383.503 740.6 383.503 744.31 369.463 742.64 369.463 746.04 355.933 744.43 355.933 747.42 341.503 745.7 341.503 748.11 322.933 745.81 355.813 741.45 483.273 724.53 554.083 714.13 554.083 712.96 595.803 718.27 695.843 696.54 714.483 692.5 769.233 698.83 590.253 737.13 981.523 783.47"/>
    <polygon class="f" points="348.55 846.446 306.732 853.37 306.732 856.872 348.55 849.948 348.55 846.446"/>
    <polygon class="d" points="292.662 851.659 334.436 844.735 348.55 846.446 306.732 853.37 292.662 851.659"/>
    <polygon class="f" points="334.371 841.232 292.553 848.156 292.553 851.659 334.371 844.735 334.371 841.232"/>
    <polygon class="d" points="278.483 846.446 320.257 839.522 334.371 841.232 292.553 848.156 278.483 846.446"/>
    <polygon class="f" points="320.249 836.019 278.431 842.943 278.431 846.446 320.249 839.522 320.249 836.019"/>
    <polygon class="d" points="264.361 841.232 306.135 834.308 320.249 836.019 278.431 842.943 264.361 841.232"/>
    <polygon class="f" points="306.07 830.806 264.252 837.73 264.252 841.232 306.07 834.308 306.07 830.806"/>
    <polygon class="d" points="250.182 836.019 291.956 829.095 306.07 830.806 264.252 837.73 250.182 836.019"/>
    <polygon class="f" points="291.943 825.602 250.124 832.526 250.124 836.029 291.943 829.105 291.943 825.602"/>
    <polygon class="d" points="236.054 830.816 277.829 823.892 291.943 825.602 250.124 832.526 236.054 830.816"/>
    <polygon class="f" points="277.764 820.389 235.945 827.313 235.945 830.816 277.764 823.892 277.764 820.389"/>
    <polygon class="d" points="221.875 825.602 263.65 818.678 277.764 820.389 235.945 827.313 221.875 825.602"/>
    <polygon class="f" points="263.642 815.176 221.824 822.1 221.824 825.602 263.642 818.678 263.642 815.176"/>
    <polygon class="d" points="207.753 820.389 249.528 813.465 263.642 815.176 221.824 822.1 207.753 820.389"/>
    <polygon class="f" points="249.463 809.962 207.645 816.886 207.645 820.389 249.463 813.465 249.463 809.962"/>
    <polygon class="d" points="193.574 815.176 235.349 808.252 249.463 809.962 207.645 816.886 193.574 815.176"/>
    <polygon class="f" points="235.35 804.749 193.532 811.673 193.532 815.176 235.35 808.252 235.35 804.749"/>
    <polygon class="d" points="179.461 809.962 221.236 803.038 235.35 804.749 193.532 811.673 179.461 809.962"/>
    <polygon class="f" points="221.171 799.535 179.353 806.459 179.353 809.962 221.171 803.038 221.171 799.535"/>
    <polygon class="d" points="165.282 804.749 207.057 797.825 221.171 799.535 179.353 806.459 165.282 804.749"/>
    <polygon class="f" points="207.049 794.322 165.231 801.246 165.231 804.749 207.049 797.825 207.049 794.322"/>
    <polygon class="d" points="151.161 799.535 192.935 792.611 207.049 794.322 165.231 801.246 151.161 799.535"/>
    <polygon class="f" points="192.87 789.109 151.052 796.033 151.052 799.535 192.87 792.611 192.87 789.109"/>
    <polygon class="d" points="136.982 794.322 178.756 787.398 192.87 789.109 151.052 796.033 136.982 794.322"/>
    <polygon class="f" points="178.898 783.916 137.08 790.84 137.08 794.342 178.898 787.418 178.898 783.916"/>
    <polygon class="d" points="123.009 789.129 164.784 782.205 178.898 783.916 137.08 790.84 123.009 789.129"/>
    <polygon class="f" points="164.776 778.702 122.958 785.626 122.958 789.129 164.776 782.205 164.776 778.702"/>
    <polygon class="d" points="108.888 783.916 150.662 776.992 164.776 778.702 122.958 785.626 108.888 783.916"/>
    <polygon class="f" points="150.597 773.489 108.779 780.413 108.779 783.916 150.597 776.992 150.597 773.489"/>
    <polygon class="d" points="94.709 778.702 136.483 771.778 150.597 773.489 108.779 780.413 94.709 778.702"/>
    <polygon class="f" points="136.484 768.276 94.666 775.2 94.666 778.702 136.484 771.778 136.484 768.276"/>
    <polygon class="d" points="80.596 773.489 122.37 766.565 136.484 768.276 94.666 775.2 80.596 773.489"/>
    <polygon class="f" points="122.305 763.062 80.487 769.986 80.487 773.489 122.305 766.565 122.305 763.062"/>
    <polygon class="d" points="66.417 768.276 108.191 761.352 122.305 763.062 80.487 769.986 66.417 768.276"/>
    <polygon class="f" points="108.183 757.849 66.365 764.773 66.365 768.276 108.183 761.352 108.183 757.849"/>
    <polygon class="d" points="52.295 763.062 94.07 756.138 108.183 757.849 66.365 764.773 52.295 763.062"/>
    <polygon class="f" points="538.331 705.752 466.297 716.737 466.297 712.602 538.331 701.618 538.331 705.752"/>
    <polygon class="d" points="522.58 699.664 538.331 701.618 466.297 712.602 450.546 710.669 522.58 699.664"/>
    <polygon class="d" points="538.331 705.67 554.081 707.624 482.047 718.608 466.297 716.675 538.331 705.67"/>
    <polygon class="f" points="506.872 693.657 434.838 704.642 434.838 700.507 506.872 689.523 506.872 693.657"/>
    <polygon class="d" points="491.121 687.569 506.872 689.523 434.838 700.507 419.087 698.574 491.121 687.569"/>
    <polygon class="f" points="522.623 699.664 450.589 710.648 450.589 706.513 522.623 695.529 522.623 699.664"/>
    <polygon class="d" points="506.872 693.575 522.623 695.529 450.589 706.513 434.838 704.58 506.872 693.575"/>
    <polygon class="f" points="475.412 682.118 403.378 693.102 403.378 688.968 475.412 677.983 475.412 682.118"/>
    <polygon class="d" points="459.661 676.029 475.412 677.983 403.378 688.968 387.627 687.034 459.661 676.029"/>
    <polygon class="f" points="491.162 688.124 419.128 699.108 419.128 694.974 491.162 683.99 491.162 688.124"/>
    <polygon class="d" points="475.412 682.036 491.162 683.99 419.128 694.974 403.378 693.04 475.412 682.036"/>
    <polygon class="f" points="443.739 670.023 371.705 681.007 371.705 676.873 443.739 665.889 443.739 670.023"/>
    <polygon class="f" points="459.49 676.029 387.456 687.013 387.456 682.879 459.49 671.895 459.49 676.029"/>
    <polygon class="d" points="443.739 669.941 459.49 671.895 387.456 682.879 371.705 680.945 443.739 669.941"/>
  </g>
  <g>
    <path class="c" d="M981.56434,944.96731a14.77321,14.77321,0,0,1-3.77112-8.20814q-.1917,2.59554-.38354,5.1911a7.88629,7.88629,0,0,1-2.149-5.20115,18.78439,18.78439,0,0,1-3.06714,4.32629l-2.01672-3.61412a3.90576,3.90576,0,0,0-.33887,2.1423c-.03076.73444-.40014,1.61279-1.134,1.65468a1.54424,1.54424,0,0,1-.95459-.36845,5.85067,5.85067,0,0,1-.62793-8.54184,4.71126,4.71126,0,0,0-2.699,2.56691c-.35767,1.00216-.04175,1.67013-.63831,2.80851-.34692.66219-1.13757,1.741-1.82031,1.60806-.85266-.166-1.233-2.13454-1.16614-2.74868a10.37076,10.37076,0,0,0,.27685-3.18,13.54506,13.54506,0,0,1-3.85,3.492,5.0714,5.0714,0,0,0-4.86975-4.14476,9.40945,9.40945,0,0,1,2.24682,3.849.9047.9047,0,0,1,.03882.54752c-.21216.60828-1.11694.22151-1.631-.16683a18.64915,18.64915,0,0,0-4.273-1.918c-1.447-.60135-2.90344-1.59533-3.28955-3.114a4.61308,4.61308,0,0,1-4.1853,4.25614c-.036-.8219-.35278-1.91573-1.17371-1.862a1.5643,1.5643,0,0,0-.80285.39452q-.91186.69528-1.82349,1.39055a1.42606,1.42606,0,0,1-.7168-1.70066,4.15555,4.15555,0,0,1,1.0968-1.67592,15.8424,15.8424,0,0,0-6.94567,2.67461,5.397,5.397,0,0,1,3.26159-4.216,17.47849,17.47849,0,0,0-10.51648,2.97986,4.52656,4.52656,0,0,1-1.48413.78816,1.32009,1.32009,0,0,1-1.47058-.55008,2.52253,2.52253,0,0,1,.12268-1.693,4.15672,4.15672,0,0,0-4.38025-4.83076,4.56033,4.56033,0,0,1-2.1466,7.21338c-.69629.22388-1.66333.59627-1.47547,1.30311a1.18479,1.18479,0,0,0,.45044.5703,18.364,18.364,0,0,0,6.53955,2.96929c3.65454,1.07025,7.35572,1.97246,11.0553,2.87426q7.0199,1.7111,14.03967,3.42221c5.25013,1.27975,15.32361,3.21775,31.52784,4.86868"/>
    <path class="c" d="M836.09826,937.74671a82.53811,82.53811,0,0,0-15.1377-3.50832c-5.55936-.56837-11.20026-.00391-16.73853-.75028a44.805,44.805,0,0,1-17.70536-6.78914,4.71047,4.71047,0,0,1-2.42171-2.69927c-.265-1.28483.52607-2.522.84619-3.79421.74983-2.97993-1.03454-6.506.71568-9.03163a6.11023,6.11023,0,0,1,4.18229-2.1867,5.69123,5.69123,0,0,0-.89762,7.735,9.76066,9.76066,0,0,1,4.41656-6.77035,5.79246,5.79246,0,0,0-1.60461,7.51461,14.49946,14.49946,0,0,1,4.43348-6.16907,5.20709,5.20709,0,0,0,1.18672,6.59722,5.59951,5.59951,0,0,1,1.76248-5.50129,5.54448,5.54448,0,0,0,.67848,5.61241,4.69346,4.69346,0,0,0,2.03845-8.89155,11.2952,11.2952,0,0,1,6.29572,2.5821,7.29058,7.29058,0,0,1,2.35357,3.26075,4.3155,4.3155,0,0,1-.533,3.88354,3.94168,3.94168,0,0,0,2.56577-2.15744c.56206-1.01059.9213-2.133,1.57477-3.08709a7.4289,7.4289,0,0,1,4.80127-2.91428,14.25941,14.25941,0,0,1,5.717.285,14.72914,14.72914,0,0,0-6.62979,2.1602,4.13605,4.13605,0,0,0-2.21171,2.76762,3.74947,3.74947,0,0,0,.6514,2.28816,9.07138,9.07138,0,0,0,11.35982,3.35693A3.1547,3.1547,0,0,0,829.16,920.443c.51364-.83979.49073-2.16845,1.429-2.46636a6.81908,6.81908,0,0,0,3.38785,5.33527,20.13963,20.13963,0,0,0,6.15558,2.24674,5.15965,5.15965,0,0,0-1.52914-2.17191,7.85186,7.85186,0,0,1,4.39572,1.38805,3.52364,3.52364,0,0,0,1.90837.91348,2.4905,2.4905,0,0,0,1.29449-.501,9.57231,9.57231,0,0,0,4.03808-5.91573,12.94919,12.94919,0,0,0,.781,6.43119c.69492,1.791,1.90416,3.279,2.638,5.04981,1.45716,3.51619,6.38409,5.77645,9.69969,7.17269,3.40227,1.43274,7.19015,2.22145,10.00661,4.608"/>
    <path class="c" d="M256.75014,856.14381a14.77321,14.77321,0,0,1-3.77112-8.20814q-.1917,2.59554-.38354,5.1911a7.88629,7.88629,0,0,1-2.14905-5.20115,18.7847,18.7847,0,0,1-3.06714,4.32629l-2.01672-3.61412a3.90576,3.90576,0,0,0-.33887,2.1423c-.03076.73444-.40015,1.61279-1.134,1.65468a1.54434,1.54434,0,0,1-.95459-.36845,5.85067,5.85067,0,0,1-.62793-8.54184,4.71129,4.71129,0,0,0-2.699,2.56691c-.35766,1.00215-.04174,1.67013-.6383,2.80851-.34693.66219-1.13758,1.741-1.82031,1.60806-.85267-.166-1.233-2.13454-1.16614-2.74868a10.37107,10.37107,0,0,0,.27685-3.18,13.54516,13.54516,0,0,1-3.85,3.492,5.07143,5.07143,0,0,0-4.86975-4.14476,9.40955,9.40955,0,0,1,2.24682,3.849.9047.9047,0,0,1,.03882.54752c-.21216.60828-1.11694.22151-1.631-.16683a18.64915,18.64915,0,0,0-4.273-1.918c-1.447-.60135-2.90344-1.59533-3.28955-3.114a4.61308,4.61308,0,0,1-4.1853,4.25614c-.036-.8219-.35279-1.91573-1.17371-1.862a1.56437,1.56437,0,0,0-.80286.39452q-.91187.69528-1.82348,1.39055a1.42606,1.42606,0,0,1-.7168-1.70066,4.15545,4.15545,0,0,1,1.0968-1.67592,15.84249,15.84249,0,0,0-6.94568,2.67461,5.39706,5.39706,0,0,1,3.2616-4.216,17.47849,17.47849,0,0,0-10.51648,2.97986,4.52656,4.52656,0,0,1-1.48413.78816,1.32008,1.32008,0,0,1-1.47058-.55009,2.5225,2.5225,0,0,1,.12268-1.693,4.15672,4.15672,0,0,0-4.38025-4.83076,4.56033,4.56033,0,0,1-2.14661,7.21338c-.69628.22388-1.66333.59626-1.47546,1.30311a1.18483,1.18483,0,0,0,.45044.5703,18.36378,18.36378,0,0,0,6.53955,2.96928c3.65454,1.07026,7.35571,1.97247,11.0553,2.87427q7.01989,1.7111,14.03967,3.4222c5.25012,1.27976,15.32361,3.21776,31.52783,4.86869"/>
    <path class="c" d="M111.28406,848.9232a82.53891,82.53891,0,0,0-15.1377-3.50831c-5.55936-.56837-11.20026-.00391-16.73853-.75028a44.80505,44.80505,0,0,1-17.70536-6.78914,4.71052,4.71052,0,0,1-2.42172-2.69927c-.265-1.28483.52608-2.522.8462-3.79421.74983-2.97994-1.03454-6.506.71567-9.03163a6.11025,6.11025,0,0,1,4.1823-2.1867,5.69122,5.69122,0,0,0-.89762,7.735,9.76063,9.76063,0,0,1,4.41656-6.77035,5.79247,5.79247,0,0,0-1.60462,7.5146,14.49958,14.49958,0,0,1,4.43348-6.16907,5.20712,5.20712,0,0,0,1.18673,6.59723,5.59951,5.59951,0,0,1,1.76248-5.50129,5.54446,5.54446,0,0,0,.67848,5.61241,4.69345,4.69345,0,0,0,2.03844-8.89155,11.29517,11.29517,0,0,1,6.29572,2.5821,7.29053,7.29053,0,0,1,2.35358,3.26075,4.31553,4.31553,0,0,1-.533,3.88354,3.94171,3.94171,0,0,0,2.56577-2.15744c.56206-1.01059.92129-2.13305,1.57476-3.08709a7.429,7.429,0,0,1,4.80128-2.91428,14.25936,14.25936,0,0,1,5.717.285,14.7291,14.7291,0,0,0-6.62978,2.1602,4.13605,4.13605,0,0,0-2.21171,2.76762,3.74947,3.74947,0,0,0,.6514,2.28816,9.07138,9.07138,0,0,0,11.35982,3.35693,3.15476,3.15476,0,0,0,1.3621-1.09661c.51364-.83979.49073-2.16845,1.429-2.46636a6.81911,6.81911,0,0,0,3.38786,5.33527,20.13944,20.13944,0,0,0,6.15558,2.24674,5.15958,5.15958,0,0,0-1.52915-2.17191,7.85187,7.85187,0,0,1,4.39573,1.388,3.52364,3.52364,0,0,0,1.90837.91348,2.4905,2.4905,0,0,0,1.29449-.501,9.57229,9.57229,0,0,0,4.03807-5.91573,12.94942,12.94942,0,0,0,.781,6.43119c.69493,1.79095,1.90417,3.279,2.638,5.04981,1.45716,3.51619,6.38408,5.77644,9.69969,7.17269,3.40227,1.43274,7.19015,2.22144,10.00661,4.608"/>
    <path class="c" d="M848.25456,930.71091a7.1021,7.1021,0,0,0,3.41975-6.04558c-.0051-.67492-.00687-1.53125.61284-1.79865.59776-.25794,1.22174.29284,1.6034.82027a11.93709,11.93709,0,0,1,1.655,3.23011,11.35846,11.35846,0,0,1,11.5922-4.224,2.81036,2.81036,0,0,0-2.71946,2.94157c.12705,1.38309,1.27845,2.46708,1.60305,3.81753a3.38687,3.38687,0,0,1-1.05842,3.28448,6.29753,6.29753,0,0,0,4.01733-3.65839,15.76449,15.76449,0,0,0,1.11-5.48345,7.50724,7.50724,0,0,1,3.3676,4.18154,5.37309,5.37309,0,0,0,.22719-7.7154,11.31532,11.31532,0,0,1,5.1849,4.911,6.13622,6.13622,0,0,1,.48346-4.69136,4.395,4.395,0,0,1,4.01908-2.21994c-1.16953,1.75174-1.10738,4.01639-1.60925,6.062a10.974,10.974,0,0,1-3.77121,5.90465,8.64072,8.64072,0,0,0,7.76521-5.86,6.5769,6.5769,0,0,1,1.69395,4.99778,2.8658,2.8658,0,0,0,3.19351-3.21792,10.01089,10.01089,0,0,1,5.15382,4.15725c1.322-.46991,1.7838-2.227,1.32239-3.552a8.13318,8.13318,0,0,0-2.625-3.22521,5.59939,5.59939,0,0,1,3.46344.76967,5.69063,5.69063,0,0,1,2.94761,3.63845,3.49142,3.49142,0,0,1-1.98474,3.95892l8.65509-2.66582,1.38008,3.098c.35-1.30231,2.18307-1.6762,3.35525-1.00949a6.23174,6.23174,0,0,1,2.33005,3.21377,56.272,56.272,0,0,1,2.04624,5.72674.60671.60671,0,0,1-.54206.90942c-4.201,1.13862-8.60646,1.21332-12.95848,1.28081-14.061.218-28.38668.40109-41.84988-3.66093"/>
    <path class="c" d="M785.04222,918.87368c-4.23951-.94155-7.72791-3.02527-9.342-5.58026a7.53017,7.53017,0,0,1-5.84212,1.51113c-2.18985-.30009-3.92915-1.52722-4.0709-2.8877a1.83276,1.83276,0,0,1,.85271-1.71539,27.41248,27.41248,0,0,0-11.07589.84113,9.556,9.556,0,0,1-3.99875.67945c-2.06-.28892-2.66618-1.82378-3.55051-2.98479-1.26881-1.66579-3.874-2.92659-6.84141-3.3109.586,1.34319,1.1025,2.91561-.31818,4.02277a8.71487,8.71487,0,0,1-3.866,1.25061,13.9891,13.9891,0,0,1-5.83939-.098c-1.77425-.53136-2.906-1.96158-1.86645-2.99741-3.89948-.36639-8.10671.85517-10.11154,2.93588l-2.61429-3.16722a10.273,10.273,0,0,0-4.34736,2.53093,9.4268,9.4268,0,0,1-2.02618-3.91918l-7.96564,3.57586c-1.51836-2.75021,1.35034-6.12352,5.95115-6.998-6.6494-.00348-12.514,2.70992-17.05119,5.69114-1.27182.83568-3.13124,1.78769-4.75855,1.24941a3.05291,3.05291,0,0,1-1.51335-1.22677l-3.03273-4.02134a5.6741,5.6741,0,0,1-1.02281,3.66159c-2.016,2.46836-7.1732,3.17515-10.86765,4.78391-.41845.18221-.8614.42756-.8413.73752.02257.34816.60486.56572,1.119.7182a294.55886,294.55886,0,0,0,28.90448,6.46218c31.56821,5.9518,63.58153,11.81843,96.69011,12.913"/>
    <path class="c" d="M572.59817,896.34372c-4.723-.99319-8.48418-4.81339-8.91133-9.05122-3.11368,3.94566-10.07165,2.66312-15.03558.6376a5.49417,5.49417,0,0,0-2.53709-.59c-1.36722.12822-2.391,1.24044-3.74618,1.44433-2.8165.42374-4.17919-2.89122-4.42362-5.38507a17.6523,17.6523,0,0,0-7.00339,3.34446c-.98442-4.10825-5.24733-7.44154-10.019-7.83413.329,1.31666,1.88172,2.22721,2.09424,3.56213.31932,2.00584-2.79694,3.31543-4.9321,2.53811s-3.3568-2.71323-4.41591-4.51353c-1.61443,2.55383-5.42072,3.54411-8.70186,3.03171s-6.14095-2.21816-8.79527-3.98357a3.624,3.624,0,0,1,.50515,4.44555,9.68991,9.68991,0,0,1-6.64409-5.30938,28.29727,28.29727,0,0,0-6.76465,2.08613,14.50382,14.50382,0,0,0-3.85914-5.53625,7.36059,7.36059,0,0,1-4.53152,5.165,6.78652,6.78652,0,0,1-2.52975-6.887c-3.2871.2931-2.43928,5.60613-5.50912,6.67636-4.20151,1.46477-6.23382-6.88476-10.60582-5.87279l1.78541,3.05128c-1.73863,2.35337-5.95107,1.23414-8.49257-.46941s-5.56556-3.89015-8.536-2.847a2.97978,2.97978,0,0,1,2.16752,2.91354c-3.35341.709-7.13015,1.36544-10.05894-.23114s-3.13991-6.44515.23821-7.05761a15.495,15.495,0,0,0-12.81572,5.555l2.42765-12.17961a71.86388,71.86388,0,0,0-7.98594,10.78344c.01618-4.79383-3.39926-9.46774-8.37616-11.46249,2.1408,1.53006,3.76249,3.76353,3.84034,6.18268a5.65372,5.65372,0,0,1-4.34827,5.54278c-2.6737.61061-5.86685-1.21733-5.85641-3.63743a12.87239,12.87239,0,0,1-9.81449,3.186,4.71348,4.71348,0,0,0-1.3153-3.557l-2.69921,2.484-2.42548-2.73846-2.71609,2.03472c-.46918-1.35038-2.30648-1.96806-3.91751-1.93191s-3.17589.52722-4.78713.55555c-2.87455.05054-5.48165-1.3498-8.21055-2.14269a19.9524,19.9524,0,0,0-12.69258.58639,8.40186,8.40186,0,0,1-1.94361-6.4401,10.05257,10.05257,0,0,1-7.73427,4.95419,10.285,10.285,0,0,0-3.74841.66816c-1.94045,1.04208-1.94707,3.684-.60309,5.293s3.56521,2.43167,5.68324,3.16177a381.49128,381.49128,0,0,0,109.08363,20.33407"/>
    <path class="c" d="M63.31247,831.40618a9.7796,9.7796,0,0,1-6.48559-11.04283,16.33935,16.33935,0,0,1-5.44577,4.32081c-2.17443.87885-5.00564.63392-6.45046-1.19224a1.45954,1.45954,0,0,1-.385-1.25024,1.69626,1.69626,0,0,1,.96119-.90991,13.6538,13.6538,0,0,1,3.64354-1.24582c-.65226-2.5258-4.36845-3.19138-6.52641-1.68354s-2.97806,4.27957-3.23135,6.87385l-3.39838-7.203a8.484,8.484,0,0,1-1.25994,6.05212L31.86741,817.122c-1.15756,1.60262-.621,4.53975-2.54688,5.05865-1.27305.343-2.41158-.8565-3.05294-1.99279s-1.31311-2.48834-2.60189-2.76855c.13719-1.26106,2.32448-1.14369,2.88486-2.28554.46223-.94185-.59276-2.01006-1.647-2.136a3.79279,3.79279,0,0,0-3.8443,2.90734,6.46285,6.46285,0,0,0,1.06019,4.96467,1.5219,1.5219,0,0,1-2.0931.77106,3.22226,3.22226,0,0,1-1.509-1.94817l-3.06852,1.07843-1.68643.5927c-2.05019.72054-4.57,2.359-3.77882,4.35669a3.87407,3.87407,0,0,0,1.56275,1.62175c14.211,9.644,33.30642,8.70246,48.84442,16.09829"/>
    <path class="c" d="M34.25282,847.83A106.34991,106.34991,0,0,1,.52284,840.97L-.9393,818.82979c.33-.12,2.06211-.50978,2.22215-.82979.61-1.22-.65-3.16.51-3.88a1.75386,1.75386,0,0,1,1.75.23,6.99317,6.99317,0,0,1,3.37,6.23,17.27283,17.27283,0,0,1,4.2-7.55,19.26977,19.26977,0,0,0,4.97,15.8Z"/>
    <path class="c" d="M122.75633,839.72567a9.948,9.948,0,0,0,9.73548-6.91173,2.89074,2.89074,0,0,1,1.4675,3.32224,5.51047,5.51047,0,0,0,4.91694-7.234A13.6336,13.6336,0,0,1,139.662,841.186a12.33077,12.33077,0,0,1,5.39554-5.87842l-.5377,4.63411,8.21869-3.84113c1.3348-.62384,2.91316-2.07216,2.02653-3.24892a8.81605,8.81605,0,0,0,.81393,4.89732c.87755,1.432,3.00939,2.22038,4.28374,1.12637-.01292,1.27367,1.48324,2.14741,2.73736,1.92474a5.25659,5.25659,0,0,0,3.01719-2.19794c1.08024,1.70193,2.78762,3.20541,4.80259,3.2637s4.05-1.94978,3.41812-3.864a6.72238,6.72238,0,0,1,5.31676,7.44517,14.89092,14.89092,0,0,1,7.88462-3.35819c-1.409-.28157-1.93752,2.05693-.95321,3.10373s2.54525,1.2704,3.79312,1.98277a5.52616,5.52616,0,0,1,1.43261,7.98705c-1.95352,2.333-5.40216,2.547-8.44485,2.579-13.50266.14207-27.37075.22285-40.006-4.54085"/>
    <path class="c" d="M341.20927,869.97884a20.99162,20.99162,0,0,1-4.56329-14.846,14.36325,14.36325,0,0,0-2.91438,7.90075l-3.22545-8.42871-4.92817,6.34749a3.55427,3.55427,0,0,1-1.58,1.35962,3.11826,3.11826,0,0,1-2.04859-.24507,12.66664,12.66664,0,0,1-7.42248-8.14875,5.61443,5.61443,0,1,1-10.18135-3.9819,18.23594,18.23594,0,0,1-4.50905,7.47683,2.45831,2.45831,0,0,1-1.72832.92094c-1.08136-.05449-1.6137-1.31-1.91542-2.34986-1.50917-5.20117-3.868-10.75956-8.75524-13.09289a12.45239,12.45239,0,0,1,1.27253,13.27458,2.6441,2.6441,0,0,1-.99074,1.16769c-1.24577.66862-2.65543-.6865-3.12977-2.01841s-.66433-2.92369-1.81685-3.74265a15.20838,15.20838,0,0,1-1.72349,5.4629l-2.95625-4.56685c-1.152,1.55985-2.62477,3.19242-4.562,3.27788s-3.69571-2.57049-2.22848-3.83838l-6.62376,3.15462a7.70922,7.70922,0,0,1-.74257-9.56615c-3.94394.42567-2.37467,8.47771-6.28156,9.16481-1.57554.27709-3.49986-.91574-4.63532.21113a2.30737,2.30737,0,0,0-.57977,1.38383c-.45648,3.78781,3.50565,6.49814,7.02047,7.982,19.32878,8.16028,41.01065,7.99114,61.98927,7.692l25.63529-.3655"/>
    <path class="c" d="M776.24086,708.15939c-.60169-.31131-6.48377-3.46869-7.00806-9.32937a10.13414,10.13414,0,0,1,.73022-4.70737c2.00293-4.72163,7.22632-6.43307,7.09766-6.69711-.08081-.16579-2.11328.56419-9.29785,3.7615a27.6447,27.6447,0,0,0-8.1991,14.04526q-3.325-2.79732-6.65014-5.59465c-.40332-.33922-.91785-.70079-1.41224-.5183-.43188.15949-.618.65706-.74572,1.09948-.79969,2.77134-1.48035,5.87069-3.80127,7.58346a5.73911,5.73911,0,0,1-7.60462-8.53245,8.13291,8.13291,0,0,0-4.72509,7.61461c.07885,1.743.44958,4.04121-1.1482,4.74214-1.177.51631-2.459-.38315-3.42895-1.2264l-6.0857-5.29075a16.137,16.137,0,0,1,2.11451,10.132,10.8772,10.8772,0,0,1-7.49891-5.89919c-1.27514,2.56415-2.645,5.23995-5.005,6.862s-6.02515,1.7283-7.7616-.54891c-.73523-.96412-1.12426-2.30218-2.22644-2.80744-1.06738,1.91618-.87463,4.40345-2.18017,6.166-1.93592,2.61355-6.297,2.11111-8.58411-.20139s-2.9978-5.72179-3.431-8.94524q-1.77355,6.04287-3.547,12.08573-.32721-5.63262-.65466-11.26526c-2.38159.5358-3.34314,3.41527-3.46484,5.85335s.09021,5.13643-1.43689,7.04083l-3.26184-3.16068c-3.3219.94356-3.60852,6.17243-6.81665,7.4504-2.78125,1.108-5.538-1.42906-8.33533-2.496-5.74414-2.19092-11.72009,1.94789-17.51575,3.99864a6.18594,6.18594,0,0,1-3.9303.37886,4.16264,4.16264,0,0,1-2.55542-4.51028,6.077,6.077,0,0,1,3.301-4.30516A6.22338,6.22338,0,0,0,635.181,727.22c.05322,1.04423.36463,2.16644-.13574,3.08458a2.83227,2.83227,0,0,1-3.43726.919,16.49627,16.49627,0,0,1-3.27038-2.05989,11.05423,11.05423,0,0,0-7.8374-1.64262,8.5149,8.5149,0,0,1,5.7163,6.934,12.37762,12.37762,0,0,1-10.5935-6.16478,11.46883,11.46883,0,0,1-.02088,5.38257c-.57409,1.71915-2.28649,3.20474-4.06872,2.87482-2.19495-.40633-3.06458-2.98645-4.3501-4.81133-2.17908-3.09338-7.16785-4.19653-9.85242-1.52992a10.8165,10.8165,0,0,1,9.03516,4.40959c.58081.80709,1.04858,1.69589,1.68762,2.4577a8.06172,8.06172,0,0,0,2.82447,2.1039c2.70214,1.24132,5.80212,1.151,8.77307,1.02475,24.879-1.05679,49.71411-2.94725,74.5437-4.83736,13.11621-.99844,31.54077-3.66464,54.36072-4.13812"/>
    <path class="c" d="M674.81416,907.95754c-3.55419-1.58833-5.98352-4.614-6.26457-7.80239a8.83937,8.83937,0,0,0-3.112,3.467c-3.33382-.79391-4.82163-4.47752-2.67361-6.61949a5.48366,5.48366,0,0,0-6.13866,3.11612c-.31812.88075-.4707,1.94882-1.496,2.39306a2.83213,2.83213,0,0,1-3.0917-.9247,8.531,8.531,0,0,1-1.08072-2.71607c-1.05478-3.06951-4.49422-5.55819-8.49631-6.14768a7.97584,7.97584,0,0,1,2.8453,8.51956,21.59652,21.59652,0,0,1-6.71567-8.06319,23.46532,23.46532,0,0,1-6.49844,5.0443c-1.72594-4.46578-7.27434-7.86163-13.244-8.10587,2.927,1.67536,4.39086,4.76781,3.56236,7.52553-3.25122-4.32548-8.9003-7.50919-15.18475-8.55782a27.47127,27.47127,0,0,1,3.61861,5.06071c.65551,1.18728,1.16018,2.67416.1204,3.68064a4.53112,4.53112,0,0,1-2.68739.95521c-4.55661.42832-9.28764-1.95585-10.66151-5.3728a12.12232,12.12232,0,0,1-5.464,2.60395c-2.13945.26754-4.70209-.86863-4.65881-2.559a10.02251,10.02251,0,0,1-6.13245,1.66726c-2.21094-.18627-4.3295-1.47425-4.66374-3.18973s1.58564-3.58193,3.79744-3.402c-1.11537-1.25425-3.78355-.33288-4.71081,1.0114s-1.14514,3.02907-2.56809,4.07683c-1.891,1.39241-5.16322,1.09214-6.99529,2.53175-1.64126,1.28968-1.382,3.53431-.03149,5.01513s3.50622,2.36659,5.61081,3.14543c25.26064,9.34822,54.0028,10.78941,81.9481,11.43845,15.17065.35235,30.35012.51716,45.52624.365"/>
    <path class="g" d="M602.57134,453.6383c5.98511-13.53144,13.98116-23.52453,18.95748-29.74468,8.85791-11.07193,15.22424-19.02945,24.12769-19.14893,1.96508-.02637,6.095.3017,19.53186,10.851,9.50671,7.46378,17.47695,14.49524,22.37233,19.7447v146L602.316,600.06383Z"/>
    <path class="l" d="M644.71278,389.53,640.53285,395.17a.57063.57063,0,0,1-.07007-.07995s-1.13989-1.3-2.73-3.3c1.28-1.95,2.53-3.88,3.75-5.81Q642.93775,387.615,644.71278,389.53Z"/>
  </g>
  <g>
    <path class="i" d="M632.24281,399.96a10.18064,10.18064,0,0,1-1.1,1.59C631.50282,401.02,631.87281,400.49,632.24281,399.96Z"/>
    <path class="i" d="M662.45277,365.57c-.69995,1.23-5.1499,9.06-5.85986,10.31-2.95008,5.17-4.5,7.9-4.61011,8.1-.62988,1.12-2.29,3.96-4.91992,8.07-.83008-.87-1.61011-1.71-2.3501-2.52q-1.76989-1.92-3.23-3.55,6.6-10.455,12.09009-20.41Z"/>
    <path class="i" d="M692.97279,436.12V582.04l-6.21-.53V437.09c-19.78-10.33-32.84009-22.43006-41.61-31.05l.5-3.55,3.46-2.67a281.92744,281.92744,0,0,0,23.86,20.71C677.94276,424.38,685.52284,431.17,692.97279,436.12Z"/>
    <path class="i" d="M631.10292,401.6c-.33008.48-.67017.96-1.01,1.43A10.577,10.577,0,0,1,631.10292,401.6Z"/>
    <path class="i" d="M643.1128,398.09c-4.91,7.31994-11.72,16.84-20.18,27.27a375.6405,375.6405,0,0,1-25.30994,28.17c-.38.4-.7799.8-1.18,1.18994V602.81l-8.74-.96V454.02a413.87706,413.87706,0,0,0,42.38013-50.97c0-.01.01-.01.01-.02.33984-.47.67993-.95,1.01-1.43a.17636.17636,0,0,0,.03991-.05,10.18064,10.18064,0,0,0,1.1-1.59c0-.01.01-.01.01-.02a4.87963,4.87963,0,0,0,.57007-2.09,8.37515,8.37515,0,0,0-1.02-4.11,13.92824,13.92824,0,0,0-1.72-2.37c-1-1.22-2.09009-2.34-2.62012-2.89-.43994-.45-.87988-.9-1.5-1.61-.28-.32-.59-.7-.99-1.21a23.98031,23.98031,0,0,1-3.88989-7.02,16.51647,16.51647,0,0,1-.6001-5.21,18.38836,18.38836,0,0,1,.24-2.18h7.97c.01.63.02,1.69.03,2.39.01.95.02,1.39.02,1.49.08008,4.64,5.57007,12.3,8.99,16.66,1.59009,2,2.73,3.3,2.73,3.3l.01.01a.43246.43246,0,0,0,.06006.07C641.52284,396.3,642.3628,397.25,643.1128,398.09Z"/>
    <path class="a" d="M698.93275,434.72V580.71l-5.96,1.33V436.12c-22.05005-10.36-36.09-24.01-44.80994-32.66a232.14892,232.14892,0,0,1-44.45007,49.93V602.01l-7.27,1.63V454.72c.40015-.38995.8-.79,1.18-1.18994a375.6405,375.6405,0,0,0,25.30994-28.17c7.26717-8.95931,13.31673-17.24717,17.9904-24.04589a4.98123,4.98123,0,0,0-.36065-6.11027l-.02965-.03385a.43246.43246,0,0,1-.06006-.07l-.01-.01s-1.13989-1.3-2.73-3.3c-3.41992-4.36-8.90991-12.02-8.99-16.66,0-.1-.01-.54-.02-1.49-.01-.7-.02-1.76-.03-2.39,1.86011,2.38,4.72009,5.34,7.45007,8.54,1.06995,1.25,2.85,3.38,5.34,6.19.62012.7,1.29,1.43,2,2.21.39.43.81006.88,1.23,1.34.74.81,1.52,1.65,2.3501,2.52,2.62988-4.11,4.29-6.95,4.91992-8.07.11011-.2,1.66-2.93,4.61011-8.1.71-1.25,5.15991-9.08,5.85986-10.31a5.41164,5.41164,0,0,1,1.46008,2.09,6.91239,6.91239,0,0,1,.34,2.47,19.91856,19.91856,0,0,1-.26,3.47c-.87,4.56-6.43994,14.28-8.63989,18.13q-.61385,1.07418-1.24687,2.15583a4.982,4.982,0,0,0,.80249,6.099A281.30546,281.30546,0,0,0,678.59291,420.53C683.56288,424.38,691.4828,429.77,698.93275,434.72Z"/>
    <path class="i" d="M187.70228,308.78723c-.7,1.23507-5.1499,9.09745-5.85986,10.35262-2.95008,5.19135-4.5,7.93268-4.61011,8.13345-.62988,1.12463-2.29,3.97639-4.91992,8.10337-.83008-.87359-1.61011-1.717-2.3501-2.53038q-1.76989-1.928-3.23-3.56472,6.6-10.49817,12.09009-20.49434Z"/>
    <path class="i" d="M218.2223,379.62883V526.152l-6.21-.53216V380.60288c-19.78-10.37272-32.84009-22.52277-41.61-31.1784l.5-3.56466,3.46-2.681a282.2709,282.2709,0,0,0,23.86,20.79563C203.19227,367.84032,210.77235,374.65836,218.2223,379.62883Z"/>
    <path class="i" d="M168.3628,341.44c-4.91,7.35-11.72,16.91-20.18,27.38a374.65229,374.65229,0,0,1-25.31,28.29c-.38.4-.78.8-1.18,1.2v148.7l-8.74-.3V397.6a414.81256,414.81256,0,0,0,42.38-51.18c0-.01.01-.01.01-.02.34-.47.68-.95,1.01-1.43a.17561.17561,0,0,0,.04-.05,10.76969,10.76969,0,0,0,1.1-1.6c0-.01.01-.01.01-.02a4.92516,4.92516,0,0,0,.57-2.1,8.47362,8.47362,0,0,0-1.02-4.13,14.31394,14.31394,0,0,0-1.72-2.38c-1-1.22-2.09-2.35-2.62-2.9-.44-.45-.88-.9-1.5-1.61-.28-.33-.59-.71-.99-1.22a24.16457,24.16457,0,0,1-3.89-7.05,16.62308,16.62308,0,0,1-.6-5.23,18.55843,18.55843,0,0,1,.24-2.19h7.97c.01.63.02,1.7.03,2.4.01.95.02,1.4.02,1.5.08,4.66,5.57,12.35,8.99,16.73,1.59,2,2.73,3.31,2.73,3.31l.01.01a.43421.43421,0,0,0,.06.07C166.77284,339.64,167.6128,340.6,168.3628,341.44Z"/>
    <path class="h" d="M224.18226,378.223V524.81651l-5.96,1.33546V379.62883c-22.05-10.4028-36.09-24.10925-44.80994-32.795a232.79032,232.79032,0,0,1-44.45007,50.13638v149.2343l-7.27-.52369V398.30569c.40015-.39156.80005-.79324,1.18005-1.19486a376.67449,376.67449,0,0,0,25.30994-28.28648c7.26716-8.99634,13.31673-17.31846,17.9904-24.14528a5.018,5.018,0,0,0-.36065-6.13553l-.02965-.034a.43307.43307,0,0,1-.06006-.0703l-.01-.01s-1.13989-1.30542-2.73-3.31369c-3.41992-4.378-8.90991-12.06964-8.99-16.72883,0-.10039-.01-.54221-.02-1.49615-.01-.70291-.02-1.76729-.03-2.3999,1.86011,2.38985,4.72009,5.3621,7.45007,8.57528,1.07,1.25517,2.85,3.394,5.34,6.21559.62012.70291,1.29,1.4359,2,2.21916.39.43177.81006.88364,1.23,1.34556.74.81335,1.52,1.65679,2.3501,2.53038,2.62988-4.127,4.29-6.97874,4.91992-8.10337.11011-.20077,1.66-2.9421,4.61011-8.13345.71-1.25517,5.15991-9.11755,5.85986-10.35262a5.43358,5.43358,0,0,1,1.46008,2.09861,6.96709,6.96709,0,0,1,.34,2.48024,20.082,20.082,0,0,1-.26,3.48431c-.87,4.57885-6.43994,14.33906-8.63989,18.20495q-.61384,1.07862-1.24687,2.16473a5.01793,5.01793,0,0,0,.80248,6.1242,281.65033,281.65033,0,0,0,23.68438,20.63016C208.81239,367.84032,216.73231,373.25261,224.18226,378.223Z"/>
    <polygon class="m" points="587.703 591.766 124.401 536.759 124.401 399.255 587.703 454.02 587.703 591.766"/>
    <path class="n" d="M632.82289,397.85a4.87963,4.87963,0,0,1-.57007,2.09c0,.01-.01.01-.01.02a10.18064,10.18064,0,0,1-1.1,1.59.17636.17636,0,0,1-.03991.05c-.33008.48-.67017.96-1.01,1.43,0,.01-.01.01-.01.02a413.87706,413.87706,0,0,1-42.38013,50.97L124.40284,399.26a413.20378,413.20378,0,0,0,30.27491-35.36639c6.90106-9.04792,13.047-17.88172,18.5166-26.34766Q402.1736,365.133,631.15284,392.72a7.24381,7.24381,0,0,1,.65,1.02A8.37515,8.37515,0,0,1,632.82289,397.85Z"/>
    <polygon class="i" points="596.443 592.34 596.443 603.64 152.393 551.35 142.943 550.24 113.803 546.81 113.763 546.8 112.953 546.71 112.953 535.41 121.693 536.44 596.443 592.34"/>
    <polygon class="i" points="587.703 518.8 596.443 521.06 596.443 602.81 587.703 601.85 587.703 518.8"/>
    <polygon class="f" points="645.913 691.21 645.153 691.17 644.733 691.14 634.113 690.55 634.063 690.55 631.733 689.77 593.913 677.13 593.913 673.33 645.153 690.95 645.843 691.18 645.913 691.21"/>
    <polygon class="o" points="450.333 488.87 450.333 557.2 395.953 550.66 395.953 481.09 421.233 450.57 414.573 441.17 416.043 440.28 422.353 449.22 428.633 441.64 429.993 443 423.453 450.78 450.333 488.87"/>
    <polygon class="n" points="427.051 443.55 422.382 449.263 416.039 440.277 423.752 438.989 425.998 442.094 427.051 443.55"/>
    <polygon class="n" points="430.55 450.702 423.398 450.702 429.997 443.074 438.242 442.3 430.55 450.702"/>
    <polygon class="n" points="458.252 486.447 429.461 447.09 423.398 450.702 450.337 488.872 458.252 486.447"/>
    <polygon class="n" points="458.252 486.447 450.337 488.872 450.337 557.298 458.252 554.489 458.252 486.447"/>
    <polygon class="p" points="448.183 488.56 448.183 555.128 397.853 548.904 397.853 481.27 422.333 452.12 448.183 488.56"/>
    <polygon class="q" points="493.486 442.83 543.188 448.731 543.188 516 493.486 510.099 493.486 442.83"/>
    <path class="r" d="M543.18837,382.39319l45.78515,5.26352q-4.35882,6.71118-9.06176,13.51352a555.55738,555.55738,0,0,1-36.72339,47.37338q-24.85108-2.8569-49.70215-5.71384,17.14655-19.48164,34.46808-41.02127Q535.78489,392.0429,543.18837,382.39319Z"/>
    <circle class="m" cx="497.98889" cy="447.50725" r="2.47606"/>
    <circle class="m" cx="538.72515" cy="452.45938" r="2.47606"/>
    <circle class="m" cx="538.72515" cy="511.69991" r="2.47606"/>
    <circle class="m" cx="498.14061" cy="506.74778" r="2.47606"/>
    <polygon class="q" points="298.22 444.126 347.922 450.028 347.922 517.296 298.22 511.395 298.22 444.126"/>
    <circle class="m" cx="302.72294" cy="448.80371" r="2.47606"/>
    <circle class="m" cx="343.45919" cy="453.75584" r="2.47606"/>
    <circle class="m" cx="343.45919" cy="512.99637" r="2.47606"/>
    <circle class="m" cx="302.87465" cy="508.04424" r="2.47606"/>
    <polygon class="q" points="159.25 437.35 259.752 449.468 259.752 539.259 159.25 527.141 159.25 437.35"/>
    <circle class="m" cx="251.73319" cy="455.08552" r="2.47606"/>
    <circle class="m" cx="251.73319" cy="489.38872" r="2.47606"/>
    <circle class="m" cx="251.73319" cy="532.47349" r="2.47606"/>
    <circle class="m" cx="167.69388" cy="444.77607" r="2.47606"/>
    <circle class="m" cx="167.69388" cy="479.07927" r="2.47606"/>
    <circle class="m" cx="167.69388" cy="522.16404" r="2.47606"/>
    <circle class="m" cx="210.84794" cy="449.61062" r="2.47606"/>
    <circle class="m" cx="210.84794" cy="526.99859" r="2.47606"/>
    <ellipse class="n" cx="544.5246" cy="386.69687" rx="3.13637" ry="1.77106" transform="translate(-123.29623 379.15706) rotate(-34.7338)"/>
    <ellipse class="n" cx="581.55694" cy="391.10766" rx="3.13637" ry="1.77106" transform="translate(-119.21047 401.04274) rotate(-34.7338)"/>
  </g>
  <g>
    <g>
      <path class="s" d="M265.55037,593.17527c.0329.02166.53184.40943,1.52865,1.18919,2.23539,1.74674,2.55221,2.02658,2.88756,2.54816a6.52884,6.52884,0,0,1,.8497,2.4627,15.0564,15.0564,0,0,1,.16978,3.31241c.001.57921.00716,2.26832.16971,3.99139.24381,2.58621.64809,3.21264.5946,5.09626-.0329,1.14185-.17078,2.2086-.17078,2.2086-.12244.95569-.18209.90935-.2541,1.613a20.73875,20.73875,0,0,0,0,2.80323c.02674.75609.04118,1.13981.08438,1.44326a10.882,10.882,0,0,0,.52465,1.99673,8.80759,8.80759,0,0,0,.58016,1.48546c.30659.58637.41251.58841.70259,1.15007.51127.98758.37239,1.34556.65531,1.48238.78591.3765,2.58928-2.0389,2.8032-1.86814.10806.08642-.25.79416-.33943.76434a6.37465,6.37465,0,0,1,1.002-3.55417c1.06261-1.78071,2.95132-2.98943,2.81965-3.1561l-.01337-.00926c-.15534-.106-.49476.13684-.66555.26543-.84662.63265-1.54205,1.43607-1.69946,1.35787-.31061-.15533.98036-4.02736,1.78379-3.907.2973.04527.4331.62341.5092.59459.11013-.04112-.33742-1.149-.5092-2.54706a4.55283,4.55283,0,0,1,.16977-2.63349,10.174,10.174,0,0,1,2.293-2.54809,4.26965,4.26965,0,0,1,2.03889-.67892,3.23044,3.23044,0,0,1,1.01841.08432c1.60578.43512,2.36808,2.434,2.46271,2.37838a4.20851,4.20851,0,0,0-.50921-1.1038,5.17407,5.17407,0,0,1,.76431,2.46271c.00929.71188-.18516.70881-.16971,1.613.01437.84769.1903,1.24369-.08539,1.61507-.253.34157-.54111.18824-.8487.50921-.644.66865-.1193,2.09342-.25511,2.12221-.0874.01956-.28492-.58019-.2541-.59356.0422-.01852.32713,1.182.93409,1.27458.535.08125,1.004-.74685,1.27352-.59563.19652.1111-.02054.57092.25516.8497.23043.23354.72005.25514.84864.08539.24694-.32608-1.40826-1.08528-1.78272-2.63349-.34358-1.41547.48453-2.98943.93408-2.973.16664.00723.36825.429.76431,1.27459.31789.67791.47832,1.0935.5946,1.35893a7.57475,7.57475,0,0,0,1.44329,2.12221c1.10072,1.21079,1.8074,1.23343,2.27547,1.76835a1.85362,1.85362,0,0,1,.27263.44029,2.87273,2.87273,0,0,1,.27978,1.1038c.02059.39092-.05243.503-.07918.5411a.69828.69828,0,0,1-.4763.23762,8.937,8.937,0,0,1-2.69628-.35387,6.77531,6.77531,0,0,0-2.294-.42485c-.5.02571-.95054.04731-1.18919.3405-.43305.53391.30244,1.39184.76437,2.973a17.34978,17.34978,0,0,1,.42482,5.60439,4.10219,4.10219,0,0,0,.2551,2.03889,3.9362,3.9362,0,0,0,1.01948,1.35891c.718.69129.93609,1.611,1.3589,6.53848.33334,3.89466.33127,4.89047-.42481,5.60543a3.15341,3.15341,0,0,1-1.52869.67995c-1.71384.44441-5.51385,1.431-7.21947-.33946-.55347-.57607-.393-.92994-.84869-4.16113-.67892-4.80816-1.147-4.81538-1.01942-6.79563.17794-2.75181,1.09759-2.9709.67892-4.84008-.31375-1.40932-.97314-1.89385-1.27352-3.907-.19652-1.32293-.05041-2.03789-.33949-2.12328-.4763-.14093-1.69532,1.55232-2.21582,3.39886-.29422,1.04516-.15641,1.40418-.538,1.66858-.19753.13577-.63164.31579-3.78563-.48042-.535-.13581-.89805-.23661-.98758-.09669-.23866.37032,1.98954,1.65209,1.75189,2.72811-.12237.55447-.84355.80753-2.5481,1.36-2.82995.91657-4.24442,1.37639-4.586,1.44326a24.15814,24.15814,0,0,1-11.55032-.5946c-2.39691-.755-3.45236-1.55744-6.03028-1.6994-1.577-.08539-2.3403.15223-2.8022-.33949-1.00918-1.07087,1.7416-3.63337,2.8022-7.812.45263-1.78276.09565-1.83829-.16975-8.57835-.30037-7.631.05761-10.06593.25511-11.21086a27.139,27.139,0,0,1,1.86814-6.199c.98243-2.49567,1.56673-3.21371,2.20864-3.73729a9.44266,9.44266,0,0,1,3.82164-1.61407,13.26243,13.26243,0,0,1,2.91433-.46909,9.87615,9.87615,0,0,1,5.74843,1.2334"/>
      <path class="s" d="M286.01809,644.98235c.26741.31482.37239.67588.33943,3.27439a22.121,22.121,0,0,0,0,3.09435c.15326,1.20975.359,1.18816.51027,2.46377.19232,1.63254-.13581,1.74982.16972,2.71785.18308.58122.29114.50405,1.1038,2.2076.49689,1.04308.58429,1.33938.5092,1.69839a1.669,1.669,0,0,1-1.27351,1.27455,1.6978,1.6978,0,0,1-1.78379-.93509c-.38062-.90012.68306-1.48441.68-3.14165a5.38071,5.38071,0,0,0-.5946-2.20864c-.07924-.1862-.91657-2.15514-1.4443-2.03789-.34564.07717-.44855,1.0277-.42387,1.613a9.18331,9.18331,0,0,0,.50926,1.95454,7.058,7.058,0,0,1,.33943,1.78275c.0216.54725.02983.87233-.16971,1.01944-.39914.29419-1.35583-.31685-1.86811-.76434a4.72661,4.72661,0,0,1-1.44436-2.4627c-.38778-1.91034.83639-2.70551,1.52868-5.18162,1.05546-3.77022-.60075-6.15783.67892-6.9633a2.28913,2.28913,0,0,1,2.63355.59456"/>
      <path class="s" d="M266.65449,631.56289c.57607.51335.11418,1.27665.33946,4.50163.02674.38061.13166,1.27251.33946,3.05733a22.53841,22.53841,0,0,1,.34052,4.587,12.384,12.384,0,0,1-.34052,2.2076c-.04113.16563-.10081.38988-.76431,2.34033a8.57266,8.57266,0,0,0-.5946,2.16026,6.78,6.78,0,0,0,.08539,1.52869c.358,3.0141.21087,2.69932.42485,3.907.19031,1.074.322,1.41139.50921,2.71787.2222,1.54614.16563,1.97306-.08436,2.293a1.97558,1.97558,0,0,1-2.12324.51024c-2.26421-.94639-1.77145-7.76468-1.61405-9.93731a20.29822,20.29822,0,0,0,.0854-4.41624c-.13785-1.20253-.321-1.62227-.68-3.73625-.26336-1.55232-.249-1.827-.50921-3.6519-.69232-4.85138-1.12028-5.20629-.68-6.11567.95876-1.97717,4.229-2.87729,5.266-1.95353"/>
      <path class="s" d="M259.69015,632.49716c.68818.84251.788,1.94427.93406,3.56758a20.74993,20.74993,0,0,1,0,2.88655c-.05246,1.20357-.11418,1.255-.16975,2.46374a22.40484,22.40484,0,0,0,0,3.14273c.09054,1.05645.19238,1.02767.50921,3.14165.08642.572.22117,1.47827.34049,2.63349.18416,1.78275.09362,1.865.2541,3.05733.08128.60075.13374.79828.59563,2.97191.61928,2.92464.53184,2.60059.67895,3.22708.20573.87749,1.76116,3.14373,1.18816,4.16214-.13889.24688-.36313.35079-.74067.52362a2.01036,2.01036,0,0,1-1.97617-.01441,1.39694,1.39694,0,0,1-.42485-.93406c-.65939-3.66631-.4516-.609-.76431-3.65193-.29422-2.85465-.2109-2.95342-.42485-4.41624-.177-1.21179-.37754-2.12324-.50923-2.71784a35.47435,35.47435,0,0,0-1.18916-4.28457,27.93945,27.93945,0,0,1-1.1892-3.27332,16.8168,16.8168,0,0,1-.33949-2.71888,37.62761,37.62761,0,0,0-.68-5.43465c-.79313-3.33407-2.24261-4.14057-1.6984-5.01084.73242-1.17067,4.194-1.04826,5.60543.67892"/>
      <path class="s" d="M261.8133,590.45783c-.001-.04935-.035-.75815-.33949-.84863-.34049-.10184-.89085.608-1.18919,1.18812-.60385,1.17482-.19853,1.865-.76431,2.37839a1.44465,1.44465,0,0,1-1.69839.16971c-.58123-.49068-.18-1.82077.42485-3.82161a16.97971,16.97971,0,0,1,1.01841-2.71787,12.27481,12.27481,0,0,1,2.37838-3.56752c.93405-.9413,2.0862-2.10375,3.56651-2.03788a8.1,8.1,0,0,1,1.614.51021,9.74406,9.74406,0,0,1,2.97294,1.52767c.7839.63158.91657,1.005.93409,1.27452.01438.22736-.06071.26748-.08539.8487-.01745.42589,0,.93509,0,.93509a11.29954,11.29954,0,0,1,.25511,1.18819,4.32875,4.32875,0,0,1-.16972,1.614,3.06848,3.06848,0,0,0,.16972-.67892,3.9423,3.9423,0,0,1-.8497,1.78272,12.041,12.041,0,0,1-1.01841.8497l-.59561.84869-.2541,1.19026a4.91726,4.91726,0,0,1-1.44329.254c-.91553-.0216-1.15933-.57708-1.59448-.40322-.52669.20984-.26951,1.06575-.78387,1.507-.90219.77568-3.60151-.22528-3.73729-1.35784-.09876-.83431,1.23958-1.29724,1.18919-2.63355"/>
    </g>
    <g>
      <path class="s" d="M560.8853,715.59l-1.94287,6.95683c5.80146,1.74053,12.20335.00971,18.02428,1.68322a.7801.7801,0,0,0,.63609.00215.7553.7553,0,0,0,.24661-.60687,21.3932,21.3932,0,0,0-.24984-5.20436,4.72869,4.72869,0,0,1-.09845-1.82382,1.41074,1.41074,0,0,1,1.23752-1.16941c-.50305-2.9651-.59608-5.98322-1.00709-8.9613-.98662-7.13745-3.80782-14.1916-2.80826-21.3269.36453-2.6092,1.23534-5.28115.51276-7.81355a2.23167,2.23167,0,0,0-.52682-1.01144c-.1753-.172-.396-.29316-.56472-.4738a1.63979,1.63979,0,0,1-.027-1.918,7.04761,7.04761,0,0,1,1.43764-1.46147,9.85433,9.85433,0,0,0,3.14142-5.90531,3.19522,3.19522,0,0,0-.88382-3.09382,3.13294,3.13294,0,0,0-1.28941-.47056c-3.78834-.68475-7.58315.873-11.11729,2.39606L559.91492,667.84c.5387,1.43658,2.97055,1.11854,3.72344,2.45344.51057.90435-.00218,2.18841.65226,2.99432a4.98932,4.98932,0,0,1,.50305.55923c.305.516-.00541,1.15967-.29209,1.68537-2.82233,5.15351-3.66607,11.14757-4.00682,17.01287-.34182,5.8653-.23261,11.79009-1.35,17.558-.33753,1.73838-.674,3.83918.64473,5.01938"/>
      <path class="s" d="M560.8853,715.59l-1.94287,6.95683c5.80146,1.74053,12.20335.00971,18.02428,1.68322a.7801.7801,0,0,0,.63609.00215.7553.7553,0,0,0,.24661-.60687,21.3932,21.3932,0,0,0-.24984-5.20436,4.72869,4.72869,0,0,1-.09845-1.82382,1.41074,1.41074,0,0,1,1.23752-1.16941c-.50305-2.9651-.59608-5.98322-1.00709-8.9613-.98662-7.13745-3.80782-14.1916-2.80826-21.3269.36453-2.6092,1.23534-5.28115.51276-7.81355a2.23167,2.23167,0,0,0-.52682-1.01144c-.1753-.172-.396-.29316-.56472-.4738a1.63979,1.63979,0,0,1-.027-1.918,7.04761,7.04761,0,0,1,1.43764-1.46147,9.85433,9.85433,0,0,0,3.14142-5.90531,3.19522,3.19522,0,0,0-.88382-3.09382,3.13294,3.13294,0,0,0-1.28941-.47056c-3.78834-.68475-7.58315.873-11.11729,2.39606L559.91492,667.84c.5387,1.43658,2.97055,1.11854,3.72344,2.45344.51057.90435-.00218,2.18841.65226,2.99432a4.98932,4.98932,0,0,1,.50305.55923c.305.516-.00541,1.15967-.29209,1.68537-2.82233,5.15351-3.66607,11.14757-4.00682,17.01287-.34182,5.8653-.23261,11.79009-1.35,17.558-.33753,1.73838-.674,3.83918.64473,5.01938"/>
      <path class="s" d="M560.8853,715.59l-1.94287,6.95683c5.80146,1.74053,12.20335.00971,18.02428,1.68322a.7801.7801,0,0,0,.63609.00215.7553.7553,0,0,0,.24661-.60687,21.3932,21.3932,0,0,0-.24984-5.20436,4.72869,4.72869,0,0,1-.09845-1.82382,1.41074,1.41074,0,0,1,1.23752-1.16941c-.50305-2.9651-.59608-5.98322-1.00709-8.9613-.98662-7.13745-3.80782-14.1916-2.80826-21.3269.36453-2.6092,1.23534-5.28115.51276-7.81355a2.23167,2.23167,0,0,0-.52682-1.01144c-.1753-.172-.396-.29316-.56472-.4738a1.63979,1.63979,0,0,1-.027-1.918,7.04761,7.04761,0,0,1,1.43764-1.46147,9.85433,9.85433,0,0,0,3.14142-5.90531,3.19522,3.19522,0,0,0-.88382-3.09382,3.13294,3.13294,0,0,0-1.28941-.47056c-3.78834-.68475-7.58315.873-11.11729,2.39606L559.91492,667.84c.5387,1.43658,2.97055,1.11854,3.72344,2.45344.51057.90435-.00218,2.18841.65226,2.99432a4.98932,4.98932,0,0,1,.50305.55923c.305.516-.00541,1.15967-.29209,1.68537-2.82233,5.15351-3.66607,11.14757-4.00682,17.01287-.34182,5.8653-.23261,11.79009-1.35,17.558-.33753,1.73838-.674,3.83918.64473,5.01938"/>
      <path class="s" d="M560.8853,715.59l-1.94287,6.95683c5.80146,1.74053,12.20335.00971,18.02428,1.68322a.7801.7801,0,0,0,.63609.00215.7553.7553,0,0,0,.24661-.60687,21.3932,21.3932,0,0,0-.24984-5.20436,4.72869,4.72869,0,0,1-.09845-1.82382,1.41074,1.41074,0,0,1,1.23752-1.16941c-.50305-2.9651-.59608-5.98322-1.00709-8.9613-.98662-7.13745-3.80782-14.1916-2.80826-21.3269.36453-2.6092,1.23534-5.28115.51276-7.81355a2.23167,2.23167,0,0,0-.52682-1.01144c-.1753-.172-.396-.29316-.56472-.4738a1.63979,1.63979,0,0,1-.027-1.918,7.04761,7.04761,0,0,1,1.43764-1.46147,9.85433,9.85433,0,0,0,3.14142-5.90531,3.19522,3.19522,0,0,0-.88382-3.09382,3.13294,3.13294,0,0,0-1.28941-.47056c-3.78834-.68475-7.58315.873-11.11729,2.39606L559.91492,667.84c.5387,1.43658,2.97055,1.11854,3.72344,2.45344.51057.90435-.00218,2.18841.65226,2.99432a4.98932,4.98932,0,0,1,.50305.55923c.305.516-.00541,1.15967-.29209,1.68537-2.82233,5.15351-3.66607,11.14757-4.00682,17.01287-.34182,5.8653-.23261,11.79009-1.35,17.558-.33753,1.73838-.674,3.83918.64473,5.01938"/>
      <path class="s" d="M560.8853,715.59l-1.94287,6.95683c5.80146,1.74053,12.20335.00971,18.02428,1.68322a.7801.7801,0,0,0,.63609.00215.7553.7553,0,0,0,.24661-.60687,21.3932,21.3932,0,0,0-.24984-5.20436,4.72869,4.72869,0,0,1-.09845-1.82382,1.41074,1.41074,0,0,1,1.23752-1.16941c-.50305-2.9651-.59608-5.98322-1.00709-8.9613-.98662-7.13745-3.80782-14.1916-2.80826-21.3269.36453-2.6092,1.23534-5.28115.51276-7.81355a2.23167,2.23167,0,0,0-.52682-1.01144c-.1753-.172-.396-.29316-.56472-.4738a1.63979,1.63979,0,0,1-.027-1.918,7.04761,7.04761,0,0,1,1.43764-1.46147,9.85433,9.85433,0,0,0,3.14142-5.90531,3.19522,3.19522,0,0,0-.88382-3.09382,3.13294,3.13294,0,0,0-1.28941-.47056c-3.78834-.68475-7.58315.873-11.11729,2.39606L559.91492,667.84c.5387,1.43658,2.97055,1.11854,3.72344,2.45344.51057.90435-.00218,2.18841.65226,2.99432a4.98932,4.98932,0,0,1,.50305.55923c.305.516-.00541,1.15967-.29209,1.68537-2.82233,5.15351-3.66607,11.14757-4.00682,17.01287-.34182,5.8653-.23261,11.79009-1.35,17.558-.33753,1.73838-.674,3.83918.64473,5.01938"/>
      <path class="s" d="M560.8853,715.59l-1.94287,6.95683c5.80146,1.74053,12.20335.00971,18.02428,1.68322a.7801.7801,0,0,0,.63609.00215.7553.7553,0,0,0,.24661-.60687,21.3932,21.3932,0,0,0-.24984-5.20436,4.72869,4.72869,0,0,1-.09845-1.82382,1.41074,1.41074,0,0,1,1.23752-1.16941c-.50305-2.9651-.59608-5.98322-1.00709-8.9613-.98662-7.13745-3.80782-14.1916-2.80826-21.3269.36453-2.6092,1.23534-5.28115.51276-7.81355a2.23167,2.23167,0,0,0-.52682-1.01144c-.1753-.172-.396-.29316-.56472-.4738a1.63979,1.63979,0,0,1-.027-1.918,7.04761,7.04761,0,0,1,1.43764-1.46147,9.85433,9.85433,0,0,0,3.14142-5.90531,3.19522,3.19522,0,0,0-.88382-3.09382,3.13294,3.13294,0,0,0-1.28941-.47056c-3.78834-.68475-7.58315.873-11.11729,2.39606L559.91492,667.84c.5387,1.43658,2.97055,1.11854,3.72344,2.45344.51057.90435-.00218,2.18841.65226,2.99432a4.98932,4.98932,0,0,1,.50305.55923c.305.516-.00541,1.15967-.29209,1.68537-2.82233,5.15351-3.66607,11.14757-4.00682,17.01287-.34182,5.8653-.23261,11.79009-1.35,17.558-.33753,1.73838-.674,3.83918.64473,5.01938"/>
      <path class="s" d="M560.8853,715.59l-1.94287,6.95683c5.80146,1.74053,12.20335.00971,18.02428,1.68322a.7801.7801,0,0,0,.63609.00215.7553.7553,0,0,0,.24661-.60687,21.3932,21.3932,0,0,0-.24984-5.20436,4.72869,4.72869,0,0,1-.09845-1.82382,1.41074,1.41074,0,0,1,1.23752-1.16941c-.50305-2.9651-.59608-5.98322-1.00709-8.9613-.98662-7.13745-3.80782-14.1916-2.80826-21.3269.36453-2.6092,1.23534-5.28115.51276-7.81355a2.23167,2.23167,0,0,0-.52682-1.01144c-.1753-.172-.396-.29316-.56472-.4738a1.63979,1.63979,0,0,1-.027-1.918,7.04761,7.04761,0,0,1,1.43764-1.46147,9.85433,9.85433,0,0,0,3.14142-5.90531,3.19522,3.19522,0,0,0-.88382-3.09382,3.13294,3.13294,0,0,0-1.28941-.47056c-3.78834-.68475-7.58315.873-11.11729,2.39606L559.91492,667.84c.5387,1.43658,2.97055,1.11854,3.72344,2.45344.51057.90435-.00218,2.18841.65226,2.99432a4.98932,4.98932,0,0,1,.50305.55923c.305.516-.00541,1.15967-.29209,1.68537-2.82233,5.15351-3.66607,11.14757-4.00682,17.01287-.34182,5.8653-.23261,11.79009-1.35,17.558-.33753,1.73838-.674,3.83918.64473,5.01938"/>
      <path class="s" d="M576.41018,671.29383a10.72052,10.72052,0,0,1,.1687,2.36041,1.26354,1.26354,0,0,0,.75837.1028q-.55829,1.15043-1.11966,2.302a.65918.65918,0,0,0-.09191.49651c.07461.19583.30722.2672.48027.38618.58525.39813.45109,1.3079.10491,1.92557a3.851,3.851,0,0,0-.81884,1.92117,1.801,1.801,0,0,0,.9779,1.40737,4.75358,4.75358,0,0,0,1.71349.476,30.49464,30.49464,0,0,0,6.03406.21419,10.979,10.979,0,0,1-.70528-3.28094c-.04331-.74212.1341-1.68213.85457-1.85954.23043-.05737.51381-.03354.662-.2196a.58558.58558,0,0,0,.05843-.49222,9.74379,9.74379,0,0,0-.76808-1.70266,1.67649,1.67649,0,0,1,.08221-1.76651c.25314-.28345.662-.42949.8232-.77349a1.43788,1.43788,0,0,0-.28015-1.26022c-1.96986-3.40976-2.76712-7.343-3.81646-11.13678a3.63145,3.63145,0,0,0-.662-1.47441,2.84588,2.84588,0,0,0-1.00061-.68257,10.93963,10.93963,0,0,0-4.19183-.71941,65.22586,65.22586,0,0,0-13.88224,1.09364,3.51413,3.51413,0,0,0-1.56856.57442,3.33894,3.33894,0,0,0-.77884,1.0201c-2.15269,3.84571-3.09058,8.47885-6.2223,11.58026-.01083.37648.58413.37971.8481.64692.278.28014.10167.76371-.146,1.072-.24879.30833-.57442.61555-.56683,1.01144.01624.76378,1.1705.97143,1.442,1.68325a1.55816,1.55816,0,0,1-.19147,1.20074,9.46222,9.46222,0,0,1-2.36582,3.05057,18.98308,18.98308,0,0,0,12.64149-.29315l-2.45668-3.00733a.395.395,0,0,1-.10927-.20877c-.00977-.13845.119-.24119.19359-.358.25208-.39807-.13951-.87511-.45861-1.21916-.31917-.34505-.55171-.98332-.13958-1.20827.14387-.08009.32451-.0682.47492-.13852.3537-.16764.3537-.65986.32451-1.05033a9.32173,9.32173,0,0,1,.45433-3.64883,2.72117,2.72117,0,0,1,.74754-1.26782,3.00789,3.00789,0,0,1,1.16178-.516,23.39977,23.39977,0,0,1,10.44113-.39807"/>
      <path class="s" d="M567.8554,657.76654c-.29209-1.85736-1.44094-3.44864-2.21766-5.15995-.77666-1.71244-1.12824-3.889.05625-5.34931,1.1326-1.39545,3.16956-1.56316,4.96637-1.55233a3.53574,3.53574,0,0,1,1.323.17959c1.13583.45861,1.50908,1.89737,1.443,3.12082-.17959,3.35568-2.448,6.43973-2.13645,9.78675"/>
      <path class="s" d="M564.84682,653.60331a4.58628,4.58628,0,0,1-3.201-4.42978q.456.02436.91413.05084a7.9571,7.9571,0,0,1,.21636-2.8515,2.92191,2.92191,0,0,1,1.89632-2.0013,1.9203,1.9203,0,0,0,.64474-.21419c.33857-.23795.384-.71611.60789-1.06334a2.3319,2.3319,0,0,1,1.99265-.72152q2.08991-.05685,4.17776-.11251a4.48628,4.48628,0,0,1,1.60963.15146,1.53185,1.53185,0,0,1,1.06011,1.12824.94107.94107,0,0,1-.90218,1.08718c.74.70528,2.09433.61879,2.61461,1.49825a1.652,1.652,0,0,1-.20554,1.76433,4.85508,4.85508,0,0,1-1.45817,1.1705,2.50928,2.50928,0,0,1,1.548,1.85412,1.67753,1.67753,0,0,1-1.28618,1.8779c.60037.09092.73988.99309.344,1.455a2.40952,2.40952,0,0,1-1.65731.63173,21.07575,21.07575,0,0,1-9.20685-1.18885"/>
      <path class="s" d="M577.0577,682.02058a10.4499,10.4499,0,0,1-1.15208,6.02651c-.43055.80808-.966,1.55665-1.38251,2.3712a9.31365,9.31365,0,0,0-.93571,5.4337c.027.20444.09191.44461.2888.50628a.52272.52272,0,0,0,.423-.11578c1.82277-1.19641,1.98935-3.81861,3.3362-5.53319a3.07886,3.07886,0,0,0,.88164-1.482,4.80247,4.80247,0,0,0-.17635-1.11744,4.46086,4.46086,0,0,1,.2196-1.80115q.67178-2.53942,1.389-5.067a2.588,2.588,0,0,0-1.90173.16767"/>
      <path class="s" d="M565.05276,722.64893a12.67769,12.67769,0,0,0,.06813,5.20654c.47922,2.12889,1.51555,4.17452,1.45276,6.35534-.03565,1.25808-.44026,2.49563-.36347,3.75262a1.28258,1.28258,0,0,0,.265.80376c.43814.47271,1.25488.16549,1.68325-.3159,1.21157-1.35758.92059-3.42916.7107-5.23677a31.46956,31.46956,0,0,1,.714-11.15189,34.9402,34.9402,0,0,0,.57006,5.89993c.44785,2.10076,1.28188,4.11285,1.62482,6.2331.32016,1.97746.23043,4.102,1.23428,5.835a1.6947,1.6947,0,0,0,1.22021.96708,1.37849,1.37849,0,0,0,1.29813-1.16938,4.22651,4.22651,0,0,0-.19907-1.87793,52.65889,52.65889,0,0,1-1.5718-15.57628,72.04654,72.04654,0,0,0-7.86006-.50734"/>
      <path class="s" d="M565.05276,722.64893a12.67769,12.67769,0,0,0,.06813,5.20654c.47922,2.12889,1.51555,4.17452,1.45276,6.35534-.03565,1.25808-.44026,2.49563-.36347,3.75262a1.28258,1.28258,0,0,0,.265.80376c.43814.47271,1.25488.16549,1.68325-.3159,1.21157-1.35758.92059-3.42916.7107-5.23677a31.46956,31.46956,0,0,1,.714-11.15189,34.9402,34.9402,0,0,0,.57006,5.89993c.44785,2.10076,1.28188,4.11285,1.62482,6.2331.32016,1.97746.23043,4.102,1.23428,5.835a1.6947,1.6947,0,0,0,1.22021.96708,1.37849,1.37849,0,0,0,1.29813-1.16938,4.22651,4.22651,0,0,0-.19907-1.87793,52.65889,52.65889,0,0,1-1.5718-15.57628,72.04654,72.04654,0,0,0-7.86006-.50734"/>
    </g>
    <path class="s" d="M478.4907,862.42074c-.71362,2.18994-2.00688,4.39679-3.97982,4.90867.5932-4.25945,1.139-8.88-.64917-12.675a19.33082,19.33082,0,0,0-2.42379-3.64081c-1.22715-1.58142-2.45431-3.15432-3.68146-4.734a111.57664,111.57664,0,0,1,.88979,17.0463,15.80052,15.80052,0,0,1-.24063,3.49163,2.92505,2.92505,0,0,1-.561,1.32207,2.62468,2.62468,0,0,1-.8509.578,12.65955,12.65955,0,0,1-8.3359,1.01864c-.27114-.0644-.58471-.18476-.66437-.48984a.90068.90068,0,0,1,.08638-.53558,6.28355,6.28355,0,0,1,2.43228-2.43232,16.35758,16.35758,0,0,0,2.67983-2.43735,3.61883,3.61883,0,0,0,.71352-1.05935,4.34436,4.34436,0,0,0,.22376-1.13224,67.62111,67.62111,0,0,0-1.36278-22.238c-.39322-1.6916-.85089-3.36955-1.30846-5.03907-.12042-.42374-.23226-.84924-.35257-1.27464-.53733.04914-1.06618.10511-1.60517.15249a80.02076,80.02076,0,0,0,.05762-9.19518,21.66878,21.66878,0,0,1-5.37643,4.6951,8.158,8.158,0,0,1,1.38823-4.97473,22.14328,22.14328,0,0,0,2.40683-4.66116,15.86451,15.86451,0,0,0,.19324-5.70355c-.29835-3.4578-.52212-7.06808.79318-10.27832.578-1.40344,1.44419-2.68656,1.87807-4.13914a4.231,4.231,0,0,0-.73906-4.26618c-.39322-.378-.89828-.63561-1.25933-1.04414a4.244,4.244,0,0,1-.85762-2.37465,27.57059,27.57059,0,0,1-.1288-5.69507,2.90487,2.90487,0,0,1,.19315-.94752,2.11684,2.11684,0,0,1,1.74079-1.139,5.635,5.635,0,0,1,2.14923.32039c1.98143.58647,4.19676,1.65255,4.61368,3.68146a8.12677,8.12677,0,0,1-.65765,3.8052c-.378,1.25084-.522,2.75773.36953,3.71363l.47961.673a10.81833,10.81833,0,0,1,3.0086.86611,3.65985,3.65985,0,0,1,1.98309,2.3102,12.77463,12.77463,0,0,1,.14411,1.63734c.1678,1.70014,1.21867,3.1612,2.11022,4.62226,1.29833,2.1424,2.317,4.60519,2.00512,7.09-.28129,2.18306-1.5492,4.11534-1.98991,6.27471-.53723,2.61539.18477,5.31881.17628,7.99016a4.2798,4.2798,0,0,1-.41691,2.06109,4.23563,4.23563,0,0,1-1.52551,1.4203,15.65306,15.65306,0,0,1-2.534,1.26791c-.36943,2.64746-.45757,5.37467.66613,7.66289a18.09193,18.09193,0,0,0,1.773,2.65428,56.961,56.961,0,0,1,4.25945,7.22906,21.463,21.463,0,0,1,2.817,7.53244,14.6395,14.6395,0,0,1-.73048,6.08151"/>
    <path class="s" d="M61.28043,680.79118a1.16522,1.16522,0,0,1-.43491,1.99219,2.80979,2.80979,0,0,0-.92806.13788c-.65932.37826-.15375,1.37354-.1873,2.13363-.046,1.00219-1.10123,1.58382-1.83489,2.26612a8.40054,8.40054,0,0,0-2.03987,4.62427,117.736,117.736,0,0,0-2.12651,15.30267,3.6454,3.6454,0,0,0,.10606,1.51661,4.31154,4.31154,0,0,0,.92979,1.29932,13.84576,13.84576,0,0,1,3.0015,5.50443c1.88786,6.81789-1.60152,13.83554-2.58429,20.84083-.6824,4.87522-.175,10.0315-2.15305,14.5373a1.09449,1.09449,0,0,0-.13432.81133c.15374.39952.68941.45077,1.11709.43841q7.22544-.24663,14.44894-.48965a5.15346,5.15346,0,0,0,2.38113-.4649c1.62266-.9086,1.773-3.1588,1.598-5.00955-.2475-2.64271-.74779-5.25175-1.1349-7.87849a93.213,93.213,0,0,1-.00356-27.139,11.10339,11.10339,0,0,0,4.44215,2.36333,1.166,1.166,0,0,0,.70183.03c.555-.21027.5073-.99873.36769-1.575A46.39556,46.39556,0,0,1,75.53128,700.126a2.17412,2.17412,0,0,1,.1627-.9422c.70172-1.40171,3.38149-.33058,4.147-1.70045.48431-.8697-.40664-1.98334-1.393-2.12479a5.11968,5.11968,0,0,0-2.83891.77422,4.02111,4.02111,0,0,1-2.86717.52855c-1.87017-.59922-1.93911-3.1411-2.29968-5.07147a8.87836,8.87836,0,0,0-2.23256-4.41032c-.951-1.0146-2.183-1.86305-2.64449-3.17823-.45961-1.31161.56394-3.18361,1.90026-2.79467.122-.46317.24394-.92807.33586-1.4a8.12224,8.12224,0,0,0-1.04469-6.1056,5.37811,5.37811,0,0,0-5.50983-2.31736,4.04921,4.04921,0,0,0-2.93612,4.8558,2.56209,2.56209,0,0,0-3.14639.60623,2.0209,2.0209,0,0,0,.66816,2.95381c1.60152.70183,3.88889-1.04642,5.022.28462Z"/>
    <path class="s" d="M66.7553,751.12159c-.37653.78134.26865,1.64041,1.02161,2.22728a6.81981,6.81981,0,0,1,2.06469,1.8755.23649.23649,0,0,1,.03539.13433c-.016.099-.14317.15735-.25635.198a9.91434,9.91434,0,0,1-2.43583.53383,20.40822,20.40822,0,0,1-2.56843.01414q-2.70717-.0954-5.41089-.19086a3.57844,3.57844,0,0,1-.96864-.12375.84148.84148,0,0,1-.61518-.56745.67059.67059,0,0,1,.099-.42071,7.57928,7.57928,0,0,1,1.1172-1.1472,1.99423,1.99423,0,0,0,.51614-1.6881Z"/>
  </g>
</svg>
