<svg xmlns="http://www.w3.org/2000/svg" xmlns:xlink="http://www.w3.org/1999/xlink" viewBox="0 0 981.5257 1780.4998">
  <defs>
    <style>
      .a {
        fill: url(#a);
      }

      .b {
        fill: #fff;
      }

      .c {
        fill: #ffffb3;
      }

      .d {
        fill: #78698a;
      }

      .e {
        fill: #aaa0b2;
      }

      .f {
        fill: #ffd5b6;
      }

      .g {
        fill: #a79dac;
      }

      .h {
        fill: #a89eae;
      }

      .i {
        fill: #796c8e;
      }

      .j {
        fill: #786b8e;
      }

      .k {
        fill: #766886;
      }

      .l {
        fill: #a9a0b2;
      }

      .m {
        fill: #756784;
      }

      .n {
        fill: #766785;
      }

      .o {
        fill: #a99faf;
      }

      .p {
        fill: #bdceff;
      }

      .q {
        fill: #766887;
      }

      .r {
        fill: #786a8b;
      }

      .s {
        fill: #776888;
      }

      .t {
        fill: #a99fb0;
      }

      .u {
        fill: #b8ffdd;
      }

      .v {
        fill: #a79dab;
      }

      .w {
        fill: #d7bbff;
      }
    </style>
    <linearGradient id="a" x1="490.76282" y1="1164.6896" x2="490.76282" y2="2322.7113" gradientTransform="matrix(1, 0, 0, -1, 0, 2317.86654)" gradientUnits="userSpaceOnUse">
      <stop offset="0" stop-color="#5f579e"/>
      <stop offset="0.16366" stop-color="#5c5295"/>
      <stop offset="0.43638" stop-color="#54457b"/>
      <stop offset="0.78237" stop-color="#463152"/>
      <stop offset="1" stop-color="#3d2234"/>
    </linearGradient>
  </defs>
  <title>sky</title>
  <rect class="a" x="0.00282" y="-2.48846" width="981.52001" height="1158.0217"/>
  <g>
    <circle class="b" cx="428.69895" cy="8.25782" r="1.10888" transform="translate(385.95551 434.9005) rotate(-85.3824)"/>
    <circle class="c" cx="502.87754" cy="17.15101" r="1.15701" transform="translate(445.29802 517.01556) rotate(-85.3824)"/>
    <circle class="c" cx="586.84308" cy="44.10189" r="1.54277" transform="translate(495.6405 625.48977) rotate(-85.3824)"/>
    <circle class="d" cx="682.0887" cy="169.13386" r="1.15701" transform="translate(458.59222 835.39251) rotate(-85.3824)"/>
    <circle class="e" cx="601.79144" cy="177.61008" r="1.31771" transform="translate(376.3106 763.14972) rotate(-85.3824)"/>
    <circle class="f" cx="524.68497" cy="214.84854" r="1.25345" transform="translate(268.29398 720.53409) rotate(-85.3824)"/>
    <circle class="g" cx="488.96881" cy="164.80569" r="1.10888" transform="translate(285.3336 638.91972) rotate(-85.3824)"/>
    <circle class="h" cx="516.84135" cy="278.02777" r="1.22132" transform="translate(198.10767 770.80892) rotate(-85.3824)"/>
    <circle class="i" cx="730.90286" cy="295.34915" r="1.15705"/>
    <circle class="j" cx="715.39686" cy="339.41697" r="1.30167"/>
    <circle class="k" cx="632.95342" cy="317.97397" r="1.28563" transform="translate(265.05559 923.27445) rotate(-85.3824)"/>
    <circle class="b" cx="315.58659" cy="296.96828" r="1.25349" transform="translate(-5.82411 587.6231) rotate(-85.3824)"/>
    <circle class="b" cx="364.92492" cy="350.81998" r="1.28563" transform="translate(-14.13467 686.31764) rotate(-85.3824)"/>
    <circle class="f" cx="398.06466" cy="318.38185" r="1.20527" transform="translate(48.66999 689.52312) rotate(-85.3824)"/>
    <circle class="c" cx="508.61906" cy="451.2927" r="1.41415" transform="translate(17.84476 921.92953) rotate(-85.3824)"/>
    <path class="l" d="M575.06356,440.66576a1.15712,1.15712,0,1,0,1.06009,1.24662v-.00013A1.15708,1.15708,0,0,0,575.06356,440.66576Z"/>
    <circle class="c" cx="608.72068" cy="538.95809" r="1.41415" transform="matrix(0.08051, -0.99675, 0.99675, 0.08051, 22.50685, 1102.31414)"/>
    <circle class="m" cx="582.05954" cy="605.16396" r="1.15705"/>
    <circle class="n" cx="580.41263" cy="729.75427" r="1.54275"/>
    <circle class="o" cx="501.99621" cy="797.5841" r="1.34989"/>
    <circle class="c" cx="608.39992" cy="912.79382" r="1.36396" transform="translate(-350.41049 1445.73437) rotate(-85.3824)"/>
  </g>
  <g>
    <circle class="b" cx="778.5228" cy="795.99953" r="1.10888" transform="matrix(0.36458, -0.93117, 0.93117, 0.36458, -246.52369, 1230.73242)"/>
    <circle class="b" cx="696.10894" cy="758.72729" r="1.0767"/>
    <circle class="p" cx="512.27201" cy="859.01892" r="1.25345" transform="translate(-474.38658 1022.85095) rotate(-68.61825)"/>
    <circle class="q" cx="494.20964" cy="655.05089" r="1.12492" transform="translate(-295.93446 876.42645) rotate(-68.61825)"/>
    <circle class="r" cx="468.78032" cy="565.72524" r="1.15701" transform="translate(-228.91521 795.98809) rotate(-68.61825)"/>
    <circle class="f" cx="568.72548" cy="519.74037" r="1.18919"/>
    <circle class="s" cx="554.59911" cy="485.64757" r="1.34989"/>
    <circle class="t" cx="638.12441" cy="502.31742" r="1.09275" transform="translate(-62.26703 913.38602) rotate(-68.61825)"/>
    <circle class="p" cx="665.71271" cy="540.90438" r="1.25345" transform="translate(-80.66801 963.59432) rotate(-68.61824)"/>
    <circle class="u" cx="671.18357" cy="607.41855" r="1.34989"/>
    <circle class="v" cx="691.15431" cy="617.23963" r="1.15701" transform="translate(-135.58315 1035.78977) rotate(-68.61825)"/>
    <circle class="w" cx="729.80947" cy="586.74414" r="1.28563" transform="translate(-82.62433 1052.40697) rotate(-68.61825)"/>
    <circle class="b" cx="734.11722" cy="651.73298" r="1.34989" transform="translate(-140.40288 1097.71343) rotate(-68.61825)"/>
    <circle class="b" cx="794.06357" cy="619.8401" r="1.44633" transform="translate(-72.61398 1133.26851) rotate(-68.61826)"/>
    <circle class="b" cx="803.93148" cy="500.94779" r="1.10888" transform="translate(44.3654 1066.91059) rotate(-68.61825)"/>
    <circle class="c" cx="735.47055" cy="471.03703" r="1.15701" transform="translate(28.71604 984.15579) rotate(-68.61825)"/>
    <circle class="c" cx="662.84706" cy="421.01313" r="1.54277" transform="translate(29.15049 884.74467) rotate(-68.61825)"/>
    <circle class="d" cx="607.7127" cy="273.82303" r="1.15701" transform="translate(131.17631 739.87759) rotate(-68.61825)"/>
    <circle class="e" cx="687.04215" cy="288.86742" r="1.31771" transform="translate(167.57491 823.30646) rotate(-68.61825)"/>
    <circle class="f" cx="771.61241" cy="275.45163" r="1.25345" transform="translate(233.80495 893.53127) rotate(-68.61825)"/>
    <circle class="g" cx="791.37662" cy="333.66938" r="1.10888" transform="translate(192.15277 948.92786) rotate(-68.61825)"/>
    <circle class="h" cx="797.34563" cy="217.21987" r="1.22132" transform="translate(304.38012 880.49171) rotate(-68.61825)"/>
    <circle class="i" cx="597.37776" cy="138.89227" r="1.15705"/>
    <circle class="j" cx="624.93537" cy="101.16977" r="1.30167"/>
    <circle class="k" cx="697.6901" cy="145.48084" r="1.28563" transform="translate(307.85842 742.11089) rotate(-68.61825)"/>
    <circle class="b" cx="963.8013" cy="191.33901" r="1.28563" transform="translate(434.24883 1019.04533) rotate(-68.61825)"/>
    <circle class="f" cx="922.71377" cy="212.83993" r="1.20527" transform="translate(388.11991 994.44785) rotate(-68.61824)"/>
    <circle class="c" cx="855.19378" cy="53.69026" r="1.41415" transform="translate(493.41218 830.44834) rotate(-68.61825)"/>
    <path class="l" d="M788.508,44.70078a1.15712,1.15712,0,1,0-.65547-1.49941l0,.00013A1.15708,1.15708,0,0,0,788.508,44.70078Z"/>
  </g>
  <g>
    <circle class="b" cx="184.51568" cy="255.71325" r="1.10888" transform="translate(-125.27863 314.55873) rotate(-64.94203)"/>
    <circle class="b" cx="264.37013" cy="298.19301" r="1.0767"/>
    <circle class="p" cx="454.25929" cy="209.89504" r="1.25345" transform="translate(71.72488 532.50139) rotate(-64.94202)"/>
    <circle class="q" cx="459.20644" cy="414.60149" r="1.12492" transform="translate(-110.86267 654.98902) rotate(-64.94203)"/>
    <circle class="r" cx="478.85603" cy="505.37382" r="1.15701" transform="translate(-181.76419 725.11622) rotate(-64.94202)"/>
    <circle class="f" cx="376.16806" cy="544.85577" r="1.18919"/>
    <circle class="s" cx="388.0794" cy="579.78418" r="1.34989"/>
    <circle class="t" cx="305.79481" cy="557.79314" r="1.09275" transform="translate(-329.0135 598.56149) rotate(-64.94203)"/>
    <circle class="p" cx="280.7374" cy="517.51667" r="1.25345" transform="translate(-306.97258 552.64451) rotate(-64.94203)"/>
    <circle class="u" cx="279.54257" cy="450.78858" r="1.34989"/>
    <circle class="v" cx="260.24263" cy="439.70722" r="1.15701" transform="translate(-248.3011 489.22431) rotate(-64.94203)"/>
    <circle class="w" cx="219.7117" cy="467.66147" r="1.28563" transform="translate(-296.98894 468.62279) rotate(-64.94203)"/>
    <circle class="b" cx="219.57977" cy="402.53015" r="1.34989" transform="translate(-238.06386 430.95731) rotate(-64.94202)"/>
    <circle class="b" cx="157.71186" cy="430.51375" r="1.44633" transform="translate(-299.07831 391.04406) rotate(-64.94203)"/>
    <circle class="b" cx="140.2411" cy="548.5287" r="1.10888" transform="translate(-416.05694 443.24911) rotate(-64.94202)"/>
    <circle class="c" cx="206.64333" cy="582.76751" r="1.15701" transform="translate(-408.79463 523.13903) rotate(-64.94203)"/>
    <circle class="c" cx="275.90995" cy="637.34496" r="1.54277" transform="translate(-418.30546 617.34822) rotate(-64.94202)"/>
    <circle class="d" cx="321.49331" cy="787.7673" r="1.15701" transform="translate(-528.29279 745.35446) rotate(-64.94202)"/>
    <circle class="e" cx="243.29171" cy="767.66741" r="1.31771" transform="translate(-555.16518 662.92633) rotate(-64.94202)"/>
    <circle class="f" cx="158.03528" cy="775.6331" r="1.25345" transform="translate(-611.52849 590.2862) rotate(-64.94202)"/>
    <circle class="g" cx="142.04454" cy="716.2679" r="1.10888" transform="translate(-566.96885 541.57856) rotate(-64.94202)"/>
    <circle class="h" cx="128.62129" cy="832.09508" r="1.22132" transform="translate(-679.63238 596.18902) rotate(-64.94203)"/>
    <circle class="i" cx="323.15546" cy="923.08307" r="1.15705"/>
    <circle class="j" cx="293.23587" cy="958.96101" r="1.30167"/>
    <circle class="k" cx="223.47198" cy="910.07622" r="1.28563" transform="translate(-695.59581 727.06574) rotate(-64.94203)"/>
    <circle class="f" cx="3.23029" cy="828.42763" r="1.20527" transform="translate(-748.59362 480.48571) rotate(-64.94203)"/>
    <circle class="c" cx="60.40696" cy="991.57908" r="1.41415" transform="translate(-863.42886 626.33197) rotate(-64.94202)"/>
    <path class="l" d="M126.37913,1004.82583a1.15712,1.15712,0,1,0,.558,1.53835l.00006-.00012A1.15709,1.15709,0,0,0,126.37913,1004.82583Z"/>
    <circle class="c" cx="123.59019" cy="1108.68346" r="1.41415" transform="translate(-933.08843 751.07495) rotate(-64.94203)"/>
    <circle class="m" cx="75.48649" cy="1161.40981" r="1.15705"/>
    <circle class="n" cx="30.4323" cy="1277.58027" r="1.54275"/>
  </g>
  <g>
    <circle class="h" cx="233.62797" cy="10.74927" r="1.22134" transform="translate(1.39129 38.38438) rotate(-9.42036)"/>
    <circle class="j" cx="441.14452" cy="22.14255" r="1.30167"/>
    <circle class="k" cx="355.96192" cy="21.3378" r="1.2856" transform="translate(1.30798 58.55036) rotate(-9.42036)"/>
    <circle class="b" cx="42.97793" cy="77.94142" r="1.25347" transform="translate(-12.17759 8.08559) rotate(-9.42036)"/>
    <circle class="b" cx="103.9053" cy="118.21711" r="1.2856" transform="translate(-17.94811 18.60114) rotate(-9.42036)"/>
    <circle class="f" cx="128.18699" cy="78.70921" r="1.20525" transform="translate(-11.15413 22.04268) rotate(-9.42036)"/>
    <circle class="c" cx="267.67918" cy="180.83412" r="1.41417" transform="translate(-25.9884 46.25153) rotate(-9.42036)"/>
    <path class="l" d="M329.56162,154.40746a1.15712,1.15712,0,1,0,1.33081.95226l0-.00014A1.15708,1.15708,0,0,0,329.56162,154.40746Z"/>
    <circle class="c" cx="386.05582" cy="241.60029" r="1.41417" transform="matrix(0.98651, -0.16368, 0.16368, 0.98651, -34.33798, 66.4465)"/>
    <circle class="m" cx="376.25011" cy="312.29599" r="1.15705"/>
    <circle class="n" cx="404.87359" cy="433.56492" r="1.54275"/>
    <circle class="o" cx="345.25218" cy="518.39008" r="1.34989"/>
    <circle class="c" cx="476.42398" cy="604.34931" r="1.36395" transform="translate(-92.49275 86.12962) rotate(-9.42036)"/>
  </g>
  <g>
    <circle class="f" cx="178.71408" cy="7.61839" r="1.18919"/>
    <circle class="s" cx="204.51188" cy="34.00677" r="1.34989"/>
    <circle class="t" cx="120.78139" cy="49.6133" r="1.09277" transform="matrix(0.99997, -0.00808, 0.00808, 0.99997, -0.39711, 0.97797)"/>
    <circle class="p" cx="80.81604" cy="24.06258" r="1.25347" transform="translate(-0.19187 0.65407) rotate(-0.46316)"/>
    <circle class="w" cx="4.26502" cy="5.36449" r="1.2856" transform="translate(-0.04322 0.03465) rotate(-0.46316)"/>
    <circle class="c" cx="42.06453" cy="114.86966" r="1.15705" transform="translate(-0.92719 0.34379) rotate(-0.46316)"/>
    <circle class="c" cx="128.08692" cy="134.27868" r="1.54275" transform="translate(-1.08126 1.03978) rotate(-0.46315)"/>
    <circle class="d" cx="234.03111" cy="250.38445" r="1.15705" transform="translate(-2.01637 1.9) rotate(-0.46316)"/>
    <circle class="e" cx="154.80001" cy="265.93847" r="1.31776" transform="translate(-2.14467 1.26003) rotate(-0.46316)"/>
    <circle class="f" cx="81.29432" cy="309.85915" r="1.25347" transform="translate(-2.50212 0.66727) rotate(-0.46316)"/>
    <circle class="g" cx="41.28672" cy="263.17594" r="1.10883" transform="matrix(0.99997, -0.00808, 0.00808, 0.99997, -2.12605, 0.34234)"/>
    <circle class="h" cx="79.07666" cy="373.48477" r="1.22134" transform="matrix(0.99997, -0.00808, 0.00808, 0.99997, -3.01651, 0.65143)"/>
    <circle class="i" cx="293.83108" cy="371.78086" r="1.15705"/>
    <circle class="j" cx="282.28864" cy="417.04874" r="1.30167"/>
    <circle class="k" cx="198.27014" cy="402.99116" r="1.2856" transform="translate(-3.25111 1.61589) rotate(-0.46316)"/>
    <circle class="c" cx="86.23098" cy="546.79708" r="1.41417" transform="translate(-4.41729 0.71492) rotate(-0.46316)"/>
    <path class="l" d="M151.4733,530.32758a1.15713,1.15713,0,1,0,1.16632,1.14785v-.00014A1.1571,1.1571,0,0,0,151.4733,530.32758Z"/>
    <circle class="c" cx="193.70292" cy="625.25305" r="1.41417" transform="translate(-5.04794 1.58624) rotate(-0.46316)"/>
    <circle class="m" cx="173.0097" cy="693.55989" r="1.15705"/>
    <circle class="n" cx="182.40295" cy="817.80651" r="1.54275"/>
    <circle class="o" cx="110.30164" cy="892.31437" r="1.34989"/>
    <circle class="c" cx="226.49022" cy="997.64834" r="1.36395" transform="translate(-8.05721 1.86346) rotate(-0.46316)"/>
  </g>
</svg>
