<svg xmlns="http://www.w3.org/2000/svg" viewBox="0 0 981.52568 1243.06656">
  <defs>
    <style>
      .a {
        fill: #2f2339;
      }
    </style>
  </defs>
  <title>trees</title>
  <path class="a" d="M114.13533,468.66473c-5.94214.82569-10.0998-6.28375-9.90137-12.27972s2.888-11.75934,2.66364-17.75439c-.26539-7.08985-4.50263-13.30323-7.45569-19.75425-6.65869-14.546-6.94281-31.056-8.36933-46.9899s-4.56915-32.747-15.39935-44.52124a257.58537,257.58537,0,0,1,6.61438,47.832c.3678,8.4555.25934,17.22262-3.18768,24.95236-1.42585,3.19745-3.45185,6.6286-2.37024,9.95828.4071,1.2532,1.23486,2.35266,1.52752,3.63742.44562,1.95651-.41168,3.93836-.99572,5.85809a22.40153,22.40153,0,0,0,3.12658,19.19745l-3.63769,2.84644c3.25561,4.09814,3.36108,9.84488,2.68152,15.03448s-1.99066,10.44467-1.02906,15.58948c.61609,3.29614,2.15827,6.57831,1.4762,9.86142s-5.34369,5.7536-7.3703,3.08212a41.01737,41.01737,0,0,0,.96863-10.79293c-.61768-7.03354-4.75513-13.17142-7.9267-19.47965a76.29621,76.29621,0,0,1-7.87427-28.24066c-.89215-11.41626.79132-23.02173-1.2749-34.28485a52.53991,52.53991,0,0,0-14.18158-27.23136c3.71692,11.20279,7.4621,23.25541,4.17078,34.59055-1.355,4.66644-4.27063,9.02762-5.48984,17.53824-.94913,6.62543.01276,8.74545-1.818,14.71588a26.82823,26.82823,0,0,0-1.42639,7.90613,14.939,14.939,0,0,0,1.2164,6.578c.55108,1.22223.79171,1.25922,1.21228,2.14706,1.48852,3.14234,1.08987,8.20038-1.62,10.95215-2.34134,2.3776-4.48425,1.0799-7.61722,3.81214a13.652,13.652,0,0,0-3.40426,5.10638c-6.24585,13.37668-5.61142,10.9769-6.80851,14.29785-1.8641,5.17148-5.66549,17.26868-3.40426,18.383,1.4208.70016,4.65314-3.22254,5.101-2.80435.54953.513-5.7214,5.44143-5.11712,11.40625.23135,2.28372,1.4458,4.33365,2.63119,6.29931,3.63983,6.03586,7.28049,12.07306,11.11905,17.98453,3.35336,5.16428,7.06424,10.42194,12.49173,13.33014,3.46216,1.85513,7.38733,2.61877,11.24481,3.359q14.30649,2.74517,28.613,5.49035c3.73352.7164,7.71362,1.41224,11.23938-.00949a18.338,18.338,0,0,0,4.77771-3.1615c7.77618-6.5216,20.8341-23.50369,22.31183-25.3175"/>
  <path class="a" d="M976.10988,489.48276c3.7301-2.54785,7.59252-5.23761,9.78552-9.18674s2.13293-9.54465-1.36841-12.39865c-2.50586-2.04245-5.99243-2.19421-9.10547-3.06555s-6.42151-3.33112-6.00476-6.5369c.21289-1.63855,1.36389-2.97745,2.46436-4.21q9.03258-10.11694,18.0653-20.23389-12.94995-7.71707-25.8999-15.43417c-3.84363-2.2905-8.26489-6.63718-5.87659-10.42087a26.51249,26.51249,0,0,1-9.59838-8.18869c3.32788-1.49054,3.80371-6.37564,1.86511-9.46408s-5.41541-4.79571-8.71424-6.34949q3.82764-6.26468,7.65552-12.52938a93.56315,93.56315,0,0,0-19.35974-4.55585c-.0835-3.64148,2.37512-6.79321,4.75574-9.55s4.94189-5.769,5.133-9.40643-3.52026-7.528-6.82873-6.00452q1.62012-9.10354,3.24023-18.207c-2.17163,4.1626-9.55676,2.23364-10.57177-2.35034s2.87683-9.12219,7.38305-10.43994c-3.0747-.4505-6.29394-.95948-8.77173-2.8349s-3.85925-5.59113-2.14477-8.18292c-3.861-.29139-4.29663-6.17737-2.0011-9.29554s6.0459-5.227,7.37305-8.8645c-2.74634-1.41547-6.27246-3.821-7.20533-7.62353-.86267-3.51673,1.08851-5.8,1.702-9.87232.96472-6.40271-2.274-11.27649-4.42541-15.65961-1.8418-3.75238-3.157-12.48742-5.78736-29.95745-2.7843-18.49237-4.17639-27.73853-4.32727-38.01679a167.59238,167.59238,0,0,1,3.98694-38.57892c-10.54272,20.98938-12.68628,37.79615-12.6698,49.326.019,13.40375,2.60767,18.73151-.45679,30.825-2.62243,10.349-10.3601,19.27924-10.83422,29.94477-.27942,6.28589,2.04565,12.53869,1.28613,18.78479s-7.00891,12.66223-12.70423,9.9873a8.89917,8.89917,0,0,0,1.23389,5.91876l-6.90564,4.21216c-.8999,3.48517,4.40747,4.633,7.31067,6.76068,3.10938,2.27887,3.6344,6.94672,2.15039,10.5047s-4.51147,6.2171-7.57324,8.55951q4.72632,5.69889,9.45251,11.39783a27.54677,27.54677,0,0,0-11.82922,13.68195c5.16528,1.79614,11.53625,6.01214,9.45422,11.069-.79785,1.93792-2.6831,3.16705-4.46228,4.27465q-5.82477,3.626-11.64953,7.25214A25.53066,25.53066,0,0,1,880.87562,378.241,100.01858,100.01858,0,0,1,859.7483,385.545,49.86,49.86,0,0,1,873.15,400.1683c.73278,1.21988,1.43689,2.61911,1.12121,4.00669-.32409,1.42407-1.62085,2.39071-2.87024,3.14718a35.62062,35.62062,0,0,1-20.11572,5.06855,80.98518,80.98518,0,0,1,24.12122,21.69806,58.09855,58.09855,0,0,1-45.63257,2.51931q12.84888,9.42339,25.69763,18.84677-4.93341,1.75228-9.8667,3.50455c-.17554,5.83832,10.76709,8.41913,8.85657,13.93881-.46778,1.35151-1.71106,2.41779-1.82678,3.84327-.24341,2.99633,3.94458,3.80578,6.4768,5.426,6.42822,4.11307,1.973,14.05359,3.15918,21.59229,1.61072,10.23617,13.66907,14.77755,23.90332,16.40048,25.59082,4.05816,51.77014,2.32724,77.43592-1.22687,4.36633-.60464,8.97094-1.36825,12.343-4.20724,3.58033-3.01435,2.30518-8.823,1.71179-11.66019"/>
  <path class="a" d="M807.49562,500.899a81.32816,81.32816,0,0,0-22.49555-19.32911,14.979,14.979,0,0,1,14.48694-10.2934c.73175-2.6066-2.52029-4.36135-5.02847-5.38061s-5.2282-4.03707-3.32758-5.96514l-4.08986-3.12838a11.02678,11.02678,0,0,0,7.44942-5.2568l-3.52552-3.3174a20.15413,20.15413,0,0,0,8.83388-5.345l-19.638-.32992a17.10831,17.10831,0,0,0,9.67245-3.424c-3.47082-.613-7.21357-1.37148-9.566-3.99608s-2.04869-7.73611,1.31229-8.79731c1.46706-.46322,3.11845-.05514,4.55583-.60356s2.12254-3.01169.6432-3.43407a12.24044,12.24044,0,0,0,6.64889-4.0641c-2.19824-1.98027-5.39449-2.26679-8.34746-2.45041s-6.14726-.45795-8.35876-2.42341-2.43694-6.26309.27067-7.45583c-3.02525.453-4.99506-3.284-4.95065-6.34264s1.06206-6.27249-.15879-9.07728c-.9117-2.09455-2.90267-3.50459-4.17291-5.40323-3.08432-4.61015-.51684-11.87786,4.77892-13.52756l-10.89333-7.06516,4.43109-4.509c-4.08262-.17262-5.07661-6.02045-3.55469-9.81271s4.31969-7.576,3.31479-11.53679a14.2132,14.2132,0,0,0-2.52944-4.55c-7.27286-10.21639-11.78308-22.09422-16.21616-33.82525a58.2414,58.2414,0,0,1-3.41347-11.28937c-.6197-3.88481-.44561-7.84545-.55344-11.77789a82.37072,82.37072,0,0,0-14.06647-43.67677A68.93638,68.93638,0,0,1,737.347,272.961c-.70172,7.718-2.70539,15.2481-4.24628,22.84322a17.50776,17.50776,0,0,0-.4734,6.097c.34382,2.241,1.51009,4.29843,1.80276,6.54666s-.77682,5.00545-3.02079,5.3292c2.77258,6.72544,5.23469,15.33271.14964,20.53474a6.272,6.272,0,1,1-7.75623,9.79952,15.50164,15.50164,0,0,0,3.83292,14.4508l-6.7305,2.15664a153.64418,153.64418,0,0,0,11.33274,13.96244l-14.47938,6.06967,8.31985,7.18811-9.8678,5.39c3.09645.36481,5.19416,3.69508,5.12219,6.81212s-1.791,5.9581-3.76387,8.37241a37.11069,37.11069,0,0,1-22.97607,13.07659l15.824,19.082c-2.97619,4.927-11.408,4.59914-13.67721,9.88913-1.52852,3.56328.72537,7.55057,3.06091,10.64549a102.8413,102.8413,0,0,0,32.70928,28.22387c2.32724,1.26987,4.87322,2.62324,5.94974,5.046,1.26284,2.84209.0713,6.0958-.28686,9.18512-1.18528,10.22351,7.50757,19.49228,17.32347,22.58635s20.41745,1.53367,30.58616-.05456"/>
  <path class="a" d="M607.70562,405.39439a107.16542,107.16542,0,0,1-21.95706-27.61851l9.49651-4.63739a2.92047,2.92047,0,0,0,1.65808-1.43861,2.95369,2.95369,0,0,0-.83155-2.53945c-3.81634-5.18655-7.5654-10.64423-9.06585-16.90628s-.303-13.56309,4.54133-17.80541a2.69459,2.69459,0,0,0,1.05122-1.37415c.2426-1.278-1.40382-1.95148-2.36792-2.82476-1.3805-1.25045-1.46179-3.41854-.9699-5.215s1.44251-3.45456,1.80389-5.2818c.81122-4.10185-1.43085-8.09716-3.10118-11.93035-3.59367-8.247-4.74736-17.33659-7.60254-25.86747s-8.06776-17.04668-16.47829-20.239l5.97631,12.16565a4.19919,4.19919,0,0,1,.62273,2.989,18.92087,18.92087,0,0,1-1.02607,1.84033c-1.50321,3.42826,4.55849,6.15728,4.15077,9.87836a10.11134,10.11134,0,0,1-.988,2.65266c-3.06236,7.41346,5.54106,16.22081,1.87812,23.35666-1.088,2.11948-3.08352,3.59762-4.64141,5.40007a15.99405,15.99405,0,0,0-1.334,18.545c.92153,1.44047,2.10075,2.7704,2.55922,4.41781.65618,2.35784-.29211,4.83244-1.22439,7.09537-1.59232,3.86509-3.3708,7.96221-6.86568,10.25573-2.67333,1.75439-6.3625,2.50823-7.69961,5.41284-1.01766,2.21066-.20382,4.80384.76234,7.03749,4.99238,11.54182,13.86146,21.33153,17.245,33.44307,1.75987,6.29953,1.93716,12.91766,2.07938,19.45686"/>
</svg>
