<svg xmlns="http://www.w3.org/2000/svg" viewBox="0 0 1847.89694 1130.57785">
  <defs>
    <style>
      .a {
        fill: #cf9766;
      }

      .b {
        fill: #f8f8f8;
      }

      .c {
        fill: none;
        stroke: #000;
        stroke-miterlimit: 10;
      }
    </style>
  </defs>
  <title>biglogo2</title>
  <g>
    <g>
      <path class="a" d="M773.82536,1127.37964c6.72994-4.35236,10.28742.03183,48.84112,4.27535,18.24688,2.00846,21.342,1.45461,22.78657,4.24277,3.81776,7.369-18.82665,25.92052-64.27133,62.72231-7.64588,6.19164-16.43019,13.17185-20.90732,10.45366-3.7674-2.28724-2.43385-10.71911.38689-27.48916C768.87472,1132.7564,769.9865,1129.86236,773.82536,1127.37964Z" transform="translate(-36.40875 -857.93001)"/>
      <path d="M833.59275,1173.904c-.38441.32016-.76868.61909-1.11022.918-3.48,2.96761-7.17339,5.72164-10.88817,8.39033-5.10256,3.672-10.29046,7.2375-15.22218,11.12311-10.35457,8.17676-20.218,19.29988-31.768,25.74746-18.4246,10.26909-27.64759-5.7004-28.45888-22.13939,0-.04274-.02137-.06411-.02137-.10685-.02137-.61909-.04274-1.23818-.04274-1.85739v-.10673c.04274-.53373.08548-1.0461.12809-1.60121V1194.25c1.04624-6.51156,8.36909-8.51841,13.36479-6.0418a8.3202,8.3202,0,0,1,4.69691,7.77111c.10672,13.25806,5.12392,5.35873,12.7457-.918,5.4867-4.52607,10.90954-9.15887,16.48172-13.57823,9.39382-7.47231,19.68428-13.83441,28.65095-21.77648,2.39113-2.09221,18.23253-15.67044,17.5707-18.70215-.12809-.61909-13.45027-.10672-17.229-.27756-15.393-.66183-30.359-3.9496-45.00472-8.62513-.14946-.04275-.32029-.10673-.46962-.14947a8.80323,8.80323,0,0,1-4.69691-3.33051c-4.37662-6.17.491-17.12231,9.54315-14.21869,1.0461.34154,2.09234.66183,3.13844,1.00337,14.36815,4.35537,28.67232,7.10941,43.78778,7.25887,9.39368.08535,23.12138-2.39113,29.86788,6.21263C869.99356,1143.35292,844.05391,1165.06529,833.59275,1173.904Z" transform="translate(-36.40875 -857.93001)"/>
      <path d="M879.921,1118.52348c-19.55606,0-19.53469-30.31627,0-30.31627S899.43443,1118.52348,879.921,1118.52348Z" transform="translate(-36.40875 -857.93001)"/>
      <path d="M903.545,1270.049c-5.0954-3.51824-10.06936-7.279-14.9219-11.2215.97036-.66752,1.94109-1.27394,2.91145-1.88074C900.26922,1251.42711,908.33678,1262.89148,903.545,1270.049Z" transform="translate(-36.40875 -857.93001)"/>
      <path d="M1315.10846,1245.65953C1185.731,1389.2347,974.26429,1422.6679,806.54288,1326.83024c-6.10592-3.4586-5.63616-12.08387,0-15.7133q41.055-26.13167,82.08873-52.28483c.96075-.66183,1.94287-1.28091,2.90349-1.87876a9.6168,9.6168,0,0,1,.89677-.51237,8.28581,8.28581,0,0,1,.89664-.40564,3.03915,3.03915,0,0,1,.57648-.19207,1.03828,1.03828,0,0,0,.14933-.06412c.08548-.02137.14947-.04274.21358-.064,8.56115-2.79677,19.364,4.05632,15.07272,10.48253a40.67722,40.67722,0,0,1-5.27339,4.18455c-1.49436,1.06747-2.83939,1.98548-3.30914,2.28441q-35.86714,22.83327-71.75553,45.73052a395.83965,395.83965,0,0,0,42.48549,19.08643h.02124q9.60726,3.6508,19.34261,6.76774a385.6271,385.6271,0,0,0,51.64437,12.78831q9.06291,1.63328,18.14705,2.77541a386.47219,386.47219,0,0,0,52.94678,3.18118h.02124c6.95995-.04274,13.9199-.29893,20.85847-.72594h.02137a389.74451,389.74451,0,0,0,46.71265-5.72164c7.10941-1.28092,14.13333-2.7328,21.17876-4.44073a383.99409,383.99409,0,0,0,46.008-14.17608q10.8883-4.06694,21.56291-8.86a386.63238,386.63238,0,0,0,45.81587-24.189q9.67137-5.9244,19.04408-12.48939a394.20694,394.20694,0,0,0,47.182-38.728c-69.64169,8.07016-136.55111-22.86533-196.18015-58.47622a8.46455,8.46455,0,0,1-3.9496-4.84625c-2.17769-6.85322,5.1879-15.58521,13.1086-10.84556,1.75067,1.0461,3.52258,2.0922,5.29476,3.13831,62.34034,36.69974,132.83632,68.08348,205.97962,47.80149C1315.34353,1227.96087,1321.04367,1239.10523,1315.10846,1245.65953Z" transform="translate(-36.40875 -857.93001)"/>
      <g>
        <path d="M812.60618,1060.06862a10.47479,10.47479,0,0,0-2.83951-.5551c-75.876-3.9496-146.84157-32.02421-221.15906-45.00472-68.06211-11.84893-129.207-2.36976-194.40825,18.72353-129.207,41.93038-249.12694,107.98564-354.91365,193.08459-6.661,5.40134-.59772,15.09408,6.44758,15.5211,120.15486,7.77111,240.80059-14.98737,349.1279-67.80593,28.62958-14.02662,55.9355-30.57245,86.871-39.19759,30.74315-8.53979,63.08765-12.61761,94.91965-14.73119,60.29087-3.971,122.119.72594,178.73781,22.60915,1.15282.44825,2.28441.89664,3.41586,1.34489,3.99234,1.60121,7.152.25632,9.00954-2.327a10.47358,10.47358,0,0,0,1.836-7.451,9.42172,9.42172,0,0,0-5.97783-7.74986c-.81129-.3203-1.644-.66183-2.47661-.98213-98.848-38.66385-234.588-36.657-330.23355,9.60726-23.10014,11.14449-45.83724,22.09678-68.83066,32.259a1.31517,1.31517,0,0,1-1.49449-2.09221q25.93953-28.6617,51.8152-57.28066-51.655,38.39718-103.35284,76.83685a2.4181,2.4181,0,0,1-3.33051-3.45874q29.01391-36.73166,58.15592-73.37811-58.66817,37.75666-117.294,75.57717a2.4278,2.4278,0,0,1-3.03159-3.75753l77.88294-77.90418q-63.79234,28.75767-127.56306,57.51547a2.44106,2.44106,0,0,1-2.36989-4.24853l52.11412-34.67151A419.46193,419.46193,0,0,1,311.3847,1083.617q47.87622-20.36734,97.73792-35.99517c70.49585-22.07528,134.35218-25.36318,206.53473-9.05216,58.7324,13.2367,116.11978,31.89611,176.09036,37.76722q8.96675.89657,18.019,1.36639C820.42,1078.237,821.338,1063.20693,812.60618,1060.06862ZM52.1595,1239.16934c-2.135-5.1453-4.24852-10.31183-6.42621-15.52111,3.13844.17083,6.29812.36291,9.4578.53374a7.00411,7.00411,0,0,0-.61909,5.16653c.61909,1.75068,2.13495,3.15981,4.61143,4.24853C56.835,1235.41181,54.46528,1237.29057,52.1595,1239.16934Z" transform="translate(-36.40875 -857.93001)"/>
        <path d="M59.19147,1233.59377c-2.36573,1.81965-4.73146,3.7-7.03648,5.58039-2.12287-5.15574-4.24574-10.31149-6.42969-15.52832q4.73147.27323,9.46257.54608a6.93058,6.93058,0,0,0-.60643,5.15575C55.18787,1231.107,56.70431,1232.502,59.19147,1233.59377Z" transform="translate(-36.40875 -857.93001)"/>
      </g>
      <path d="M1229.19822,1309.64382q-6.75666-2.30565-13.4289-4.76089a563.26024,563.26024,0,0,1-80.61535-37.0199c-10.22647-5.72178-1.04636-21.435,9.18012-15.71331a538.40775,538.40775,0,0,0,89.7105,39.9449,8.20247,8.20247,0,0,1,.76881.29892C1244.84755,1296.68481,1240.04392,1313.33737,1229.19822,1309.64382Z" transform="translate(-36.40875 -857.93001)"/>
      <path d="M1159.727,1344.166q-5.73207-3.01027-11.33643-6.23414a354.35692,354.35692,0,0,1-65.11588-48.0363c-8.60376-8.006,4.29127-20.837,12.85242-12.87366a335.76609,335.76609,0,0,0,72.78027,51.43092c.363.19208.72607.40552,1.0461.61909C1178.64283,1335.007,1169.7189,1349.41789,1159.727,1344.166Z" transform="translate(-36.40875 -857.93001)"/>
      <path d="M1020.67814,1374.2687a130.46551,130.46551,0,0,1-7.0668-11.27245h-.02124a139.38528,139.38528,0,0,1-17.229-62.25512c-.10673-2.19893-.17084-4.44073-.17084-6.661,0-11.7422,18.18979-11.72083,18.21116,0,0,2.11358.04261,4.20592.14933,6.27675a120.4831,120.4831,0,0,0,19.91909,61.91346h.02137c.59785.93938,1.23831,1.87876,1.90014,2.81814C1043.11632,1374.71708,1027.31779,1383.79061,1020.67814,1374.2687Z" transform="translate(-36.40875 -857.93001)"/>
      <g>
        <path class="b" d="M1081.20383,1356.54867a389.74451,389.74451,0,0,1-46.71265,5.72164h-.02137a120.4831,120.4831,0,0,1-19.91909-61.91346,237.798,237.798,0,0,0,28.62971-3.56532C1050.63137,1319.72084,1063.313,1340.34436,1081.20383,1356.54867Z" transform="translate(-36.40875 -857.93001)"/>
        <path d="M1102.38259,1352.10794c-7.04543,1.70793-14.06935,3.15981-21.17876,4.44073-17.89087-16.20431-30.57246-36.82783-38.0234-59.75714a237.798,237.798,0,0,1-28.62971,3.56532q-9.12681.60848-18.18965.38428a175.15537,175.15537,0,0,1-23.65525-2.135,155.11122,155.11122,0,0,1-17.78414-3.80014,149.9755,149.9755,0,0,1-23.69786-8.68925c-.53374-.21357-1.06747-.46975-1.60121-.72594-4.825-2.327-9.56452-4.889-14.17608-7.643-3.88562-2.30578-7.66438-4.761-11.3793-7.36559-.1707-.10672-.34154-.21358-.51237-.34167a8.57335,8.57335,0,0,0,1.43051-4.78226,8.2457,8.2457,0,0,0-.06411-1.02473,5.43781,5.43781,0,0,0-.08535-.61922,2.90252,2.90252,0,0,0-.12809-.61909c-.04274-.21344-.10685-.46962-.17083-.68319-.02138-.02137-.02138-.02137-.02138-.04261a8.18417,8.18417,0,0,0-.46962-1.1957,4.0872,4.0872,0,0,0-.34167-.68307.111.111,0,0,0-.04274-.08548,4.706,4.706,0,0,0-.32016-.55511c-.02137-.02124-.02137-.04261-.04274-.064a7.46086,7.46086,0,0,0-.78992-1.0461c-.21344-.25618-.44839-.51237-.6832-.74731a5.9636,5.9636,0,0,0-.66183-.59772,5.57741,5.57741,0,0,0-.72581-.51236,7.1522,7.1522,0,0,0-.76868-.44839,3.59431,3.59431,0,0,0-.59771-.25618,3.55749,3.55749,0,0,0-.427-.17083,5.15576,5.15576,0,0,0-.76855-.21345,4.19547,4.19547,0,0,0-.74731-.12809,5.53291,5.53291,0,0,0-.8539-.06411c-.1922,0-.40564,0-.61922.02137a2.64671,2.64671,0,0,0-.57634.06411,1.82886,1.82886,0,0,0-.57648.10672c-.064,0-.14946.02137-.23481.02137-.06411.02124-.1281.04261-.21358.064a1.03828,1.03828,0,0,1-.14933.06412,3.03915,3.03915,0,0,0-.57648.19207,8.28581,8.28581,0,0,0-.89664.40564,9.6168,9.6168,0,0,0-.89677.51237c-.96062.59785-1.94274,1.21693-2.90349,1.87876-24.76533-20.19651-46.17891-45.26089-64.96642-69.57784a9.39387,9.39387,0,0,1-2.07083-6.04193c.08535-6.38347,6.57554-12.01977,11.99839-9.30834a8.29769,8.29769,0,0,1,2.92486,2.49785c23.954,30.93536,51.687,62.59665,85.099,83.68994,37.31883,23.54839,80.01776,26.75081,122.28968,18.08293a15.83408,15.83408,0,0,1,9.00954,1.8574,15.61065,15.61065,0,0,1,5.61492,5.20927l.46963,1.0035c6.98132,26.23844,14.902,37.29745,21.17877,42.42138,1.98548,1.62258,8.369,10.67473,19.59892,19.87635A7.54342,7.54342,0,0,1,1102.38259,1352.10794Z" transform="translate(-36.40875 -857.93001)"/>
        <path d="M1086.91233,1361.46c-1.94072-1.57716-3.88144-3.215-5.70146-4.91325,7.09646-1.27394,14.13369-2.72966,21.16943-4.42825C1105.1096,1359.27646,1094.55524,1367.64686,1086.91233,1361.46Z" transform="translate(-36.40875 -857.93001)"/>
      </g>
      <g>
        <path class="b" d="M1013.5901,1362.99625a386.47219,386.47219,0,0,1-52.94678-3.18118,363.91638,363.91638,0,0,0,12.0625-61.20889,175.15537,175.15537,0,0,0,23.65525,2.135A139.38528,139.38528,0,0,0,1013.5901,1362.99625Z" transform="translate(-36.40875 -857.93001)"/>
        <path d="M973.19681,1294.0801c-.14946,1.51586-.32016,3.03159-.491,4.52608a363.91638,363.91638,0,0,1-12.0625,61.20889c-.32017,1.13158-.66183,2.26317-1.00336,3.39462-3.39463,11.20847-20.94383,6.40484-17.54933-4.825.12822-.44826.27755-.89664.40564-1.345a340.02081,340.02081,0,0,0,12.42541-62.23362c.04274-.23494.06411-.49112.08548-.72594C956.16,1282.50873,974.37114,1282.42325,973.19681,1294.0801Z" transform="translate(-36.40875 -857.93001)"/>
      </g>
      <g>
        <path class="b" d="M954.92168,1294.806a340.02081,340.02081,0,0,1-12.42541,62.23362,385.6271,385.6271,0,0,1-51.64437-12.78831,193.85693,193.85693,0,0,0,39.68872-56.21318,9.86636,9.86636,0,0,0,.6832-1.92138A149.9755,149.9755,0,0,0,954.92168,1294.806Z" transform="translate(-36.40875 -857.93001)"/>
        <path class="b" d="M915.44653,1277.74784a7.86588,7.86588,0,0,0-.61909,1.11008,180.64466,180.64466,0,0,1-43.31815,58.62569h-.02124a395.83965,395.83965,0,0,1-42.48549-19.08643q35.83509-22.83327,71.75553-45.73052c.46975-.29893,1.81478-1.21694,3.30914-2.28441C907.78215,1272.98682,911.56091,1275.44206,915.44653,1277.74784Z" transform="translate(-36.40875 -857.93001)"/>
        <path d="M931.22382,1286.11679a9.86636,9.86636,0,0,1-.6832,1.92138,193.85693,193.85693,0,0,1-39.68872,56.21318c-2.28427,2.263-4.61142,4.4621-7.02392,6.597-8.73186,7.77111-21.627-5.05981-12.87367-12.87379.17071-.17083.36291-.32016.53374-.491h.02124a180.64466,180.64466,0,0,0,43.31815-58.62569,7.86588,7.86588,0,0,1,.61909-1.11008C920.59183,1269.50685,933.50823,1276.85107,931.22382,1286.11679Z" transform="translate(-36.40875 -857.93001)"/>
      </g>
      <path class="c" d="M749.11065,1129.25112" transform="translate(-36.40875 -857.93001)"/>
      <path class="b" d="M791.74771,1076.33691c-13.34341,13.47151-23.33495,30.57245-30.55108,49.21049-98.848-38.66385-234.588-36.657-330.23355,9.60726-23.10014,11.14449-45.83724,22.09678-68.83066,32.259a1.31517,1.31517,0,0,1-1.49449-2.09221q25.93953-28.6617,51.8152-57.28066-51.655,38.39718-103.35284,76.83685a2.4181,2.4181,0,0,1-3.33051-3.45874q29.01391-36.73166,58.15592-73.37811-58.66817,37.75666-117.294,75.57717a2.4278,2.4278,0,0,1-3.03159-3.75753l77.88294-77.90418q-63.79234,28.75767-127.56306,57.51547a2.44106,2.44106,0,0,1-2.36989-4.24853l52.11412-34.67151A419.46193,419.46193,0,0,1,311.3847,1083.617q47.87622-20.36734,97.73792-35.99517c70.49585-22.07528,134.35218-25.36318,206.53473-9.05216C674.38975,1051.80639,731.77713,1070.4658,791.74771,1076.33691Z" transform="translate(-36.40875 -857.93001)"/>
      <path class="b" d="M1697.37077,884.149,1540.687,877.53068l4.91048-.29893c-5.40147-.064-10.84543-.12809-16.24691-.19207-108.28444-1.08884-232.75193-8.36908-329.12346,49.50942-81.46964,48.95431-142.91334,138.10958-243.42667,150.36428-18.97971,2.30565-38.08738,1.38764-56.53335-3.75752-18.12568-5.03845-33.96707-10.24772-53.20283-6.42621-29.61171,5.8711-49.296,24.70135-62.06292,48.67676,14.36815,4.35537,28.67232,7.10941,43.78778,7.25887,9.39368.08535,23.12138-2.39113,29.86788,6.21263,11.33656,14.475-14.60309,36.18738-25.06425,45.02609a8.29769,8.29769,0,0,1,2.92486,2.49785c23.954,30.93536,51.687,62.59665,85.099,83.68994,37.31883,23.54839,80.01776,26.75081,122.28968,18.08293a15.83408,15.83408,0,0,1,9.00954,1.8574,15.61065,15.61065,0,0,1,5.61492,5.20927l.46963,1.0035c6.98132,26.23844,14.902,37.29745,21.17877,42.42138,1.98548,1.62258,8.369,10.67473,19.59892,19.87635a7.54342,7.54342,0,0,1,2.60457,3.56532,383.99409,383.99409,0,0,0,46.008-14.17608,354.35692,354.35692,0,0,1-65.11588-48.0363c-8.60376-8.006,4.29127-20.837,12.85242-12.87366a335.76609,335.76609,0,0,0,72.78027,51.43092c.363.19208.72607.40552,1.0461.61909a386.63238,386.63238,0,0,0,45.81587-24.189,563.26024,563.26024,0,0,1-80.61535-37.0199c-10.22647-5.72178-1.04636-21.435,9.18012-15.71331a538.40775,538.40775,0,0,0,89.7105,39.9449,8.20247,8.20247,0,0,1,.76881.29892,394.20694,394.20694,0,0,0,47.182-38.728c-69.64169,8.07016-136.55111-22.86533-196.18015-58.47622a8.46455,8.46455,0,0,1-3.9496-4.84625c-3.80027-3.07432-5.55081-8.92419-1.19557-13.51424,49.061-51.75109,102.32811-100.51333,166.01348-133.64775,59.26614-30.87125,128.16066-55.2523,193.98123-66.9519,17.5492-3.11694,35.14114-4.24852,52.75445-4.71815,24.97877-.66182,49.93644-2.02822,74.8941-2.925,15.07259-.51237,29.33415-3.245,44.02233-2.60458,2.77553.1281,3.75753-3.69341,1.153-4.48333-28.45874-8.92419-56.89612-14.02662-85.35512-22.95068q68.24376-1.44113,136.55111-2.90363c2.83964-.064,3.45886-4.05632.72606-4.61142l-104.33483-24.38106c45.43147-7.515,90.99142-10.43992,136.42315-17.955C1700.40223,888.20541,1700.33838,884.085,1697.37077,884.149ZM879.921,1118.52348c-19.55606,0-19.53469-30.31627,0-30.31627S899.43443,1118.52348,879.921,1118.52348Z" transform="translate(-36.40875 -857.93001)"/>
      <path d="M1881.83023,879.34533a10.09465,10.09465,0,0,1-1.21681,1.153c-46.8195,44.76977-111.18819,68.25419-172.69613,85.12032-69.74855,19.04369-138.70743,22.31022-210.48407,23.69786-77.09315,1.51586-158.2425,29.6117-227.45731,62.618-65.52165,31.21291-119.81346,78.8222-169.70689,130.70138q-3.39476,3.49072-6.74651,7.04543c-3.71491,3.90686-8.43306,3.28777-11.65685.66182-3.80027-3.07432-5.55081-8.92419-1.19557-13.51424,49.061-51.75109,102.32811-100.51333,166.01348-133.64775,59.26614-30.87125,128.16066-55.2523,193.98123-66.9519,17.5492-3.11694,35.14114-4.24852,52.75445-4.71815,24.97877-.66182,49.93644-2.02822,74.8941-2.925,15.07259-.51237,29.33415-3.245,44.02233-2.60458,2.77553.1281,3.75753-3.69341,1.153-4.48333-28.45874-8.92419-56.89612-14.02662-85.35512-22.95068q68.24376-1.44113,136.55111-2.90363c2.83964-.064,3.45886-4.05632.72606-4.61142l-104.33483-24.38106c45.43147-7.515,90.99142-10.43992,136.42315-17.955,2.90323-.491,2.83938-4.61143-.12823-4.54745L1540.687,877.53068l4.91048-.29893c-5.40147-.064-10.84543-.12809-16.24691-.19207-108.28444-1.08884-232.75193-8.36908-329.12346,49.50942-81.46964,48.95431-142.91334,138.10958-243.42667,150.36428-18.97971,2.30565-38.08738,1.38764-56.53335-3.75752-18.12568-5.03845-33.96707-10.24772-53.20283-6.42621-29.61171,5.8711-49.296,24.70135-62.06292,48.67676q-2.65806,4.93185-4.88911,10.18373c-.93939,2.13495-1.81466,4.31264-2.62595,6.51157-7.83521,20.47419-11.72083,43.04046-13.21532,63.87757a9.03639,9.03639,0,0,1-6.234,8.15551c-4.95309,1.7293-11.16573-.34154-11.89167-6.19127,0-.04274-.02137-.06411-.02137-.10685a8.87249,8.87249,0,0,1-.04274-1.85739v-.10673c.04274-.53373.08548-1.0461.12809-1.60121V1194.25a259.60306,259.60306,0,0,1,9.18038-51.53751c1.68656-5.82849,3.6293-11.57151,5.807-17.16506,7.21613-18.638,17.20767-35.739,30.55108-49.21049a97.96476,97.96476,0,0,1,65.32945-29.44087c15.28616-1.04624,28.62958,2.7754,43.12582,6.95982,21.34947,6.19139,42.1652,7.77123,64.24061,3.52271,48.33522-9.223,89.7105-38.51439,126.83712-69.25768,32.45135-26.75081,63.57878-55.57259,99.78765-77.2851,35.84558-21.47756,75.87583-34.32985,116.93082-41.43926,89.77435-15.58508,183.07168-11.20847,273.76444-9.88481q145.10145,2.27379,290.4166,4.37662c1.04611.06411,2.007.06411,3.03172.06411C1883.9438,864.05917,1886.20671,874.26415,1881.83023,879.34533Z" transform="translate(-36.40875 -857.93001)"/>
    </g>
    <g>
      <path class="b" d="M196.83772,1744h48.73379a4.87149,4.87149,0,0,1,4.87149,4.87149V1981.1403a4.87149,4.87149,0,0,1-4.87149,4.87149h-31.7029a4.87149,4.87149,0,0,1-4.87149-4.87149V1798.09552l1.49091,9.5411a4.87133,4.87133,0,0,1-.15723,2.18545l-44.88213,145.7878a4.8715,4.8715,0,0,1-4.65585,3.43814H127.684a4.8715,4.8715,0,0,1-4.64665-3.40858l-44.88379-142.564a4.87145,4.87145,0,0,1-.19069-2.03882l1.54069-12.94106V1981.1403a4.87149,4.87149,0,0,1-4.87149,4.87149H42.92913a4.87149,4.87149,0,0,1-4.87149-4.87149V1748.87149A4.87149,4.87149,0,0,1,42.92913,1744H97.12168a5.04888,5.04888,0,0,1,4.85852,3.67558L143.43109,1904.216a.852.852,0,0,0,1.6398,0l47.079-156.66954A4.87148,4.87148,0,0,1,196.83772,1744Z" transform="translate(-36.40875 -857.93001)"/>
      <path class="b" d="M286.20991,1975.27653q-13.73107-13.23338-13.73108-40.19648,0-25.63109,15.39558-38.45,15.39423-12.8135,46.18813-12.81623h43.277l2.32948,34.78788H334.22912q-10.32084,0-15.47888,4.07727-5.16144,4.08206-5.16008,12.40113,0,8.48772,6.49141,12.56635,6.49073,4.08,19.64081,4.07727,18.30675,0,27.21366-4.16056,8.90145-4.15783,8.90554-12.98282l3.49422,25.1327a23.575,23.575,0,0,1-8.571,15.81342,49.5614,49.5614,0,0,1-18.97583,9.73574,87.43225,87.43225,0,0,1-24.05125,3.24571Q299.93963,1988.50786,286.20991,1975.27653Zm89.63167-98.78573q0-11.984-7.98931-18.47607-7.99-6.49073-22.63664-6.49141a60.27012,60.27012,0,0,0-19.14241,3.16241,58.51116,58.51116,0,0,0-12.23347,5.65936,7.07458,7.07458,0,0,1-8.70691-.89434l-19.12442-18.78664a7.081,7.081,0,0,1,.35715-10.37754,71.95729,71.95729,0,0,1,21.89792-12.96671,103.37625,103.37625,0,0,1,37.61712-6.5747q22.6346,0,38.61527,7.57285a54.39788,54.39788,0,0,1,24.38443,21.97029q8.40373,14.3988,8.40578,34.70459v105.844a5.17488,5.17488,0,0,1-5.17488,5.17488H381.01647a5.17489,5.17489,0,0,1-5.17489-5.17488Z" transform="translate(-36.40875 -857.93001)"/>
      <path class="b" d="M448.0532,1813.24122h34.33934a5.40091,5.40091,0,0,1,5.40091,5.40091v162.39952a4.97014,4.97014,0,0,1-4.97014,4.97014H447.62242a4.97013,4.97013,0,0,1-4.97013-4.97014V1818.64213A5.40091,5.40091,0,0,1,448.0532,1813.24122Zm76.74423,43.109a29.34558,29.34558,0,0,0-10.28735-1.6645q-12.74615,0-19.73076,8.90555-6.98713,8.90554-6.98587,24.71759l-3.22464-44.94009q6.59981-15.48024,17.12081-24.05262a35.76355,35.76355,0,0,1,23.10781-8.571,45.87823,45.87823,0,0,1,18.04161,3.41229,38.97149,38.97149,0,0,1,11.08688,7.08942,4.86068,4.86068,0,0,1,.7845,6.27077l-19.44022,29.37064a4.83886,4.83886,0,0,1-6.67627,1.34239A20.34039,20.34039,0,0,0,524.79743,1856.35023Z" transform="translate(-36.40875 -857.93001)"/>
      <path class="b" d="M594.60789,1744H599.881a20.16666,20.16666,0,0,1,20.16665,20.16666v5.27312a20.16666,20.16666,0,0,1-20.16665,20.16666h-5.27313a20.16666,20.16666,0,0,1-20.16665-20.16666v-5.27312A20.16666,20.16666,0,0,1,594.60789,1744Zm-14.33279,69.24122h33.93871a5.83386,5.83386,0,0,1,5.83386,5.83387v161.10284a5.83386,5.83386,0,0,1-5.83386,5.83386H580.2751a5.83386,5.83386,0,0,1-5.83386-5.83386V1819.07509A5.83386,5.83386,0,0,1,580.2751,1813.24122Z" transform="translate(-36.40875 -857.93001)"/>
      <path class="b" d="M696.91091,1918.26848q0,12.48374,7.07446,19.39093,7.07241,6.90855,19.89068,6.90787,12.81351,0,19.72274-7.07446,6.90446-7.07241,6.90787-20.22249l2.33085,37.78234a53.66144,53.66144,0,0,1-16.06193,23.80137q-11.23639,9.65518-27.38162,9.65382-27.79808,0-42.94242-17.89166-15.14844-17.891-15.14571-50.68322V1818.50633a5.26511,5.26511,0,0,1,5.26511-5.26511H691.6458a5.26511,5.26511,0,0,1,5.26511,5.26511Zm58.86086-105.02726h34.90964a5.26511,5.26511,0,0,1,5.26511,5.26511v162.24036a5.26511,5.26511,0,0,1-5.26511,5.2651H755.77177a5.26511,5.26511,0,0,1-5.26511-5.2651V1818.50633A5.26511,5.26511,0,0,1,755.77177,1813.24122Z" transform="translate(-36.40875 -857.93001)"/>
      <path class="b" d="M874.16384,1988.50786a5.73408,5.73408,0,0,1-1.30853-.148q-2.11186-.48941-11.20351-2.59793a95.48883,95.48883,0,0,1-22.2041-8.07261,81.13616,81.13616,0,0,1-14.3381-9.33469,5.87965,5.87965,0,0,1-1.204-7.74274l16.60868-25.64726a5.83714,5.83714,0,0,1,8.2202-1.62369,80.06852,80.06852,0,0,0,16.28223,8.72893,57.47352,57.47352,0,0,0,20.99305,4.32852q12.91807,0,20.05026-3.57888,7.13218-3.57819,7.13274-9.9037,0-5.82506-3.09552-8.82225a17.41636,17.41636,0,0,0-7.93974-4.24385,105.74946,105.74946,0,0,0-13.591-2.24756q-2.42265-.32976-4.91266-.665-2.49054-.3318-5.04623-.66634a7.57712,7.57712,0,0,0-1.14371-.24988,8.57718,8.57718,0,0,0-1.14371-.08329q-15.61232-2.49471-25.03027-6.15824-9.4207-3.65806-15.94681-14.06426-6.52776-10.40073-6.52666-30.20949,0-17.30928,6.72868-29.62779a44.29968,44.29968,0,0,1,19.51263-18.72459q12.784-6.40674,30.952-6.40811a86.49181,86.49181,0,0,1,21.194,2.66265,94.81815,94.81815,0,0,1,33.79738,16.15229,5.89656,5.89656,0,0,1,1.391,7.962l-15.79078,23.84448a5.84786,5.84786,0,0,1-7.89343,1.76786,78.77334,78.77334,0,0,0-14.39769-6.78421,57.65085,57.65085,0,0,0-19.10858-3.49422q-11.17106,0-17.3599,3.16241-6.18995,3.16242-6.19,8.82089a7.86878,7.86878,0,0,0,3.29756,6.74129,21.55859,21.55859,0,0,0,8.208,3.49558q4.91156,1.0835,14.33171,2.41277,1.21215.168,2.42321.33317,1.2105.168,2.4221.33318a4.041,4.041,0,0,0,1.21106.16658,4.16212,4.16212,0,0,1,1.21105.16659q16.28131,2.33289,26.50958,5.99165,10.2255,3.66216,17.42723,14.64731,7.19677,10.98445,7.20008,32.29045,0,17.975-6.99805,30.79254a46.33637,46.33637,0,0,1-20.45432,19.55751q-13.45791,6.74061-32.43126,6.73993Z" transform="translate(-36.40875 -857.93001)"/>
    </g>
  </g>
  <g>
    <path class="b" d="M1165.82577,1812.14718h32.081a3.86544,3.86544,0,0,1,3.61847,5.225l-59.19,157.539a11.22461,11.22461,0,0,1-10.50745,7.27679h-16.23342a11.2246,11.2246,0,0,1-10.50742-7.27671l-59.19121-157.539a3.86544,3.86544,0,0,1,3.61846-5.225h43.41563a4.98288,4.98288,0,0,1,4.83155,3.7642l25.94973,102.88,36.46262-102.55256A5.94948,5.94948,0,0,1,1165.82577,1812.14718Z" transform="translate(-36.40875 -857.93001)"/>
    <path class="b" d="M1247.22046,1744h4.92807a19.97888,19.97888,0,0,1,19.97888,19.97889v4.92806a19.97888,19.97888,0,0,1-19.97888,19.97888h-4.92807a19.97888,19.97888,0,0,1-19.97888-19.97888v-4.92806A19.97888,19.97888,0,0,1,1247.22046,1744Zm-15.51529,68.14718h35.95865a4.46359,4.46359,0,0,1,4.46359,4.46359V1977.7243a4.46359,4.46359,0,0,1-4.46359,4.46359h-35.95865a4.46359,4.46359,0,0,1-4.46359-4.46359V1816.61077A4.46359,4.46359,0,0,1,1231.70517,1812.14718Z" transform="translate(-36.40875 -857.93001)"/>
    <path class="b" d="M1359.52724,1984.64452a4.45721,4.45721,0,0,1-.99009-.10682q-1.92984-.43036-11.63207-2.59574a100.14087,100.14087,0,0,1-22.70809-7.94506,82.94825,82.94825,0,0,1-15.42612-9.79528,4.67778,4.67778,0,0,1-.97956-6.25325l18.27194-27.15351a4.60425,4.60425,0,0,1,6.4018-1.27679,83.51058,83.51058,0,0,0,17.8813,9.42218,60.77231,60.77231,0,0,0,21.46955,4.26013q13.2113,0,20.50537-3.52233,7.29407-3.52166,7.29463-9.74722,0-5.733-3.16579-8.68285a18.03534,18.03534,0,0,0-8.12-4.1768,112.02631,112.02631,0,0,0-13.89943-2.212q-2.47765-.32456-5.02417-.65448-2.54707-.32657-5.16077-.65581a8.01081,8.01081,0,0,0-1.16967-.24593,9.1085,9.1085,0,0,0-1.16967-.082q-15.96669-2.45529-25.5984-6.06093-9.63455-3.60027-16.30878-13.842-6.67592-10.23639-6.67479-29.73216,0-17.03579,6.88141-29.15967a44.58991,44.58991,0,0,1,19.95552-18.42872q13.07412-6.30552,31.65449-6.30687a91.73249,91.73249,0,0,1,21.675,2.62058,99.06575,99.06575,0,0,1,20.7131,7.53518,96.743,96.743,0,0,1,14.69452,8.98028,4.67931,4.67931,0,0,1,1.1309,6.41651l-17.43407,25.33486a4.60706,4.60706,0,0,1-6.14158,1.3772,82.35153,82.35153,0,0,0-15.922-7.38012,61.02063,61.02063,0,0,0-19.5423-3.439q-11.42462,0-17.75393,3.11244-6.33045,3.11244-6.33045,8.68151a7.649,7.649,0,0,0,3.3724,6.63477,22.50226,22.50226,0,0,0,8.39431,3.44035q5.023,1.06638,14.657,2.37465,1.23968.1653,2.47821.32791,1.238.1653,2.47708.32791a4.28319,4.28319,0,0,0,1.23854.164,4.41205,4.41205,0,0,1,1.23854.164q16.65087,2.296,27.1113,5.897,10.4576,3.60432,17.82279,14.41588,7.36013,10.81091,7.36351,31.78025,0,17.69093-7.15689,30.306a46.64773,46.64773,0,0,1-20.91859,19.2485q-13.76338,6.63409-33.16739,6.63343Z" transform="translate(-36.40875 -857.93001)"/>
    <path class="b" d="M1490.85461,1744h6.48532a19.20026,19.20026,0,0,1,19.20026,19.20026v6.48531a19.20025,19.20025,0,0,1-19.20026,19.20026h-6.48532a19.20025,19.20025,0,0,1-19.20026-19.20026v-6.48531A19.20026,19.20026,0,0,1,1490.85461,1744Zm-12.10811,68.14718H1509.448a7.09215,7.09215,0,0,1,7.09215,7.09215v155.85641a7.09215,7.09215,0,0,1-7.09215,7.09215H1478.7465a7.09215,7.09215,0,0,1-7.09215-7.09215V1819.23933A7.09215,7.09215,0,0,1,1478.7465,1812.14718Z" transform="translate(-36.40875 -857.93001)"/>
    <path class="b" d="M1587.06067,1975.963a58.14388,58.14388,0,0,1-25.0635-25.30943q-8.59953-16.62455-8.59953-40.05321v-27.68408q0-23.0994,8.59953-39.56135a57.88587,57.88587,0,0,1,25.0635-25.06484q16.46329-8.59954,39.72531-8.59954,23.26066,0,39.7253,8.59954a57.88891,57.88891,0,0,1,25.06485,25.06484q8.59953,16.4633,8.59953,39.56135v28.17594q0,23.26269-8.59953,39.72531a58.35559,58.35559,0,0,1-25.06485,25.14547q-16.46328,8.6842-39.7253,8.68152Q1603.52329,1984.64452,1587.06067,1975.963Zm60.694-42.50984q7.53316-7.94439,7.53518-22.36094v-28.17594q0-14.25192-7.53518-22.115-7.53719-7.86375-21.13263-7.86443-13.43349,0-20.88535,7.86443-7.45656,7.86174-7.45454,22.115v28.17594q0,14.41722,7.37256,22.36094,7.3719,7.94642,20.96733,7.94506Q1640.2188,1941.39822,1647.75465,1933.45316Z" transform="translate(-36.40875 -857.93001)"/>
    <path class="b" d="M1745.6469,1812.14718h35.856a4.51627,4.51627,0,0,1,4.51628,4.51627v160.53347a4.991,4.991,0,0,1-4.991,4.991h-34.90659a4.991,4.991,0,0,1-4.991-4.991V1816.66345A4.51627,4.51627,0,0,1,1745.6469,1812.14718Zm93.773,67.00084q0-12.44775-7.1226-19.33047-7.128-6.88-20.23357-6.88071-12.44977,0-19.24984,6.96268-6.79739,6.96471-6.79469,19.57641l-3.44035-37.67722q7.69241-16.05408,18.42738-24.08112,10.72422-8.025,26.94762-8.027,26.867,0,41.60675,18.10082,14.74782,18.10418,14.74514,51.1927v98.21285a4.991,4.991,0,0,1-4.991,4.991h-34.9039a4.991,4.991,0,0,1-4.991-4.991Z" transform="translate(-36.40875 -857.93001)"/>
  </g>
</svg>
