<svg xmlns="http://www.w3.org/2000/svg" xmlns:xlink="http://www.w3.org/1999/xlink" viewBox="0 0 1080 954.99562">
  <defs>
    <style>
      .a {
        fill: url(#a);
      }

      .b {
        fill: url(#b);
      }

      .c {
        fill: #1f5382;
      }
    </style>
    <linearGradient id="a" x1="540" y1="658.7234" x2="540" gradientUnits="userSpaceOnUse">
      <stop offset="0" stop-color="#1f5382"/>
      <stop offset="1" stop-color="#031231" stop-opacity="0"/>
    </linearGradient>
    <radialGradient id="b" cx="540" cy="526.51064" r="301.93617" gradientUnits="userSpaceOnUse">
      <stop offset="0.69744" stop-color="#5d9db8"/>
      <stop offset="1" stop-color="#1f5382" stop-opacity="0"/>
    </radialGradient>
  </defs>
  <title>imgg</title>
  <rect class="a" width="1080" height="658.7234"/>
  <circle class="b" cx="540" cy="526.51064" r="301.93617"/>
  <rect class="c" y="658.7234" width="1080" height="296.27221"/>
  <path class="c" d="M336.40427,1072.25537h0c.09817-10.30493.12448-25.8977-.34043-44.93628-.53805-22.035-1.0914-22.36554-1.36172-36.085-.787-39.94177-1.37192-69.62744,10.55319-91.91492,2.92331-5.46356,7.01495-11.261,10.89362-22.12768,2.73648-7.66669,3.63888-13.0152,8.17022-21.78723,3.665-7.095,5.71305-10.923,10.21277-12.93616,6.21741-2.78168,13.69962-.57019,18.383,2.72339,3.93283,2.76574,7.38717,7.34594,10.89361,24.85107a186.128,186.128,0,0,1,3.74469,41.53192c-.7474,18.29712-3.16971,19.58295-4.42553,35.74469-.97556,12.55469-2.55591,32.89295,5.10638,56.51062,0,.00013,6.27457,19.34021,28.04413,45.50043,2.51858,3.02649,6.36035,7.21375,12.46652,9.30811,2.9794,1.02185,5.25473,1.11914,9.53189,1.36169,17.01029.9646,11.99588,1.18335,20.08511,1.36169,17.38175.38331,26.07264.575,33.66163-.80285,16.33569-2.96582,28.38183-10.135,40.8916-17.58008a181.26787,181.26787,0,0,0,16.68084-11.23413c8.89429-6.73413,16.22718-13.5799,28.59571-26.89356C611.12531,990.92889,622.96576,978.1,637,958.89362c14.68109-20.09162,18.35974-28.81946,20.08508-33.3617,3.41535-8.99145,5.30909-17.72626,7.149-26.21277A250.712,250.712,0,0,0,669,871.06384c.347-3.25909.74231-7.64758,1.70215-14.29791,1.54132-10.67914,2.71857-14.5824,5.10638-18.38293,1.76-2.80121,3.56549-5.67493,7.14612-7.4173,3.20447-1.55927,7.24359-1.29053,15.322-.75293a14.54342,14.54342,0,0,1,5.44678,1.0213c1.81372.808,4.23175,2.45825,6.46808,6.46808,3.864,6.92828,2.25195,12.0545,4.08514,24.51062.72266,4.91028,1.36926,6.80487,2.04254,10.21277,1.484,7.51117,2.32117,18.44275-1.0213,39.82977-2.15631,13.79718-5.74158,35.77545-17.36169,62.97876-7.53028,17.62872-11.29541,26.44312-18.04254,34.04254-8.97767,10.11176-19.32953,16.31787-32.34046,34.04248-1.62933,2.21961-7.53137,10.25989-6.46808,11.23413.80091.73377,5.23975-2.82922,9.53192-6.46814,15.059-12.767,22.58851-19.15039,30.29792-29.27655A123.82931,123.82931,0,0,0,700.65955,982.383c5.43481-16.41358,5.38464-29.33014,5.10638-51.06385-.46436-36.26715-6.6543-62.60235,3.06384-67.40423,2.94464-1.455,9.958-2.22174,14.29792-2.383,4.40051-.16351,6.85131-.25458,9.19146.68085,5.70978,2.28229,7.38233,9.325,10.21277,19.40423,3.97882,14.16877,8.83264,28.07966,12.93616,42.21277,2.69562,9.28418,3.46539,11.78717,4.358,16.51862,1.49713,7.93622,1.87018,14.35211,2.11011,24.67291.41,17.63922.61511,26.45886,0,33.70209-1.49512,17.60663-5.26087,30.83069-8.17023,40.85107-4.6272,15.93689-6.9408,23.9054-10.55316,29.27661-16.05072,23.866-62.12775,19.75354-75.23407,18.72339-56.58777-4.44787-170.17807-4.22815-330.55316-2.0426" transform="translate(0 -400.93617)"/>
</svg>
