<svg xmlns="http://www.w3.org/2000/svg" xmlns:xlink="http://www.w3.org/1999/xlink" viewBox="0 0 1979.71616 1257.85802">
  <defs>
    <style>
      .a {
        fill: url(#a);
      }

      .b {
        fill: url(#b);
      }

      .c {
        mask: url(#c);
      }

      .d {
        fill: url(#d);
      }

      .e {
        fill: #1f5382;
      }

      .f {
        fill: #fff;
      }
    </style>
    <linearGradient id="a" x1="537.94305" y1="1158.66055" x2="537.94305" y2="391.98881" gradientUnits="userSpaceOnUse">
      <stop offset="0.25026"/>
      <stop offset="0.26834" stop-color="#090909"/>
      <stop offset="0.42913" stop-color="#525252"/>
      <stop offset="0.58018" stop-color="#909090"/>
      <stop offset="0.71695" stop-color="silver"/>
      <stop offset="0.83687" stop-color="#e2e2e2"/>
      <stop offset="0.9353" stop-color="#f7f7f7"/>
      <stop offset="1" stop-color="#fff"/>
    </linearGradient>
    <linearGradient id="b" x1="989.85808" y1="933.4467" x2="989.85808" gradientUnits="userSpaceOnUse">
      <stop offset="0.07385" stop-color="#1f5382"/>
      <stop offset="0.16872" stop-color="#1d4e7c" stop-opacity="0.84"/>
      <stop offset="0.97128" stop-color="#1d4e7c" stop-opacity="0"/>
    </linearGradient>
    <mask id="c" x="584.46884" y="296.82736" width="809.52916" height="818.78512" maskUnits="userSpaceOnUse">
      <g transform="translate(451.29037 -95.16145)">
        <rect class="a" x="133.17847" y="391.98881" width="809.52916" height="766.67174"/>
      </g>
    </mask>
    <radialGradient id="d" cx="989.85809" cy="776.22506" r="339.38741" gradientUnits="userSpaceOnUse">
      <stop offset="0.69744" stop-color="#67a7c2"/>
      <stop offset="1" stop-color="#1f5382" stop-opacity="0"/>
    </radialGradient>
  </defs>
  <title>imgg</title>
  <rect class="b" width="1979.71616" height="933.4467"/>
  <g class="c">
    <circle class="d" cx="989.85809" cy="776.22506" r="339.38741"/>
  </g>
  <rect class="e" x="0.00001" y="924.8371" width="1979.71615" height="333.02092"/>
  <path class="e" d="M309.7186,1034.15674c-1.53726-13.51734-2.976-30.546-3.442-50.26312-.41513-17.5647.098-30.65229.51065-40.72339,1.14124-27.85187,2.80429-68.43885,12.88025-103.40021,2.49915-8.67151,3.23068-9.06787,8.11975-25.28064,4.2312-14.03119,5.48288-19.702,10.46808-27.19153,3.69476-5.55078,7.2753-10.93005,14.29788-13.53192,7.21555-2.6734,16.15534-1.70721,22.34043,2.80853,4.74591,3.465,7.28421,8.59229,10.58981,30.28754,3.13647,20.5852,4.85455,30.88324,4.20917,46.68341-.84009,20.56665-3.56287,22.012-4.97446,40.17834-1.09656,14.11194-2.87293,36.97291,5.73978,63.52,0,.00013,7.05282,21.73914,31.52261,51.14417,2.831,3.40192,7.14929,8.10852,14.01285,10.46265,3.34894,1.14862,5.90649,1.258,10.7142,1.53064,19.12018,1.08422,13.4838,1.33007,22.57639,1.53057,19.53775.43085,29.30661.64624,37.83691-.90246,18.36191-3.33368,31.90225-11.39209,45.96365-19.76062a203.74817,203.74817,0,0,0,18.74994-12.62763c9.9975-7.56939,18.23993-15.26428,32.14258-30.22931,14.53815-15.649,27.84723-30.06915,43.62225-51.65789,16.50208-22.58374,20.637-32.39417,22.57636-37.49976,3.839-10.10675,5.96759-19.925,8.03577-29.46411A281.81168,281.81168,0,0,0,683.56848,808.01c.39008-3.66333.83441-8.59613,1.91327-16.07135,1.73248-12.00372,3.05579-16.39118,5.73975-20.66309a25.33506,25.33506,0,0,1,8.03253-8.33734c2.44372-1.54516,9.67627-5.48761,17.15021-3.1084a21.56977,21.56977,0,0,1,6.19464,3.4101,26.79,26.79,0,0,1,7.27032,7.27032c4.34332,7.78766,2.53131,13.54975,4.59186,27.55085.81232,5.51934,1.53912,7.64892,2.2959,11.47955,1.66809,8.44281,2.60907,20.73028-1.148,44.77014-2.42377,15.50854-6.45374,40.21289-19.51514,70.79041-8.46435,19.81536-12.69647,29.72308-20.28052,38.26507-10.09118,11.366-21.72711,18.34192-36.35186,38.265-1.83143,2.49493-8.46552,11.53253-7.27033,12.62762.90021.82477,5.88965-3.18018,10.71423-7.27045,16.92688-14.35052,25.39026-21.52575,34.056-32.908a139.18772,139.18772,0,0,0,22.19367-40.9436c6.10895-18.44946,6.05255-32.9682,5.73974-57.39764-.52191-40.76563-7.47967-70.36737,3.44391-75.7649,3.30988-1.63543,11.19318-2.49731,16.07135-2.67858,4.94635-.18378,7.70118-.28614,10.33161.76532,6.418,2.56536,8.298,10.48156,11.47949,21.81109,4.47235,15.92621,9.92822,31.56256,14.54071,47.44873,3.03,10.43573,3.89526,13.24921,4.89856,18.56751,1.6828,8.92059,2.10211,16.13232,2.37183,27.73327.46087,19.82715.6914,29.74073,0,37.88239-1.68061,19.79046-5.9134,34.65484-9.18366,45.91809-5.20111,17.9137-7.8017,26.8706-11.86212,32.908-18.04163,26.82629-69.83392,22.20373-84.56592,21.04577-63.60675-4.99963-191.28641-4.75256-371.554-2.29589" transform="translate(451.29037 -95.16145)"/>
  <path class="f" d="M307.5903,1012.35547c.28189-.02948.40634-2.00025-.16476-17.164-.26474-7.029-.3971-10.54352-.63831-15.19147-.80224-15.45819-.10577-20.72485-.34042-42.55316-.22931-21.33222-1.01068-17.68274-.68085-27.57453a249.77981,249.77981,0,0,1,5.10638-41.19146,216.64748,216.64748,0,0,1,6.80851-26.21277c3.16208-9.52942,4.45016-11.79736,8.51065-24.85108,2.23047-7.17053,2.682-9.29174,4.93616-15.91485,3.726-10.94739,6.27883-16.27728,5.95745-16.42554-.59539-.27466-9.63336,17.89246-14.29788,28.93616-3.82144,9.04767-6.10626,15.92157-6.8085,18.04254-2.95007,8.91016-4.61359,15.73077-6.12766,22-1.95553,8.09717-3.8601,15.9834-5.36172,26.17023-1.86569,12.65655-2.10986,22.084-2.46808,35.91491-.21905,8.45728-.14835,14.81482-.007,27.52991.12122,10.90088.35382,19.78491.68784,28.29987a244.6458,244.6458,0,0,0,2.68359,29.982C305.64566,1003.811,306.99445,1012.41779,307.5903,1012.35547Z" transform="translate(451.29037 -95.16145)"/>
  <path class="f" d="M331.89362,814.04254c.56012.10266,5.30374-17.92859,8.93615-26.29785a31.78585,31.78585,0,0,1,4.75916-7.76831,16.27209,16.27209,0,0,1,2.30469-2.44446c1.42477-1.15643,4.24493-2.81738,12-2.55322,6.33374.21576,9.56631.32587,12.766,2.0426,2.17068,1.16467,5.78079,3.84924,10.72339,20.68085,2.39535,8.1571,4.73141,16.11236,5.617,27.82977.49246,6.5155.15808,12.76923-.51065,25.27661-.572,10.69715-1.34064,19.16211-2.04254,26.80847-1.66309,18.11707-2.24756,19.30719-2.55319,28.08515a152.7073,152.7073,0,0,0,.51065,23.234,137.39508,137.39508,0,0,0,7.40423,31.91491,134.39845,134.39845,0,0,0,12.766,26.29786c5.09818,7.99194,9.34235,14.64514,17.40607,21.239,5.00217,4.09039,15.41895,12.38238,29.062,12.46313,4.999.02961,10.98572-1.04,10.97873-1.78723-.00522-.55774-3.3472-.71759-7.14893-1.53192-6.25643-1.34009-10.50488-3.75574-15.57446-6.6383-19.79623-11.25611-29.87228-25.53186-29.87234-25.53193-6.17005-8.74169-8.67069-16.267-13.27661-30.12762-2.428-7.30658-4.83258-14.66925-6.12766-24.766-1.28824-10.04334-.8013-17.51123,0-28.85108.95822-13.5603,1.933-14.17822,3.8298-31.91485,1.63184-15.25946,2.54288-24.12177,2.04255-36.25531a185.64147,185.64147,0,0,0-2.5532-23.23407c-2.78918-17.76959-5.969-25.67816-9.70211-31.91492-3.07431-5.13617-5.77478-7.88708-9.1915-9.70209-5.41449-2.87622-10.881-2.47412-13.27658-2.29791a22.47248,22.47248,0,0,0-10.72342,3.06384c-3.67789,2.28675-5.36344,5.13721-8.42554,10.46808a78.32556,78.32556,0,0,0-8.34042,21.10639C332.0239,807.97583,331.57565,813.98425,331.89362,814.04254Z" transform="translate(451.29037 -95.16145)"/>
  <path d="M310.31262,987.0127c.502,4.122,1.04529,7.37451,1.04532,7.37463.24622,1.47394.33011,1.83789.53568,3.14459.57925,3.682,1.131,7.18915.68084,7.31915-.50634.14624-2.349-3.96063-3.57446-8.17022a54.65744,54.65744,0,0,1-1.87234-11.14893c-.63932-7.03906-.80262-12.45276-.85108-14.04254-.47623-15.62067-.548-12.46808-.68085-19.57446-.16626-8.89557-.37356-21.28308.51065-37.44684.55542-10.15357,1.31458-17.6474,1.53193-19.74469a273.255,273.255,0,0,1,4.08511-28.25531c1.50644-7.40814,3.05826-13.24249,4.42551-18.383.37243-1.40027,1.55566-5.81872,4.766-16.51062,8.86712-29.53186,8.40963-24.36358,10.383-33.0213,1.5947-6.99646,2.20633-11.74426,5.95743-17.53186a48.2609,48.2609,0,0,1,7.65958-8.85107c3.71048-3.46674,5.96951-5.5774,9.70214-6.97876,5.48627-2.05976,10.42338-1.18585,13.27659-.68085a27.44119,27.44119,0,0,1,12.766,5.44684c1.088.87543,5.00888,4.18884,9.36169,15.31915,2.0878,5.33862,3.66016,10.9035,5.27661,20.08508a198.75015,198.75015,0,0,1,3.06381,26.383,250.04115,250.04115,0,0,1-1.02127,35.234c-1.65545,17.66974-3.38348,19.101-4.42553,35.74469a166.92321,166.92321,0,0,0-.1702,24.68085,125.41512,125.41512,0,0,0,5.44681,29.95745c2.15512,6.5774,10.876,33.1933,35.06381,48.51062,17.11115,10.83594,35.13287,11.6922,34.89362,12.766-.1742.78179-9.711.253-19.57447-2.89362-19.58041-6.24646-31.06595-19.81616-35.74469-25.48938-11.74844-14.24554-15.80127-28.3681-18.55319-37.95746a131.20967,131.20967,0,0,1-4.89361-34.25531c-.18134-7.85644.41812-13.93268,1.617-26.08508,2.419-24.51965,4.62289-27.59644,4.72342-43.0213a212.92472,212.92472,0,0,0-1.27661-22.9787c-.9314-9.7431-1.9939-15.60779-4-26.68085-1.54025-8.50177-2.53388-12.619-5.02127-17.48938-1.85746-3.637-3.72913-7.30182-7.74469-10.51062-.52661-.42084-10.54-8.17438-21.27658-4.59576-4.03351,1.34442-6.61649,3.77069-8.80854,5.82977-1.4414,1.35394-4.66424,4.63355-8.12765,11.91492-1.80509,3.795-2.34482,5.87939-5.87235,18.55316-3.84716,13.82226-4.34137,15.425-5.02127,17.44684-2.73211,8.12451-3.90963,9.47571-6.46808,16.34039-3.01379,8.08655-4.30706,14.21375-6.89361,26.46814-1.39874,6.62689-3.27588,15.6181-4.68085,27.06378-1.35831,11.06555-1.52963,22.35578-1.87234,44.93622,0,.00012-.23371,15.398.34042,33.87231C309,969.10651,309.29739,978.67621,310.31262,987.0127Z" transform="translate(451.29037 -95.16145)"/>
  <path d="M328.42554,818.19147h0c.01053,1.13733.18377,5.11419,3.12765,7.72345,2.80441,2.48559,6.40308,2.20562,9.31915,1.9787,1.49274-.11615,13.02872-1.19776,18.766-10.65955,1.66357-2.74353,2.19415-6.4248,3.25531-13.78723,1.27581-8.85187,1.87292-13.35053-.12766-16.91492-2.20074-3.921-7.04767-7.81988-11.8085-7.65961-1.97827.06659-3.89288.8324-4.08512.383-.2106-.49231,1.75446-2.18854,4.02128-2.87231,4.66217-1.40632,9.25354,1.87658,10.02127,2.42553a16.46148,16.46148,0,0,1,5.80853,8.17017c1.25345,3.47644,1.04837,6.65808.63827,13.0213-.30673,4.75909-.51879,8.04987-1.851,12.383a27.82837,27.82837,0,0,1-4.46811,9.57446A25.8174,25.8174,0,0,1,350,830.06384c-2.45514,1.0318-8.05063,3.38336-14.48935,1.9787a18.45006,18.45006,0,0,1-6.44681-2.80847c-1.89364-1.22443-3.37039-2.21051-3.70215-3.95746a5.12839,5.12839,0,0,1,1.02128-3.766" transform="translate(451.29037 -95.16145)"/>
  <path class="f" d="M479.63831,1018.17023c-.0286.496,6.7214,1.48822,13.27658,1.78723a102.909,102.909,0,0,0,15.19149-.51062,116.35528,116.35528,0,0,0,17.74469-3.19153c18.205-4.955,34.28724-18.30011,38.55317-21.95746,16.19366-12.21832,26.82544-22.94311,39.57281-35.90607a427.45459,427.45459,0,0,0,35.23572-39.66839c11.20874-14.42023,17.7951-22.89368,24.51062-36.51062a180.96578,180.96578,0,0,0,13.53192-38.29785,335.20241,335.20241,0,0,0,6.31317-35.905c1.417-11.0351,2.46088-22.83,9.13367-35.83972,2.25079-4.38831,4.97851-8.59607,9.9574-10.85108,7.14135-3.23443,14.37262-.39447,15.70214.12769,1.64972.64789,7.0282,2.76019,10.08515,8.17016,1.57373,2.785,1.83649,5.63929,2.29785,11.23407.82648,10.02277-.43774,14.92463.89362,15.31916,1.26763.37567,3.98846-3.60175,4.97869-7.65961a16.78215,16.78215,0,0,0,.12769-7.02124c-1.808-10.60944-2.712-15.91418-7.0213-20.42554-6.648-6.95971-15.91724-7.29278-19.02124-7.40429-2.89923-.10419-8.97333-.2453-14.93622,3.31915-6.23334,3.72613-8.83453,9.403-11.617,15.70215-2.61084,5.9107-4.03144,13.8081-6.76593,29.36169-.46808,2.66242-.25837,1.57172-1.91492,11.3617-2.1543,12.73169-3.23151,19.09753-3.70215,21.57446a175.77466,175.77466,0,0,1-8.42548,29.36175c-5.17242,13.27161-10.98028,22.31421-16.72345,31.14893-7.29754,11.22577-14.79406,20.10461-29.48931,37.40424-11.80286,13.89459-17.70423,20.84185-25.02131,28.21276-9.935,10.00818-20.30432,20.34369-36.25531,31.02131-9.64721,6.45788-21.67968,14.62628-36.12768,18.63824-3.46289.96161-8.38721,2.05652-17.70212,4.12769-8.0694,1.79425-11.20456,2.3695-15.34045,2.70892C482.47781,1017.94745,479.65674,1017.85065,479.63831,1018.17023Z" transform="translate(451.29037 -95.16145)"/>
  <path d="M479.63831,1018.17023c-.11445-.62982,22.197-2.64295,46.72338-12.29792a164.68662,164.68662,0,0,0,32.51062-17.19146c10.85724-7.418,17.54285-13.944,28.08515-24.3404,15.85705-15.63769,13.51233-15.85882,45.78723-52.93621,5.44025-6.24976,12.437-14.20472,19.36169-26.51062a154.39348,154.39348,0,0,0,8.55317-18.12769c1.57562-3.95642,6.34478-16.37842,10.21276-37.65955,2.24927-12.37524,1.019-10.27874,3.70215-27.70214,4.56226-29.62525,8.24677-36.5149,13.40424-41.48932a29.98271,29.98271,0,0,1,14.80853-8.17023,29.40427,29.40427,0,0,1,13.91492.63831c3.26373.87176,11.11951,2.97021,16.08508,10.02124,1.83435,2.60473,2.79736,6.311,4.72339,13.72345,1.19989,4.61792,1.5625,7.042.89362,10.02124-1.3678,6.09216-6.43842,10.25305-6.76593,10.0213-.2193-.15515,1.23346-2.60169,1.65954-3.31916,1.81793-3.06134,2.77735-3.56018,3.31915-5.29791.42566-1.36511.1673-2.50372-.19146-4.91485a51.26432,51.26432,0,0,0-2.68085-10.27662c-2.41766-6.33355-3.62653-9.50036-5.36169-11.48938-6.75007-7.73742-18.54511-6.95459-20.42554-6.82977a26.01382,26.01382,0,0,0-11.74469,3.44684c-5.85816,3.43616-8.64954,8.33954-10.53192,11.74469-2.59284,4.69037-3.63507,8.75281-5.3617,18.12762-2.11078,11.46076-3.29352,20.26844-3.57446,22.34046-1.75348,12.93176-2.82825,20.858-4.85107,29.87231a163.12848,163.12848,0,0,1-11.3617,34.46808c-4.717,10.14148-9.2475,16.8739-16.08508,26.93616a375.38442,375.38442,0,0,1-25.53192,33.19153c-16.28791,19.12072-28.85584,33.87445-49.149,49.53192-8.21716,6.34009-17.89819,13.72034-32.42548,20.55316a141.4346,141.4346,0,0,1-35.36172,11.48938c-4.13751.663-11.97662,1.50232-15.8298,1.91486C480.105,1018.30664,479.65427,1018.25812,479.63831,1018.17023Z" transform="translate(451.29037 -95.16145)"/>
  <path d="M658.23407,1005.9787c-1.30615,1.27423-2.78564,2.53033-5.74469,5.0426-3.25146,2.7605-4.2652,3.4798-4.65961,3.19147-.5202-.38031.303-2.31934.51068-2.80853a14.62213,14.62213,0,0,1,4.21271-5.55317c.94025-.73065,9.8396-10.551,27.63831-30.19152a186.57592,186.57592,0,0,0,14.68084-17.9574C705.20538,943.17,710.626,930.4303,714.95746,920.08508c5.532-13.21277,8.41772-23.40435,11.57446-34.55316,3.319-11.722,5.35407-19.0293,6.63831-29.44684a167.96948,167.96948,0,0,0,1.02124-26.21277c-.48047-18.09838-.72077-27.14764-1.87232-30.21276-.34393-.91547-1.80615-4.54877-.42553-5.87232a1.7134,1.7134,0,0,1,1.617-.42554c.96753.31775,1.26843,1.81134,1.53192,3.40424a86.63976,86.63976,0,0,1,1.0213,9.61707c.13855,2.91613.12873,1.10858.3404,5.36169.2611,5.24591.67157,13.49286.68084,21.70215.01111,9.82178.0196,17.31781-1.27655,26.63824-1.09186,7.85132-3.28113,15.36188-7.6596,30.383-2.7638,9.48157-4.53034,15.54187-7.57447,23.91492a211.924,211.924,0,0,1-12.17022,28.42553C704.377,950.46637,700.27808,958.26062,693,967.31915c-7.16791,8.92139-13.73541,14.48383-22.04254,24.42554-2.12866,2.54749-3.70276,4.33661-6.85108,7.91486C661.44739,1002.6817,660.08057,1004.17731,658.23407,1005.9787Z" transform="translate(451.29037 -95.16145)"/>
  <path d="M732.98,792.85c-.204-3.05225-.53723-5.37391-.77-6.96-.20129-1.37176-.495-3.01971-1.08233-6.31555-.33521-1.88073-.50275-2.8211-.6175-3.377a55.22528,55.22528,0,0,0-1.95166-7.02728,10.84366,10.84366,0,0,0-.47876-1.16492,12.21208,12.21208,0,0,0-.76593-1.34039A11.60182,11.60182,0,0,0,721.85,763.11a16.65436,16.65436,0,0,0-6.64-.68c-1.71.07-4.33.2-4.89,1.51a6.86174,6.86174,0,0,0-.32,1.4,10.0378,10.0378,0,0,0-.07,1.64,49.40261,49.40261,0,0,1-.38,5.7s-.28,3.48-.34,7.53a61.249,61.249,0,0,0,.26,8.09c.48,4.11.89,7.6,3.15,11.06.24.37,4.43,6.59,11.81,7.6,1.03.14,6.12.85,7.97-1.79.29-.41.51-.9.64-4.21A65.46155,65.46155,0,0,0,732.98,792.85Zm-2.81,10.92c-1.49,1.82-7.37.02-11.3-2.75a18.62442,18.62442,0,0,1-6.44-8.11c-1.03-2.5-1.13-4.62-1.34-8.87-.39-7.74.81994-12.03,1.53-14.1.93-2.72,1.66-4.44,3.38-5.17,2.82-1.21,6.79,1.02,8.83,3.7a11.052,11.052,0,0,1,1.8855,4.30249,19.91253,19.91253,0,0,1,.65118,2.28522q.03643.16461.06958.32751c.03674.119.08966.29523.14819.51007a15.80082,15.80082,0,0,1,.34986,1.61029c.12536.74781.4154,2.22669.83569,4.30445a105.50449,105.50449,0,0,1,1.53,12c.18,3.66-.14,2.81.05,6.83C730.45,802.83,730.55,803.3,730.17,803.77Z" transform="translate(451.29037 -95.16145)"/>
  <path d="M728.22,769.16a13.32393,13.32393,0,0,0-.67-1.95A6.45062,6.45062,0,0,1,728.22,769.16Z" transform="translate(451.29037 -95.16145)"/>
</svg>
