<svg xmlns="http://www.w3.org/2000/svg" xmlns:xlink="http://www.w3.org/1999/xlink" viewBox="0 0 1979.71615 1073.45036">
  <defs>
    <style>
      .a {
        fill: url(#a);
      }

      .b {
        fill: url(#b);
      }

      .c {
        mask: url(#c);
      }

      .d {
        fill: url(#d);
      }

      .e {
        fill: #1f5382;
      }
    </style>
    <linearGradient id="a" x1="537.94305" y1="1158.66055" x2="537.94305" y2="391.98881" gradientUnits="userSpaceOnUse">
      <stop offset="0.25026"/>
      <stop offset="0.26834" stop-color="#090909"/>
      <stop offset="0.42913" stop-color="#525252"/>
      <stop offset="0.58018" stop-color="#909090"/>
      <stop offset="0.71695" stop-color="silver"/>
      <stop offset="0.83687" stop-color="#e2e2e2"/>
      <stop offset="0.9353" stop-color="#f7f7f7"/>
      <stop offset="1" stop-color="#fff"/>
    </linearGradient>
    <linearGradient id="b" x1="989.85808" y1="749.03909" x2="989.85808" gradientUnits="userSpaceOnUse">
      <stop offset="0.07385" stop-color="#1f5382"/>
      <stop offset="0.16872" stop-color="#1d4e7c" stop-opacity="0.84359"/>
      <stop offset="1" stop-color="#031231" stop-opacity="0"/>
    </linearGradient>
    <mask id="c" x="584.46883" y="112.41971" width="809.52916" height="818.78512" maskUnits="userSpaceOnUse">
      <g transform="translate(451.29037 -279.5691)">
        <rect class="a" x="133.17847" y="391.98881" width="809.52916" height="766.67174"/>
      </g>
    </mask>
    <radialGradient id="d" cx="989.85808" cy="591.81741" r="339.38741" gradientUnits="userSpaceOnUse">
      <stop offset="0.69744" stop-color="#67a7c2"/>
      <stop offset="1" stop-color="#1f5382" stop-opacity="0"/>
    </radialGradient>
  </defs>
  <title>imgg</title>
  <rect class="b" width="1979.71615" height="749.03909"/>
  <g class="c">
    <circle class="d" cx="989.85808" cy="591.81741" r="339.38741"/>
  </g>
  <rect class="e" y="740.42945" width="1979.71615" height="333.02092"/>
  <path class="e" d="M309.71858,1034.15669h0c.11036-11.58312.13993-29.11-.38264-50.51-.6048-24.76819-1.22678-25.13969-1.53063-40.5609-.88461-44.896-1.54209-78.26381,11.86217-103.31576,3.28591-6.14125,7.88507-12.65777,12.24483-24.87234,3.07591-8.61764,4.09024-14.62956,9.18364-24.48965,4.1196-7.975,6.42167-12.27783,11.47953-14.54072,6.98859-3.12671,15.39887-.64091,20.66313,3.06119,4.42065,3.1088,8.30346,8.25712,12.24483,27.93353a209.21582,209.21582,0,0,1,4.20917,46.68341c-.84012,20.56664-3.56287,22.012-4.97447,40.17835-1.09656,14.11194-2.87294,36.97289,5.73976,63.52,0,.00014,7.05285,21.73911,31.52264,51.14416,2.831,3.40189,7.14927,8.10852,14.01283,10.46265,3.349,1.1486,5.90651,1.258,10.7142,1.5306,19.12019,1.08425,13.48381,1.33013,22.57641,1.53059,19.53772.43085,29.3066.64627,37.83691-.90244,18.36192-3.33369,31.90223-11.39212,45.96367-19.76065a203.75464,203.75464,0,0,0,18.74988-12.62758c9.99751-7.56941,18.24-15.26431,32.14263-30.22935,14.53811-15.649,27.84722-30.06916,43.62223-51.65788,16.50209-22.58372,20.637-32.39414,22.57637-37.49978,3.839-10.10673,5.96761-19.925,8.03573-29.46412a281.8135,281.8135,0,0,0,5.35708-31.76c.39009-3.66335.83438-8.59617,1.91328-16.07139,1.7325-12.00374,3.05577-16.39115,5.73976-20.66309,1.97825-3.14866,4.00775-6.37883,8.0325-8.33732,3.60194-1.75267,8.14207-1.4506,17.22245-.84632,3.17453.21124,4.56345.45348,6.12238,1.148,2.03869.90827,4.75665,2.76317,7.27036,7.27036,4.34329,7.78765,2.53128,13.54971,4.59185,27.55084.8123,5.51934,1.53911,7.64893,2.2959,11.47953,1.66808,8.44283,2.60907,20.73033-1.148,44.77014-2.42378,15.50854-6.45375,40.21293-19.51519,70.79045-8.46431,19.81534-12.69646,29.723-20.28048,38.26508-10.09123,11.366-21.72711,18.34189-36.35187,38.265-1.83143,2.49492-8.46554,11.5325-7.27036,12.62758.90025.82478,5.88967-3.18015,10.71423-7.27043,16.9269-14.35054,25.39031-21.52574,34.056-32.90792A139.18885,139.18885,0,0,0,719.155,933.13682c6.10893-18.44947,6.05254-32.96816,5.73976-57.39765-.52195-40.76562-7.47967-70.36736,3.44388-75.76485,3.30988-1.63542,11.19316-2.49732,16.07138-2.67857,4.94634-.1838,7.70113-.28616,10.33155.76529,6.418,2.56538,8.298,10.48159,11.47953,21.81108,4.47234,15.92621,9.92821,31.56257,14.54072,47.44871,3.03,10.43576,3.89522,13.24922,4.89852,18.56754,1.68283,8.9206,2.10215,16.1323,2.37183,27.73326.4609,19.82714.69141,29.74074,0,37.88239-1.68056,19.79051-5.9134,34.65484-9.18363,45.91812-5.20114,17.91365-7.80171,26.87055-11.86215,32.908-18.0416,26.82623-69.83388,22.20371-84.56587,21.04578-63.60674-4.99957-191.28644-4.75259-371.554-2.296" transform="translate(451.29037 -279.5691)"/>
</svg>
