<svg xmlns="http://www.w3.org/2000/svg" xmlns:xlink="http://www.w3.org/1999/xlink" viewBox="0 0 1979.71615 821.02038">
  <defs>
    <style>
      .a {
        fill: url(#a);
      }

      .b {
        fill: #fff;
      }

      .c {
        fill: none;
      }

      .d {
        clip-path: url(#b);
      }

      .e {
        mask: url(#c);
      }

      .f {
        fill: url(#d);
      }

      .g {
        fill: #1f5382;
      }

      .h {
        clip-path: url(#e);
      }

      .i {
        mask: url(#f);
      }

      .j {
        clip-path: url(#g);
      }

      .k {
        fill: url(#h);
      }
    </style>
    <linearGradient id="a" x1="537.94305" y1="1158.66055" x2="537.94305" y2="391.98881" gradientUnits="userSpaceOnUse">
      <stop offset="0.25026"/>
      <stop offset="0.26834" stop-color="#090909"/>
      <stop offset="0.42913" stop-color="#525252"/>
      <stop offset="0.58018" stop-color="#909090"/>
      <stop offset="0.71695" stop-color="silver"/>
      <stop offset="0.83687" stop-color="#e2e2e2"/>
      <stop offset="0.9353" stop-color="#f7f7f7"/>
      <stop offset="1" stop-color="#fff"/>
    </linearGradient>
    <clipPath id="b" transform="translate(451.29037 -531.99908)">
      <rect class="c" x="-451.29037" y="95.16145" width="1979.71616" height="933.4467"/>
    </clipPath>
    <mask id="c" x="584.46883" y="-140.01028" width="809.52916" height="818.78512" maskUnits="userSpaceOnUse">
      <g transform="translate(451.29037 -531.99908)">
        <rect class="a" x="133.17847" y="391.98881" width="809.52916" height="766.67174"/>
      </g>
    </mask>
    <radialGradient id="d" cx="989.85808" cy="339.38742" r="339.38742" gradientUnits="userSpaceOnUse">
      <stop offset="0.66648" stop-color="#71b1cc"/>
      <stop offset="0.69744" stop-color="#67a7c2"/>
      <stop offset="1" stop-color="#1f5382" stop-opacity="0"/>
    </radialGradient>
    <clipPath id="e" transform="translate(451.29037 -531.99908)">
      <path class="c" d="M726.95,762.94c-7.71,9.14-13.46,23.42-20.33,41.4-19.87,51.98-24.67,71.03-31.66,88.85-5.46,13.91-29.15,74.33-82.22,105.7-26.17,15.48-33.06,8.26-117.44,31.15-16.16,4.38989-29.81,8.09-40.96,11.28992-65.78-34.36-110.15-99.38-110.15-173.93,0-110.41,97.33-199.91,217.39-199.91C620,667.49,688.72,705.68,726.95,762.94Z"/>
    </clipPath>
    <mask id="f" x="770.51253" y="119.14984" width="434.11493" height="389.10645" maskUnits="userSpaceOnUse">
      <g transform="translate(451.29037 -531.99908)">
        <g>
          <path class="b" d="M728.23,764.17c-1.54,1.21-15.33-15.45-28.59-28.6,0,0-3.06-2.96-6.92-6.56-27.52-25.71-61.85-42.12-61.85-42.12-5.08-2.43-11.74-5.57-19.91-8.74a201.93316,201.93316,0,0,0-59.07-13.38c-14.74-1.06-54.84-3.46-96,16.68005a164.4699,164.4699,0,0,0-15.81,9.28c-6.82,4.38-15.49,10.19-27.08,17.95-28.86,19.33-37.46,27.2-43.23,33.02-14.41,14.52-23.23,28.36-23.83,27.92-.5-.36,5.34-9.61,11.57-18.05a201.85706,201.85706,0,0,1,24.85-27.91c9.78-9.03,17.62-14.4,28.94-22.13,10.57-7.22,17.95-12.27,26.21-16.77,2.49-1.36005,5.07-2.68,7.83-3.99,17.73-8.41,32.44-11.52,47.66-14.64,11.9-2.44,28.35-5.73,49.7-5.79a216.99212,216.99212,0,0,1,63.45,9.38c5.16,1.57,9.68,3.15,13.49,4.58,27.8,10.46,45.17,23.49,64.68,38.13,8.26,6.2,25.37,19.65,38.81,41.19C724.49,755.8,729.23,763.4,728.23,764.17Z"/>
          <path class="b" d="M682.95746,727.40424c-5.14642-.29456-8.65631-.49543-11.91492,1.70214-2.95733,1.99445-2.906,4.07489-6.46808,5.78724-3.09747,1.489-4.17968.41742-7.14892,2.04254a13.46957,13.46957,0,0,0-5.44684,5.78723c-1.98474,4.242.287,6.10852-1.3617,9.53192-1.71893,3.56921-5.84338,4.97687-10.21276,6.46808-6.74018,2.30035-9.06849.76276-11.91486,3.4043-2.61334,2.42523-3.02209,5.92211-3.4043,9.19146-.11657.99744-1.10022,9.986,2.04261,11.234,3.53991,1.4057,8.91919-8.3573,12.5957-6.80847.91919.38721,1.01355,1.17889,3.4043,7.48938,2.33337,6.15906,2.82055,6.928,3.74462,7.48932,2.63959,1.60339,7.15265.48578,9.53193-2.04254,2.90411-3.08606,3.49408-9.19306,1.70214-13.27661-.43676-.9953-1.12414-2.119-.655-3.1496.69721-1.53162,3.0185-.81366,5.08057-1.95679,3.9632-2.197,1.45819-8.21387,5.78723-12.93616a13.17129,13.17129,0,0,1,7.14893-3.74469c3.073-.63214,5.39953-.057,8.14355.62128,1.51734.37506,1.72083.57965,1.72882.74042.0387.7763-4.44543,1.18988-10.21276,3.74469-3.701,1.63946-4.21222,2.51367-4.42554,3.06384-.20752.53522-.36615,1.36493,1.02124,6.80853.74036,2.905.91553,3.17859.68085,3.74469-.886,2.13764-4.52442.98981-7.14893,3.40424-2.221,2.04315-3.06464,6.03815-1.70215,7.48938,2.26721,2.41486,10.44885-2.42108,11.23407-1.0213.48517.86487-2.77637,2.46478-4.08508,6.80853a11.76512,11.76512,0,0,0-.4162,5.6377c.44434,2.38739,1.513,3.43817,1.09705,3.89416-.89789.98444-5.61133-4.205-10.21277-3.06378-2.41687.59943-4.78449,2.94073-4.766,5.10638.02185,2.55439,3.35009,3.30585,3.74469,6.80848.16632,1.47613-.17951,3.52069-1.02124,3.74469-2.3509.62561-4.9621-13.90839-11.91492-14.9787-4.91834-.75714-8.20117,5.80926-12.93616,4.08508a7.01466,7.01466,0,0,1-4.08514-4.42554c-1.02234-3.52887,1.98858-6.14538.68084-7.82977-.99011-1.27533-3.83612-1.2179-5.44677,0-.82263.622-1.265,1.50293-2.04254,5.44684-1.1518,5.84259-.62531,6.16345-1.3617,7.14892-1.76794,2.36591-5.1416.97016-11.91492,2.04255-1.22406.19378-10.87616,1.72192-11.23407,4.76593-.37292,3.1712,9.67579,5.14581,9.53193,9.19152-.0586,1.64808-1.7616,2.31739-7.48932,6.12763-9.48639,6.31061-11.71247,9.063-12.93622,10.89361-1.58533,2.37153-3.27252,4.89539-2.72339,7.82984,1.01721,5.43591,9.17407,9.4245,13.95746,7.48932,3.04748-1.23291,2.40271-3.93036,6.80853-7.82978,1.33808-1.18426,6.23407-5.51745,10.55316-4.42553,2.97431.75189,3.2309,3.45862,7.14893,9.19146,6.57068,9.61438,10.80548,9.2544,11.91492,14.97876,1.25689,6.48511-3.30274,11.4643-1.70215,12.59577,1.355.95788,6.23053-1.47443,7.82977-5.44684,3.63312-9.02423-11.47845-21.43323-9.53186-23.48938,1.18225-1.24878,8.51324,1.47266,12.5957,7.48938,4.3404,6.39685,1.69214,11.63043,6.46808,17.0213.39972.45117,5.13477,5.68781,9.23407,5.02124,7.538-1.22571,10.44806-22.00915,19.02124-76.17023,3.69672-23.35412,5.72693-35.12713,14.63831-39.82977,11.5133-6.07568,25.14441,3.602,27.91491-1.02124,2.91358-4.862-9.7489-19.59064-23.48938-25.87237A42.07779,42.07779,0,0,0,682.95746,727.40424Z"/>
          <path class="b" d="M652.65955,887.06384c-7.43549-3.2008-12.383,2.64344-17.3617,0-3.83349-2.0354-5.34155-7.85846-6.12762-10.89361-.9267-3.57825-.39392-5.028-2.04254-7.14893-1.948-2.506-3.99115-2.15338-6.12769-5.10638-1.87231-2.58783-.91064-3.69806-2.383-4.766-1.94226-1.40876-4.11224.1632-11.57446.68084-3.22717.22388-4.28985.03174-5.10638-.68084-1.73651-1.51545-.43366-3.70374-1.70209-5.78724-2.28174-3.748-11.03992-4.12768-17.0213-.68084-2.473,1.42505-1.81708,1.97473-5.10639,4.42553a36.34355,36.34355,0,0,1-14.29785,6.12769c-7.16058,1.61731-7.52972-.09924-11.23407,1.70209-6.52221,3.17163-8.97583,10.24261-9.19146,10.89361-1.49836,4.52387.23242,5.4057-1.3617,10.55323-1.63385,5.27587-3.83392,5.58288-5.10638,9.87231-1.89588,6.39087.98718,12.454,1.70208,13.95746,2.72834,5.73767,8.52558,11.35235,15.65961,12.59576,9.89832,1.72516,13.20874-6.56158,26.21277-5.44684,2.90155.24872,9.90179.84882,12.5957,5.78724A10.89437,10.89437,0,0,1,593.42554,932c-1.58875,4.07159-4.66748,4.3584-6.12769,7.14893-3.02514,5.78112,2.76581,18.73468,9.87238,20.08514,8.57153,1.62885,11.95733-14.97137,37.10638-41.87238,11.39154-12.18512,24.24976-23.27618,21.44678-28.25531C655.18573,888.15131,654.25812,887.752,652.65955,887.06384Z"/>
          <path class="b" d="M506.617,1015.06384c.68421-2.13781-.74569-3.5238.34043-6.80853,1.12015-3.38763,3.05218-3.15686,4.42551-6.46808,1.73806-4.19067-.57151-6.45312,1.36172-9.53192,1.59827-2.54535,3.5119-1.53247,5.78723-3.74469,4.59284-4.46545-.29266-11.42334,4.08508-18.72339,2.1529-3.59,3.62885-2.39813,6.46808-6.46808,3.25379-4.66418,6.0586-13.02862,2.72345-17.36169-2.65014-3.44312-9.52362-4.791-16.34045-6.12769a7.80993,7.80993,0,0,1-4.766-2.38293c-1.58493-1.906-.5885-3.30713-1.70212-5.10639-1.51224-2.44329-4.57593-1.84063-13.95746-4.08514-4.47583-1.0708-5.70648-1.66925-6.8085-2.72339-2.41074-2.306-1.50369-4.20788-3.40427-6.46808-2.8352-3.3717-8.28955-3.22522-14.29785-3.06384-6.22272.16711-5.5394,1.39117-11.57446,1.36169-4.33518-.02117-6.6286-.66229-8.85108,1.02131-1.451,1.09918-1.91192,2.46209-4.08511,3.40423a9.66511,9.66511,0,0,1-3.74469.68085c-4.81363.24231-5.88888,1.1745-8.851,1.36169-5.15357.32569-9.36862-2.024-11.234-3.06384-7.2919-4.06482-11.40311-11.60114-13.617-15.65955-2.49759-4.57836-3.78665-8.5216-6.12765-8.51062-1.50211.00708-1.73807,1.63416-4.42554,3.06379-3.86426,2.05566-6.30447.2492-8,1.95745-2.11267,2.12854-1.27847,7.91,1.87235,10.63831,2.66021,2.30353,4.671.43842,9.53192,2.04254,5.946,1.96222,5.15036,5.48316,13.27658,9.87238,4.35794,2.35382,6.53689,3.53076,9.53192,3.74469,2.73114.19507,5.40021-.3534,6.8085,1.36169a6.35375,6.35375,0,0,1,1.0213,3.06384c.5322,2.9195-.27459,3.57062.34043,4.76593,1.04644,2.03382,3.77435.91114,5.78723,3.06385,1.63659,1.7503,1.78631,4.58123,1.36169,6.46808-.85077,3.78051-4.21832,4.71-3.74469,6.80853.40161,1.77942,2.9122,1.50671,4.08512,4.08508.61126,1.34369.25882,2.14185.34042,4.42554a25.14081,25.14081,0,0,0,1.36169,6.80847c1.73493,4.78387,6.75559,8.55444,11.5745,9.87238,4.74847,1.2987,6.88437-.44507,9.19146,1.70214,1.28818,1.19892,1.76661,3.29572,2.72342,7.48932,1.17276,5.14.58655,5.67163,1.70212,7.82978a16.824,16.824,0,0,0,5.44681,5.78729c2.60107,1.825,4.21731,2.00525,5.44681,4.08508a9.31655,9.31655,0,0,1,1.02127,3.74469c.43948,2.733,1.50632,7.25745,2.74469,9.10639C485.47794,1024.40149,504.4874,1021.718,506.617,1015.06384Z"/>
          <path class="b" d="M389.51065,888.08508c3.66626,2.16931,10.497-9.76935,20.76593-8.851,7.80826.6983,10.99451,8.2085,14.63831,6.46808,3.313-1.5824,4.56347-9.80683,1.70214-14.97876-1.41256-2.55329-3.38674-3.56641-3.06384-5.44678.39719-2.313,3.60065-2.03931,6.12766-4.766,4.26993-4.60736.30771-10.98279,4.08511-13.95746,2.382-1.87573,4.27252.4112,9.53192-2.04254a13.45956,13.45956,0,0,0,5.32926-4.17944c1.10083-1.50678.76611-1.819,1.47924-2.629,2.74884-3.12219,8.41211.73291,13.27659-1.70215,3.9179-1.96118,6.13992-7.41321,4.766-9.53192-1.38938-2.14246-5.6493.36719-10.5532-2.383-3.429-1.923-3.13247-4.14941-5.4468-5.44677-7.37861-4.13636-22.30524,11.77813-23.48935,10.55316-.86982-.89984,4.81674-11.937,14.6383-13.9574,6.78217-1.3952,8.3519,2.98706,16.34043,1.70209,7.92132-1.27417,9.433-6.07447,16.68084-5.78723,5.58014.22113,8.00617,3.19812,9.87235,1.70214,2.41464-1.9356,1.43051-9.38659-2.72342-13.617-4.173-4.24982-8.1854-1.82806-11.91489-6.12769-3.37475-3.89062-1.295-7.26355-5.10638-10.89361-2.61939-2.49481-4.03424-1.31372-8.17023-3.74469-7.074-4.1579-8.1163-10.65833-10.89361-10.21277-3.1037.49786-2.86823,8.78693-5.78724,9.19153-2.47174.34259-3.49868-5.482-9.53189-10.55322-1.69363-1.42359-7.82989-6.58143-13.27661-4.76593-5.34094,1.78021-7.02112,9.26629-7.14892,9.87231-2.03357,9.64209,5.79342,16.2298,2.383,21.10638-1.97952,2.83051-5.52539,1.91083-6.8085,5.10639-1.46756,3.65491,2.24921,7.15381,1.02127,8.51062-1.41974,1.56879-8.88657-.34827-12.93616-5.78723-4.26919-5.73395-.63354-9.86621-3.40426-23.14893-1.66034-7.95953-4.15931-12.19708-2.383-13.617,2.45047-1.9588,8.373,5.1726,13.27658,3.06384,1.81821-.78192,2.63284-2.46289,5.78723-14.63831,3.22351-12.44213,3.27869-14.18328,2.04257-15.6596-2.77154-3.31018-10.2742-3.18659-12.59576,0-2.80261,3.84686,3.1637,10.48541.68085,12.93615-1.93778,1.91272-8.09754.36176-10.89362-3.74462-2.06186-3.02808-2.43609-7.65345-.34042-9.87238,1.34671-1.4259,2.52307-.59772,5.44681-2.04254,4.223-2.08692,3.83694-4.83673,6.80853-5.78723,3.64383-1.16553,5.12958,2.67956,10.21274,2.383,4.62655-.26989,5.56027-3.58154,9.1915-3.06384,3.18185.45367,6.63,3.59021,6.8085,6.80847.32217,5.80957-10.16632,9.07532-9.19147,12.93622.6673,2.64276,5.68628,1.5274,9.53189,6.12762,2.64664,3.166,1.50989,5.17817,4.08511,7.48938,3.63068,3.25849,10.34983,3.26123,11.57447,1.02131,1.64218-3.00361-6.6478-9.94361-5.78723-10.89362,1.09967-1.214,13.60739,11.25305,17.70214,8.51062,2.50849-1.68,2.16266-9.27081-1.36172-13.617-1.96234-2.41993-4.1806-2.93433-4.08508-4.42554.16409-2.5614,6.77438-2.06738,9.19146-6.12769,2.6919-4.52191-.57711-13.41589-5.4468-14.9787-4.35132-1.39648-8.16321,3.64374-11.234,1.70209-2.10831-1.33307-.82053-4.0307-3.06382-7.82977-2.19552-3.7182-5.8685-5.26538-9.53192-6.80853a32.8081,32.8081,0,0,0-13.95746-2.38294c-3.26632.2218-9.42141,1.27222-25.53192,14.9787a202.27067,202.27067,0,0,0-25.19146,25.87238c-7.73972,9.22857-22.31373,26.60607-19.30527,30.06164,2.94815,3.38629,22.11792-7.35821,27.81589-3.50848a41.31978,41.31978,0,0,1,7.48925,6.80829l.00013.00024a24.55244,24.55244,0,0,1,3.06381,5.78723c8.38025,22.27649,8.85107,50.72327,8.85107,50.72339.27753,16.76721.41626,25.15082-1.36169,35.40424C388.84271,879.18256,386.83563,886.50226,389.51065,888.08508Z"/>
          <path class="b" d="M611.13,690.64c-.15.4-3.03,7.59-9.87,9.87-4.66,1.55-6.39-.76-11.92.68C583.16,702.8,579.08,707.32,579.47,708c.43005.76,6.01-3.9,12.93005-2.72,4.63.78,10.24,4.24,10.56,8.85.27,3.89-3.36,6.94-4.43,7.83-1.08.91-4.78,3.74-17.7,4.08-10.35.28-10.57-1.46-14.3,0-5.45,2.14-4.59,5.71-13.27,11.92-7.27,5.2-10.59,4.65-11.58,4.42-2.96-.67-3.62-2.71-5.79-2.38-3.21.49-2.92,5.14-7.49,8.17-3.38,2.24-5.02.67-7.83,2.72-3.25,2.38-3.05,5.94-4.76,11.92-1.76,6.12-4.1,14.29-9.19,16.34-6.89,2.77-16.47-6.63-18.73-8.85-4.34-4.27-6.64-9.32-11.23-19.41-6.72-14.76-5.44-17.78-4.43-19.06,1.92-2.42,4.72-.94,7.83-4.09,2.8-2.82,4.34-7.85,2.39-11.57-1.16-2.21-3.77-4.36-5.45-3.74-2.5.91-.95,7.23-3.4,8.17-1.88.71-5.42-1.96-6.13-5.11-.59-2.6,1.22-3.45,1.7-7.15.04-.35.81-7.05-3.74-11.23a11.78544,11.78544,0,0,0-7.83-3.07c-3.86.14-5.52,2.64-8.86,1.7-.92-.26-1-.51-3.4-2.04a51.56136,51.56136,0,0,0-5.26-2.97,6.993,6.993,0,0,1-1.89-1.11c-.91-.91-1.07-2.65-.68-4.86,2.49-1.36005,5.07-2.68,7.83-3.99,17.73-8.41,32.44-11.52,47.66-14.64,11.9-2.44,28.35-5.73,49.7-5.79a216.99212,216.99212,0,0,1,63.45,9.38,24.68669,24.68669,0,0,1,3.28,4.92,30.6556,30.6556,0,0,1,1.53,3.51A17.85224,17.85224,0,0,1,611.13,690.64Z"/>
        </g>
      </g>
    </mask>
    <clipPath id="g" transform="translate(451.29037 -531.99908)">
      <ellipse class="c" cx="536.27965" cy="845.70215" rx="217.05748" ry="194.55322"/>
    </clipPath>
    <linearGradient id="h" x1="485.09012" y1="1017.68927" x2="485.09012" y2="1015.87231" gradientUnits="userSpaceOnUse">
      <stop offset="0.07385" stop-color="#1f5382"/>
      <stop offset="0.16872" stop-color="#1d4e7c" stop-opacity="0.84"/>
      <stop offset="0.97128" stop-color="#1d4e7c" stop-opacity="0"/>
    </linearGradient>
  </defs>
  <title>imgg</title>
  <g>
    <g class="e">
      <circle class="f" cx="989.85807" cy="339.38744" r="339.38742"/>
    </g>
    <rect class="g" y="487.99946" width="1979.71615" height="333.02092"/>
  </g>
  <g>
    <path class="b" d="M728.23,764.17c-1.54,1.21-15.33-15.45-28.59-28.6,0,0-3.06-2.96-6.92-6.56-27.52-25.71-61.85-42.12-61.85-42.12-5.08-2.43-11.74-5.57-19.91-8.74a201.93316,201.93316,0,0,0-59.07-13.38c-14.74-1.06-54.84-3.46-96,16.68005a164.4699,164.4699,0,0,0-15.81,9.28c-6.82,4.38-15.49,10.19-27.08,17.95-28.86,19.33-37.46,27.2-43.23,33.02-14.41,14.52-23.23,28.36-23.83,27.92-.5-.36,5.34-9.61,11.57-18.05a201.85706,201.85706,0,0,1,24.85-27.91c9.78-9.03,17.62-14.4,28.94-22.13,10.57-7.22,17.95-12.27,26.21-16.77,2.49-1.36005,5.07-2.68,7.83-3.99,17.73-8.41,32.44-11.52,47.66-14.64,11.9-2.44,28.35-5.73,49.7-5.79a216.99212,216.99212,0,0,1,63.45,9.38c5.16,1.57,9.68,3.15,13.49,4.58,27.8,10.46,45.17,23.49,64.68,38.13,8.26,6.2,25.37,19.65,38.81,41.19C724.49,755.8,729.23,763.4,728.23,764.17Z" transform="translate(451.29037 -531.99908)"/>
    <path class="b" d="M682.95746,727.40424c-5.14642-.29456-8.65631-.49543-11.91492,1.70214-2.95733,1.99445-2.906,4.07489-6.46808,5.78724-3.09747,1.489-4.17968.41742-7.14892,2.04254a13.46957,13.46957,0,0,0-5.44684,5.78723c-1.98474,4.242.287,6.10852-1.3617,9.53192-1.71893,3.56921-5.84338,4.97687-10.21276,6.46808-6.74018,2.30035-9.06849.76276-11.91486,3.4043-2.61334,2.42523-3.02209,5.92211-3.4043,9.19146-.11657.99744-1.10022,9.986,2.04261,11.234,3.53991,1.4057,8.91919-8.3573,12.5957-6.80847.91919.38721,1.01355,1.17889,3.4043,7.48938,2.33337,6.15906,2.82055,6.928,3.74462,7.48932,2.63959,1.60339,7.15265.48578,9.53193-2.04254,2.90411-3.08606,3.49408-9.19306,1.70214-13.27661-.43676-.9953-1.12414-2.119-.655-3.1496.69721-1.53162,3.0185-.81366,5.08057-1.95679,3.9632-2.197,1.45819-8.21387,5.78723-12.93616a13.17129,13.17129,0,0,1,7.14893-3.74469c3.073-.63214,5.39953-.057,8.14355.62128,1.51734.37506,1.72083.57965,1.72882.74042.0387.7763-4.44543,1.18988-10.21276,3.74469-3.701,1.63946-4.21222,2.51367-4.42554,3.06384-.20752.53522-.36615,1.36493,1.02124,6.80853.74036,2.905.91553,3.17859.68085,3.74469-.886,2.13764-4.52442.98981-7.14893,3.40424-2.221,2.04315-3.06464,6.03815-1.70215,7.48938,2.26721,2.41486,10.44885-2.42108,11.23407-1.0213.48517.86487-2.77637,2.46478-4.08508,6.80853a11.76512,11.76512,0,0,0-.4162,5.6377c.44434,2.38739,1.513,3.43817,1.09705,3.89416-.89789.98444-5.61133-4.205-10.21277-3.06378-2.41687.59943-4.78449,2.94073-4.766,5.10638.02185,2.55439,3.35009,3.30585,3.74469,6.80848.16632,1.47613-.17951,3.52069-1.02124,3.74469-2.3509.62561-4.9621-13.90839-11.91492-14.9787-4.91834-.75714-8.20117,5.80926-12.93616,4.08508a7.01466,7.01466,0,0,1-4.08514-4.42554c-1.02234-3.52887,1.98858-6.14538.68084-7.82977-.99011-1.27533-3.83612-1.2179-5.44677,0-.82263.622-1.265,1.50293-2.04254,5.44684-1.1518,5.84259-.62531,6.16345-1.3617,7.14892-1.76794,2.36591-5.1416.97016-11.91492,2.04255-1.22406.19378-10.87616,1.72192-11.23407,4.76593-.37292,3.1712,9.67579,5.14581,9.53193,9.19152-.0586,1.64808-1.7616,2.31739-7.48932,6.12763-9.48639,6.31061-11.71247,9.063-12.93622,10.89361-1.58533,2.37153-3.27252,4.89539-2.72339,7.82984,1.01721,5.43591,9.17407,9.4245,13.95746,7.48932,3.04748-1.23291,2.40271-3.93036,6.80853-7.82978,1.33808-1.18426,6.23407-5.51745,10.55316-4.42553,2.97431.75189,3.2309,3.45862,7.14893,9.19146,6.57068,9.61438,10.80548,9.2544,11.91492,14.97876,1.25689,6.48511-3.30274,11.4643-1.70215,12.59577,1.355.95788,6.23053-1.47443,7.82977-5.44684,3.63312-9.02423-11.47845-21.43323-9.53186-23.48938,1.18225-1.24878,8.51324,1.47266,12.5957,7.48938,4.3404,6.39685,1.69214,11.63043,6.46808,17.0213.39972.45117,5.13477,5.68781,9.23407,5.02124,7.538-1.22571,10.44806-22.00915,19.02124-76.17023,3.69672-23.35412,5.72693-35.12713,14.63831-39.82977,11.5133-6.07568,25.14441,3.602,27.91491-1.02124,2.91358-4.862-9.7489-19.59064-23.48938-25.87237A42.07779,42.07779,0,0,0,682.95746,727.40424Z" transform="translate(451.29037 -531.99908)"/>
    <path class="b" d="M652.65955,887.06384c-7.43549-3.2008-12.383,2.64344-17.3617,0-3.83349-2.0354-5.34155-7.85846-6.12762-10.89361-.9267-3.57825-.39392-5.028-2.04254-7.14893-1.948-2.506-3.99115-2.15338-6.12769-5.10638-1.87231-2.58783-.91064-3.69806-2.383-4.766-1.94226-1.40876-4.11224.1632-11.57446.68084-3.22717.22388-4.28985.03174-5.10638-.68084-1.73651-1.51545-.43366-3.70374-1.70209-5.78724-2.28174-3.748-11.03992-4.12768-17.0213-.68084-2.473,1.42505-1.81708,1.97473-5.10639,4.42553a36.34355,36.34355,0,0,1-14.29785,6.12769c-7.16058,1.61731-7.52972-.09924-11.23407,1.70209-6.52221,3.17163-8.97583,10.24261-9.19146,10.89361-1.49836,4.52387.23242,5.4057-1.3617,10.55323-1.63385,5.27587-3.83392,5.58288-5.10638,9.87231-1.89588,6.39087.98718,12.454,1.70208,13.95746,2.72834,5.73767,8.52558,11.35235,15.65961,12.59576,9.89832,1.72516,13.20874-6.56158,26.21277-5.44684,2.90155.24872,9.90179.84882,12.5957,5.78724A10.89437,10.89437,0,0,1,593.42554,932c-1.58875,4.07159-4.66748,4.3584-6.12769,7.14893-3.02514,5.78112,2.76581,18.73468,9.87238,20.08514,8.57153,1.62885,11.95733-14.97137,37.10638-41.87238,11.39154-12.18512,24.24976-23.27618,21.44678-28.25531C655.18573,888.15131,654.25812,887.752,652.65955,887.06384Z" transform="translate(451.29037 -531.99908)"/>
    <path class="b" d="M506.617,1015.06384c.68421-2.13781-.74569-3.5238.34043-6.80853,1.12015-3.38763,3.05218-3.15686,4.42551-6.46808,1.73806-4.19067-.57151-6.45312,1.36172-9.53192,1.59827-2.54535,3.5119-1.53247,5.78723-3.74469,4.59284-4.46545-.29266-11.42334,4.08508-18.72339,2.1529-3.59,3.62885-2.39813,6.46808-6.46808,3.25379-4.66418,6.0586-13.02862,2.72345-17.36169-2.65014-3.44312-9.52362-4.791-16.34045-6.12769a7.80993,7.80993,0,0,1-4.766-2.38293c-1.58493-1.906-.5885-3.30713-1.70212-5.10639-1.51224-2.44329-4.57593-1.84063-13.95746-4.08514-4.47583-1.0708-5.70648-1.66925-6.8085-2.72339-2.41074-2.306-1.50369-4.20788-3.40427-6.46808-2.8352-3.3717-8.28955-3.22522-14.29785-3.06384-6.22272.16711-5.5394,1.39117-11.57446,1.36169-4.33518-.02117-6.6286-.66229-8.85108,1.02131-1.451,1.09918-1.91192,2.46209-4.08511,3.40423a9.66511,9.66511,0,0,1-3.74469.68085c-4.81363.24231-5.88888,1.1745-8.851,1.36169-5.15357.32569-9.36862-2.024-11.234-3.06384-7.2919-4.06482-11.40311-11.60114-13.617-15.65955-2.49759-4.57836-3.78665-8.5216-6.12765-8.51062-1.50211.00708-1.73807,1.63416-4.42554,3.06379-3.86426,2.05566-6.30447.2492-8,1.95745-2.11267,2.12854-1.27847,7.91,1.87235,10.63831,2.66021,2.30353,4.671.43842,9.53192,2.04254,5.946,1.96222,5.15036,5.48316,13.27658,9.87238,4.35794,2.35382,6.53689,3.53076,9.53192,3.74469,2.73114.19507,5.40021-.3534,6.8085,1.36169a6.35375,6.35375,0,0,1,1.0213,3.06384c.5322,2.9195-.27459,3.57062.34043,4.76593,1.04644,2.03382,3.77435.91114,5.78723,3.06385,1.63659,1.7503,1.78631,4.58123,1.36169,6.46808-.85077,3.78051-4.21832,4.71-3.74469,6.80853.40161,1.77942,2.9122,1.50671,4.08512,4.08508.61126,1.34369.25882,2.14185.34042,4.42554a25.14081,25.14081,0,0,0,1.36169,6.80847c1.73493,4.78387,6.75559,8.55444,11.5745,9.87238,4.74847,1.2987,6.88437-.44507,9.19146,1.70214,1.28818,1.19892,1.76661,3.29572,2.72342,7.48932,1.17276,5.14.58655,5.67163,1.70212,7.82978a16.824,16.824,0,0,0,5.44681,5.78729c2.60107,1.825,4.21731,2.00525,5.44681,4.08508a9.31655,9.31655,0,0,1,1.02127,3.74469c.43948,2.733,1.50632,7.25745,2.74469,9.10639C485.47794,1024.40149,504.4874,1021.718,506.617,1015.06384Z" transform="translate(451.29037 -531.99908)"/>
    <path class="b" d="M389.51065,888.08508c3.66626,2.16931,10.497-9.76935,20.76593-8.851,7.80826.6983,10.99451,8.2085,14.63831,6.46808,3.313-1.5824,4.56347-9.80683,1.70214-14.97876-1.41256-2.55329-3.38674-3.56641-3.06384-5.44678.39719-2.313,3.60065-2.03931,6.12766-4.766,4.26993-4.60736.30771-10.98279,4.08511-13.95746,2.382-1.87573,4.27252.4112,9.53192-2.04254a13.45956,13.45956,0,0,0,5.32926-4.17944c1.10083-1.50678.76611-1.819,1.47924-2.629,2.74884-3.12219,8.41211.73291,13.27659-1.70215,3.9179-1.96118,6.13992-7.41321,4.766-9.53192-1.38938-2.14246-5.6493.36719-10.5532-2.383-3.429-1.923-3.13247-4.14941-5.4468-5.44677-7.37861-4.13636-22.30524,11.77813-23.48935,10.55316-.86982-.89984,4.81674-11.937,14.6383-13.9574,6.78217-1.3952,8.3519,2.98706,16.34043,1.70209,7.92132-1.27417,9.433-6.07447,16.68084-5.78723,5.58014.22113,8.00617,3.19812,9.87235,1.70214,2.41464-1.9356,1.43051-9.38659-2.72342-13.617-4.173-4.24982-8.1854-1.82806-11.91489-6.12769-3.37475-3.89062-1.295-7.26355-5.10638-10.89361-2.61939-2.49481-4.03424-1.31372-8.17023-3.74469-7.074-4.1579-8.1163-10.65833-10.89361-10.21277-3.1037.49786-2.86823,8.78693-5.78724,9.19153-2.47174.34259-3.49868-5.482-9.53189-10.55322-1.69363-1.42359-7.82989-6.58143-13.27661-4.76593-5.34094,1.78021-7.02112,9.26629-7.14892,9.87231-2.03357,9.64209,5.79342,16.2298,2.383,21.10638-1.97952,2.83051-5.52539,1.91083-6.8085,5.10639-1.46756,3.65491,2.24921,7.15381,1.02127,8.51062-1.41974,1.56879-8.88657-.34827-12.93616-5.78723-4.26919-5.73395-.63354-9.86621-3.40426-23.14893-1.66034-7.95953-4.15931-12.19708-2.383-13.617,2.45047-1.9588,8.373,5.1726,13.27658,3.06384,1.81821-.78192,2.63284-2.46289,5.78723-14.63831,3.22351-12.44213,3.27869-14.18328,2.04257-15.6596-2.77154-3.31018-10.2742-3.18659-12.59576,0-2.80261,3.84686,3.1637,10.48541.68085,12.93615-1.93778,1.91272-8.09754.36176-10.89362-3.74462-2.06186-3.02808-2.43609-7.65345-.34042-9.87238,1.34671-1.4259,2.52307-.59772,5.44681-2.04254,4.223-2.08692,3.83694-4.83673,6.80853-5.78723,3.64383-1.16553,5.12958,2.67956,10.21274,2.383,4.62655-.26989,5.56027-3.58154,9.1915-3.06384,3.18185.45367,6.63,3.59021,6.8085,6.80847.32217,5.80957-10.16632,9.07532-9.19147,12.93622.6673,2.64276,5.68628,1.5274,9.53189,6.12762,2.64664,3.166,1.50989,5.17817,4.08511,7.48938,3.63068,3.25849,10.34983,3.26123,11.57447,1.02131,1.64218-3.00361-6.6478-9.94361-5.78723-10.89362,1.09967-1.214,13.60739,11.25305,17.70214,8.51062,2.50849-1.68,2.16266-9.27081-1.36172-13.617-1.96234-2.41993-4.1806-2.93433-4.08508-4.42554.16409-2.5614,6.77438-2.06738,9.19146-6.12769,2.6919-4.52191-.57711-13.41589-5.4468-14.9787-4.35132-1.39648-8.16321,3.64374-11.234,1.70209-2.10831-1.33307-.82053-4.0307-3.06382-7.82977-2.19552-3.7182-5.8685-5.26538-9.53192-6.80853a32.8081,32.8081,0,0,0-13.95746-2.38294c-3.26632.2218-9.42141,1.27222-25.53192,14.9787a202.27067,202.27067,0,0,0-25.19146,25.87238c-7.73972,9.22857-22.31373,26.60607-19.30527,30.06164,2.94815,3.38629,22.11792-7.35821,27.81589-3.50848a41.31978,41.31978,0,0,1,7.48925,6.80829l.00013.00024a24.55244,24.55244,0,0,1,3.06381,5.78723c8.38025,22.27649,8.85107,50.72327,8.85107,50.72339.27753,16.76721.41626,25.15082-1.36169,35.40424C388.84271,879.18256,386.83563,886.50226,389.51065,888.08508Z" transform="translate(451.29037 -531.99908)"/>
    <path class="b" d="M611.13,690.64c-.15.4-3.03,7.59-9.87,9.87-4.66,1.55-6.39-.76-11.92.68C583.16,702.8,579.08,707.32,579.47,708c.43005.76,6.01-3.9,12.93005-2.72,4.63.78,10.24,4.24,10.56,8.85.27,3.89-3.36,6.94-4.43,7.83-1.08.91-4.78,3.74-17.7,4.08-10.35.28-10.57-1.46-14.3,0-5.45,2.14-4.59,5.71-13.27,11.92-7.27,5.2-10.59,4.65-11.58,4.42-2.96-.67-3.62-2.71-5.79-2.38-3.21.49-2.92,5.14-7.49,8.17-3.38,2.24-5.02.67-7.83,2.72-3.25,2.38-3.05,5.94-4.76,11.92-1.76,6.12-4.1,14.29-9.19,16.34-6.89,2.77-16.47-6.63-18.73-8.85-4.34-4.27-6.64-9.32-11.23-19.41-6.72-14.76-5.44-17.78-4.43-19.06,1.92-2.42,4.72-.94,7.83-4.09,2.8-2.82,4.34-7.85,2.39-11.57-1.16-2.21-3.77-4.36-5.45-3.74-2.5.91-.95,7.23-3.4,8.17-1.88.71-5.42-1.96-6.13-5.11-.59-2.6,1.22-3.45,1.7-7.15.04-.35.81-7.05-3.74-11.23a11.78544,11.78544,0,0,0-7.83-3.07c-3.86.14-5.52,2.64-8.86,1.7-.92-.26-1-.51-3.4-2.04a51.56136,51.56136,0,0,0-5.26-2.97,6.993,6.993,0,0,1-1.89-1.11c-.91-.91-1.07-2.65-.68-4.86,2.49-1.36005,5.07-2.68,7.83-3.99,17.73-8.41,32.44-11.52,47.66-14.64,11.9-2.44,28.35-5.73,49.7-5.79a216.99212,216.99212,0,0,1,63.45,9.38,24.68669,24.68669,0,0,1,3.28,4.92,30.6556,30.6556,0,0,1,1.53,3.51A17.85224,17.85224,0,0,1,611.13,690.64Z" transform="translate(451.29037 -531.99908)"/>
  </g>
  <g>
    <path class="g" d="M309.7186,1034.15674c-1.53726-13.51734-2.976-30.546-3.442-50.26312-.41513-17.5647.098-30.65229.51065-40.72339,1.14124-27.85187,2.80429-68.43885,12.88025-103.40021,2.49915-8.67151,3.23068-9.06787,8.11975-25.28064,4.2312-14.03119,5.48288-19.702,10.46808-27.19153,3.69476-5.55078,7.2753-10.93005,14.29788-13.53192,7.21555-2.6734,16.15534-1.70721,22.34043,2.80853,4.74591,3.465,7.28421,8.59229,10.58981,30.28754,3.13647,20.5852,4.85455,30.88324,4.20917,46.68341-.84009,20.56665-3.56287,22.012-4.97446,40.17834-1.09656,14.11194-2.87293,36.97291,5.73978,63.52,8.5502,26.3545,21.87161,46.00129,31.52261,51.14417a137.51821,137.51821,0,0,0,13.9982,6.16522,71.99872,71.99872,0,0,0,10.383,3.23407,87.92287,87.92287,0,0,0,11.44681,1.62769c3.07086.28375,5.22589.35986,5.96808.38293,3.43723.10681,6.04013-.00946,7.18088-.06378,20.79666-.98993,31.195-1.48486,36.34042-2.28723a139.4435,139.4435,0,0,0,45.78665-16.19812,154.93849,154.93849,0,0,0,18.74994-12.62763c9.9975-7.56939,18.23993-15.26428,32.14258-30.22931,14.53815-15.649,27.84723-30.06915,43.62225-51.65789,16.50208-22.58374,20.637-32.39417,22.57636-37.49976,3.839-10.10675,5.96759-19.925,8.03577-29.46411A281.81168,281.81168,0,0,0,683.56848,808.01c.39008-3.66333.83441-8.59613,1.91327-16.07135,1.73248-12.00372,3.05579-16.39118,5.73975-20.66309a25.33506,25.33506,0,0,1,8.03253-8.33734c2.44372-1.54516,9.67627-5.48761,17.15021-3.1084a21.56977,21.56977,0,0,1,6.19464,3.4101,26.79,26.79,0,0,1,7.27032,7.27032c4.34332,7.78766,2.53131,13.54975,4.59186,27.55085.81232,5.51934,1.53912,7.64892,2.2959,11.47955,1.66809,8.44281,2.60907,20.73028-1.148,44.77014-2.42377,15.50854-6.45374,40.21289-19.51514,70.79041-8.46435,19.81536-12.69647,29.72308-20.28052,38.26507-10.09118,11.366-21.72711,18.34192-36.35186,38.265-1.83143,2.49493-8.46552,11.53253-7.27033,12.62762.90021.82477,5.88965-3.18018,10.71423-7.27045,16.92688-14.35052,25.39026-21.52575,34.056-32.908a139.18772,139.18772,0,0,0,22.19367-40.9436c6.10895-18.44946,6.05255-32.9682,5.73974-57.39764-.525-40.997-8.50036-65.67847,3.44391-75.7649a24.45925,24.45925,0,0,1,14.78907-5.93176,20.749,20.749,0,0,1,11.61389,4.0185c6.46643,4.61859,8.529,11.30419,11.47949,21.81109,4.47235,15.92621,9.92822,31.56256,14.54071,47.44873,3.03,10.43573,3.89526,13.24921,4.89856,18.56751,1.6828,8.92059,2.10211,16.13232,2.37183,27.73327.46087,19.82715.6914,29.74073,0,37.88239-1.68061,19.79046-5.9134,34.65484-9.18366,45.91809-5.20111,17.9137-7.8017,26.8706-11.86212,32.908-18.04163,26.82629-69.83392,22.20373-84.56592,21.04577-63.60675-4.99963-191.28641-4.75256-371.554-2.29589" transform="translate(451.29037 -531.99908)"/>
    <path class="b" d="M307.28119,1019.99854c.61349-.05762.20572-7.29511.14435-24.80707-.0347-9.906.03949-8.53046.04254-15.19147.01172-25.68372-2.046-30.89349-1.02127-42.55316,0-.00012.47607-5.41718.59573-15.23407.03055-2.50684-.10116-4.35431-.1702-5.19147-.07589-.92053-.11486-1.09137-.17022-1.78723a31.70885,31.70885,0,0,1,.08511-5.70215c2.23013-23.67877,5.09531-38.93121,5.09534-38.93133.16565-.88184.13644-.72321.26636-1.40912,3.4425-18.17743,3.17343-20.10382,5.53192-26.72339.79809-2.24,2.58731-7.16089,5.2778-14.94245.89181-2.57934,1.91669-5.67736,3.23285-9.90863,2.23047-7.17053,2.682-9.29174,4.93616-15.91485,3.726-10.94739,6.27883-16.27728,5.95745-16.42554-.59539-.27466-9.63336,17.89246-14.29788,28.93616-3.82144,9.04767-6.10626,15.92157-6.8085,18.04254-2.95007,8.91016-4.61359,15.73077-6.12766,22-1.62176,6.71509-3.5646,15.0011-5.36172,26.17023C302.34689,893.741,301.62756,903.82318,301,912.93616c-.5275,7.65985-1.23337,18.25641-1.02127,32.17022.05365,3.52015.53766,11.642,1.50571,27.88569.78866,13.23364,1.31244,20.73223,2.62194,30.41217C304.27176,1004.62677,306.38132,1020.08307,307.28119,1019.99854Z" transform="translate(451.29037 -531.99908)"/>
    <path class="b" d="M331.89362,814.04254c.56012.10266,5.30374-17.92859,8.93615-26.29785a31.78585,31.78585,0,0,1,4.75916-7.76831,16.27209,16.27209,0,0,1,2.30469-2.44446c1.42477-1.15643,4.24493-2.81738,12-2.55322,6.33374.21576,9.56631.32587,12.766,2.0426,2.17068,1.16467,5.78079,3.84924,10.72339,20.68085,2.39535,8.1571,4.73141,16.11236,5.617,27.82977.49246,6.5155.15808,12.76923-.51065,25.27661-.572,10.69715-1.34064,19.16211-2.04254,26.80847-1.66309,18.11707-2.24756,19.30719-2.55319,28.08515a152.7073,152.7073,0,0,0,.51065,23.234,137.39508,137.39508,0,0,0,7.40423,31.91491,134.39845,134.39845,0,0,0,12.766,26.29786c5.75925,9.02813,9.64585,15.20575,17.40607,21.239,1.82117,1.41589,14.05118,10.80841,25.27478,11.144,2.933.08771,4.8367-.4715,9.31915.08508,3.02646.3758,6.10062-.13281,9.149-.04254a2.74883,2.74883,0,0,0,1.91489-.59576c.21264-.19843.47958-.54242.383-.72339-.11471-.21484-.62317-.13586-1.24469-.10107-.7478.0418-1.49585-.08472-2.24466-.10108-1.71875-.0376-7.814-.61755-9.57446-.86169-5.69165-.78943-12.41611-4.53131-15.65958-6.29785a95.54961,95.54961,0,0,1-29.87219-25.53174l-.00015-.00019c-6.17005-8.74169-8.67069-16.267-13.27661-30.12762-2.428-7.30658-4.83258-14.66925-6.12766-24.766-1.28824-10.04334-.8013-17.51123,0-28.85108.95822-13.5603,1.933-14.17822,3.8298-31.91485,1.63184-15.25946,2.54288-24.12177,2.04255-36.25531a185.64147,185.64147,0,0,0-2.5532-23.23407c-2.78918-17.76959-5.969-25.67816-9.70211-31.91492-3.07431-5.13617-5.77478-7.88708-9.1915-9.70209-5.41449-2.87622-10.881-2.47412-13.27658-2.29791a22.47248,22.47248,0,0,0-10.72342,3.06384c-3.67789,2.28675-5.36344,5.13721-8.42554,10.46808a78.32556,78.32556,0,0,0-8.34042,21.10639C332.0239,807.97583,331.57565,813.98425,331.89362,814.04254Z" transform="translate(451.29037 -531.99908)"/>
    <path d="M309.25531,985.36169c-.01654.53565-.09732,2.98652-.1702,6.383-.05542,2.58356-.07226,4.13165-.08511,4.85107-.11234,6.28791-1.07187,13.766-1.43622,13.74506-.24582-.01416-.09558-3.43469-.234-14.57489-.06115-4.92078-.09173-7.38116-.20211-10.234-.272-7.028-.62632-6.67065-.85108-14.04254-.47623-15.62067-.548-12.46808-.68085-19.57446-.16626-8.89557-.37356-21.28308.51065-37.44684.55542-10.15357,1.31458-17.6474,1.53193-19.74469a273.255,273.255,0,0,1,4.08511-28.25531c1.50644-7.40814,3.05826-13.24249,4.42551-18.383.37243-1.40027,1.55566-5.81872,4.766-16.51062,8.86712-29.53186,8.40963-24.36358,10.383-33.0213,1.5947-6.99646,2.20633-11.74426,5.95743-17.53186a48.2609,48.2609,0,0,1,7.65958-8.85107c3.71048-3.46674,5.96951-5.5774,9.70214-6.97876,5.48627-2.05976,10.42338-1.18585,13.27659-.68085a27.44119,27.44119,0,0,1,12.766,5.44684c1.088.87543,5.00888,4.18884,9.36169,15.31915,2.0878,5.33862,3.66016,10.9035,5.27661,20.08508a198.75015,198.75015,0,0,1,3.06381,26.383,250.04115,250.04115,0,0,1-1.02127,35.234c-1.65545,17.66974-3.38348,19.101-4.42553,35.74469a166.92321,166.92321,0,0,0-.1702,24.68085,125.41512,125.41512,0,0,0,5.44681,29.95745c2.2948,7.00367,11.68194,32.79468,35.06381,48.51062.00009.00007,16.20206,11.75989,30,11.95746.56387.00806,1.12762.04084,1.6915.0326.602-.00879,1.17795.01825,2.32986.07232.19028.00891.78479.04035.80844.193a.11639.11639,0,0,1-.01913.06976c-.06818.12945-.26514.157-.36762.1665-.60061.05591-3.13882-.02185-3.85788-.0105-.10919.00171-.44024.00519-.89547-.00762-.19971-.00562-.43894-.01868-.76416-.048A120.06735,120.06735,0,0,1,448.617,1016c-8.72677-2.38544-23.59292-10.77734-35.78726-25.74469-11.82287-14.51141-15.92929-28.81421-18.55319-37.95746a131.20967,131.20967,0,0,1-4.89361-34.25531c-.18134-7.85644.41812-13.93268,1.617-26.08508,2.419-24.51965,4.62289-27.59644,4.72342-43.0213a212.92472,212.92472,0,0,0-1.27661-22.9787c-.9314-9.7431-1.9939-15.60779-4-26.68085-1.54025-8.50177-2.53388-12.619-5.02127-17.48938-1.85746-3.637-3.72913-7.30182-7.74469-10.51062-.52661-.42084-10.54-8.17438-21.27658-4.59576-4.03351,1.34442-6.61649,3.77069-8.80854,5.82977-1.4414,1.35394-4.66424,4.63355-8.12765,11.91492-1.80509,3.795-2.34482,5.87939-5.87235,18.55316-3.84716,13.82226-4.34137,15.425-5.02127,17.44684-2.73211,8.12451-3.90963,9.47571-6.46808,16.34039-3.01379,8.08655-4.30706,14.21375-6.89361,26.46814-1.39874,6.62689-3.27588,15.6181-4.68085,27.06378-1.35831,11.06555-1.52963,22.35578-1.87234,44.93622-.18332,12.07782-.09314,24.29059.34042,33.87231C309.02124,969.57605,309.45059,979.03308,309.25531,985.36169Z" transform="translate(451.29037 -531.99908)"/>
    <path d="M328.42554,818.19147h0c.01053,1.13733.18377,5.11419,3.12765,7.72345,2.80441,2.48559,6.40308,2.20562,9.31915,1.9787,1.49274-.11615,13.02872-1.19776,18.766-10.65955,1.66357-2.74353,2.19415-6.4248,3.25531-13.78723,1.27581-8.85187,1.87292-13.35053-.12766-16.91492-2.20074-3.921-7.04767-7.81988-11.8085-7.65961-1.97827.06659-3.89288.8324-4.08512.383-.2106-.49231,1.75446-2.18854,4.02128-2.87231,4.66217-1.40632,9.25354,1.87658,10.02127,2.42553a16.46148,16.46148,0,0,1,5.80853,8.17017c1.25345,3.47644,1.04837,6.65808.63827,13.0213-.30673,4.75909-.51879,8.04987-1.851,12.383a27.82837,27.82837,0,0,1-4.46811,9.57446A25.8174,25.8174,0,0,1,350,830.06384c-2.45514,1.0318-8.05063,3.38336-14.48935,1.9787a18.45006,18.45006,0,0,1-6.44681-2.80847c-1.89364-1.22443-3.37039-2.21051-3.70215-3.95746a5.12839,5.12839,0,0,1,1.02128-3.766" transform="translate(451.29037 -531.99908)"/>
    <path class="b" d="M475.92819,1018.16223a1.748,1.748,0,0,1-.82181.05585.17894.17894,0,0,0-.14892-.00531c-.11612.07623-.06015.4411.09308.66754a1.138,1.138,0,0,0,.78988.40692,80.28531,80.28531,0,0,0,12.09574.60639c1.80047-.05823.95508.05767,4.97873.06384a147.94116,147.94116,0,0,0,15.19149-.51062,116.35528,116.35528,0,0,0,17.74469-3.19153c18.205-4.955,34.28724-18.30011,38.55317-21.95746,16.19366-12.21832,26.82544-22.94311,39.57281-35.90607a427.45459,427.45459,0,0,0,35.23572-39.66839c11.20874-14.42023,17.7951-22.89368,24.51062-36.51062a180.96578,180.96578,0,0,0,13.53192-38.29785,335.20241,335.20241,0,0,0,6.31317-35.905c1.417-11.0351,2.46088-22.83,9.13367-35.83972,2.25079-4.38831,4.97851-8.59607,9.9574-10.85108,7.14135-3.23443,14.37262-.39447,15.70214.12769,1.64972.64789,7.0282,2.76019,10.08515,8.17016,1.57373,2.785,1.83649,5.63929,2.29785,11.23407.82648,10.02277-.43774,14.92463.89362,15.31916,1.26763.37567,3.98846-3.60175,4.97869-7.65961a16.78215,16.78215,0,0,0,.12769-7.02124c-1.808-10.60944-2.712-15.91418-7.0213-20.42554-6.648-6.95971-15.91724-7.29278-19.02124-7.40429-2.89923-.10419-8.97333-.2453-14.93622,3.31915-6.23334,3.72613-8.83453,9.403-11.617,15.70215-2.61084,5.9107-4.03144,13.8081-6.76593,29.36169-.46808,2.66242-.25837,1.57172-1.91492,11.3617-2.1543,12.73169-3.23151,19.09753-3.70215,21.57446a175.77466,175.77466,0,0,1-8.42548,29.36175c-5.17242,13.27161-10.98028,22.31421-16.72345,31.14893-7.29754,11.22577-14.79406,20.10461-29.48931,37.40424-11.80286,13.89459-17.70423,20.84185-25.02131,28.21276-9.935,10.00818-20.30432,20.34369-36.25531,31.02131-9.64721,6.45788-21.67968,14.62628-36.12768,18.63824-3.46289.96161-8.38721,2.05652-17.70212,4.12769-7.21335,1.60388-10.89716,2.1939-13.31644,2.48992-.61575.07532-1.20367.14258-2.024.219-3.8631.35986-7.5604.37482-9.43613.47992C476.40952,1018.12927,475.99194,1018.15265,475.92819,1018.16223Z" transform="translate(451.29037 -531.99908)"/>
    <path class="b" d="M724.31915,897.27661c1.20356.207.66187,8.82715.51062,11.234a103.31375,103.31375,0,0,1-3.06384,19.06384c-2.37335,9.49866-4.39282,17.581-9.53186,27.06385-3.1217,5.76031-5.97931,9.426-10.0426,14.6383a167.4039,167.4039,0,0,1-27.06378,27.57446c-10.91694,8.73517-23.58417,16.54438-24.42908,15.46265-.53913-.69025,4.07672-4.56311,12.34393-13.24988,8.5893-9.0252,14.131-15.96924,24.51062-28.766,10.106-12.45941,15.15906-18.68909,17.53192-22.9787,5.4878-9.92077,8.96222-20.46362,12.59577-31.48938C721.35535,904.67969,723.17218,897.07935,724.31915,897.27661Z" transform="translate(451.29037 -531.99908)"/>
    <path class="b" d="M734.36169,803.31915c.53724.06037.3982-2.76843,2.46808-5.19146,3.123-3.65583,8.7428-3.42432,9.10639-3.4043,6.36065.35046,10.17877,5.73962,10.80853,5.10638.53412-.53705-2.17517-4.45025-5.70215-7.48932-2.49493-2.14984-4.56268-3.93145-7.57446-3.91491a9.41243,9.41243,0,0,0-5.87232,2.383,10.6625,10.6625,0,0,0-3.14892,4.68085C733.07617,799.23737,733.72607,803.24774,734.36169,803.31915Z" transform="translate(451.29037 -531.99908)"/>
    <path d="M474.95746,1018.21277c-.00626-.24133,5.51047-.55335,7.0487-.65631,18.15894-1.21558,42.20051-10.8075,44.35553-11.68415a177.85726,177.85726,0,0,0,32.51062-17.19146c10.85724-7.418,17.54285-13.944,28.08515-24.3404,15.85705-15.63769,13.51233-15.85882,45.78723-52.93621,5.44025-6.24976,12.437-14.20472,19.36169-26.51062a154.39348,154.39348,0,0,0,8.55317-18.12769c1.57562-3.95642,6.34478-16.37842,10.21276-37.65955,2.24927-12.37524,1.019-10.27874,3.70215-27.70214,4.56226-29.62525,8.24677-36.5149,13.40424-41.48932a29.98271,29.98271,0,0,1,14.80853-8.17023,29.40427,29.40427,0,0,1,13.91492.63831c3.26373.87176,11.11951,2.97021,16.08508,10.02124,1.83435,2.60473,2.79736,6.311,4.72339,13.72345,1.19989,4.61792,1.5625,7.042.89362,10.02124-1.3678,6.09216-6.43842,10.25305-6.76593,10.0213-.2193-.15515,1.23346-2.60169,1.65954-3.31916,1.81793-3.06134,2.77735-3.56018,3.31915-5.29791.42566-1.36511.1673-2.50372-.19146-4.91485a51.26432,51.26432,0,0,0-2.68085-10.27662c-2.41766-6.33355-3.62653-9.50036-5.36169-11.48938-6.75007-7.73742-18.54511-6.95459-20.42554-6.82977a26.01382,26.01382,0,0,0-11.74469,3.44684c-5.85816,3.43616-8.64954,8.33954-10.53192,11.74469-2.59284,4.69037-3.63507,8.75281-5.3617,18.12762-2.11078,11.46076-3.29352,20.26844-3.57446,22.34046-1.75348,12.93176-2.82825,20.858-4.85107,29.87231a163.12848,163.12848,0,0,1-11.3617,34.46808c-4.717,10.14148-9.2475,16.8739-16.08508,26.93616a375.38442,375.38442,0,0,1-25.53192,33.19153c-16.28791,19.12072-28.85584,33.87445-49.149,49.53192-8.21716,6.34009-17.89819,13.72034-32.42548,20.55316-.00006.00006-17.96624,8.40356-35.36172,11.48938-4.19785.74463-11.93646,1.7002-15.7655,2.173-.54929.06781-2.34912.34308-4.76642.46528C478.183,1018.548,474.96222,1018.39691,474.95746,1018.21277Z" transform="translate(451.29037 -531.99908)"/>
    <path d="M658.23407,1005.9787c-1.30615,1.27423-2.78564,2.53033-5.74469,5.0426-3.25146,2.7605-4.2652,3.4798-4.65961,3.19147-.5202-.38031.303-2.31934.51068-2.80853a14.62213,14.62213,0,0,1,4.21271-5.55317c.94025-.73065,9.8396-10.551,27.63831-30.19152a186.57592,186.57592,0,0,0,14.68084-17.9574C705.20538,943.17,710.626,930.4303,714.95746,920.08508c5.532-13.21277,8.41772-23.40435,11.57446-34.55316,3.319-11.722,5.35407-19.0293,6.63831-29.44684a167.96948,167.96948,0,0,0,1.02124-26.21277c-.48047-18.09838-.72077-27.14764-1.87232-30.21276-.34393-.91547-1.80615-4.54877-.42553-5.87232a1.7134,1.7134,0,0,1,1.617-.42554c.96753.31775,1.26843,1.81134,1.53192,3.40424a86.63976,86.63976,0,0,1,1.0213,9.61707c.13855,2.91613.12873,1.10858.3404,5.36169.2611,5.24591.67157,13.49286.68084,21.70215.01111,9.82178.0196,17.31781-1.27655,26.63824-1.09186,7.85132-3.28113,15.36188-7.6596,30.383-2.7638,9.48157-4.53034,15.54187-7.57447,23.91492a211.924,211.924,0,0,1-12.17022,28.42553C704.377,950.46637,700.27808,958.26062,693,967.31915c-7.16791,8.92139-13.73541,14.48383-22.04254,24.42554-2.12866,2.54749-3.70276,4.33661-6.85108,7.91486C661.44739,1002.6817,660.08057,1004.17731,658.23407,1005.9787Z" transform="translate(451.29037 -531.99908)"/>
    <path d="M732.98,792.85c-.204-3.05225-.53723-5.37391-.77-6.96-.20129-1.37176-.495-3.01971-1.08233-6.31555-.33521-1.88073-.50275-2.8211-.6175-3.377a55.22528,55.22528,0,0,0-1.95166-7.02728,10.84366,10.84366,0,0,0-.47876-1.16492,12.21208,12.21208,0,0,0-.76593-1.34039A11.60182,11.60182,0,0,0,721.85,763.11a16.65436,16.65436,0,0,0-6.64-.68c-1.71.07-4.33.2-4.89,1.51a6.86174,6.86174,0,0,0-.32,1.4,10.0378,10.0378,0,0,0-.07,1.64,49.40261,49.40261,0,0,1-.38,5.7s-.28,3.48-.34,7.53a61.249,61.249,0,0,0,.26,8.09c.48,4.11.89,7.6,3.15,11.06.24.37,4.43,6.59,11.81,7.6,1.03.14,6.12.85,7.97-1.79.29-.41.51-.9.64-4.21A65.46155,65.46155,0,0,0,732.98,792.85Zm-2.81,10.92c-1.49,1.82-7.37.02-11.3-2.75a18.62442,18.62442,0,0,1-6.44-8.11c-1.03-2.5-1.13-4.62-1.34-8.87-.39-7.74.81994-12.03,1.53-14.1.93-2.72,1.66-4.44,3.38-5.17,2.82-1.21,6.79,1.02,8.83,3.7a11.052,11.052,0,0,1,1.8855,4.30249,19.91253,19.91253,0,0,1,.65118,2.28522q.03643.16461.06958.32751c.03674.119.08966.29523.14819.51007a15.80082,15.80082,0,0,1,.34986,1.61029c.12536.74781.4154,2.22669.83569,4.30445a105.50449,105.50449,0,0,1,1.53,12c.18,3.66-.14,2.81.05,6.83C730.45,802.83,730.55,803.3,730.17,803.77Z" transform="translate(451.29037 -531.99908)"/>
    <path d="M728.22,769.16a13.32393,13.32393,0,0,0-.67-1.95A6.45062,6.45062,0,0,1,728.22,769.16Z" transform="translate(451.29037 -531.99908)"/>
    <path d="M731.89362,799.74469c1.86248.95007,2.6239.80035,2.97869.51062.84571-.69061-.28753-2.44757.51069-5.19147a8.50351,8.50351,0,0,1,1.27655-2.55322,8.31256,8.31256,0,0,1,3.40429-2.72339,8.63941,8.63941,0,0,1,5.44678-.25531c5.50488,1.27869,8.61566,6.5755,9.70215,8.42554.75867,1.29181.74225,1.54541,3.57446,8.93616,1.65125,4.309,2.05579,5.26409,2.80853,7.23407,5.75068,15.04937,11.74469,34.97857,11.74469,34.97869,4.013,13.34278,6.01954,20.0141,7.234,25.78724,3.29029,15.64062,3.88251,28.215,4.42554,39.74469.35791,7.59869.63538,14.75787.25531,24.51062a233.20358,233.20358,0,0,1-2.28668,25.06115c-1.30756,8.777-1.96131,13.16553-3.33032,17.23676a97.63434,97.63434,0,0,0-3.91492,13.36169c-.68683,3.30475-.3833,2.84894-.9336,5.07587a46.62968,46.62968,0,0,1-5.36425,13.90283c-1.07068,1.74878-2.64783,3.992-1.95746,4.85108a1.22387,1.22387,0,0,0,1.10638.34039c.9057-.15979,1.37818-1.36725,1.617-1.9574.80438-1.98767,2.03888-3.78589,2.80853-5.78723,2.26617-5.8927,1.96-4.88922,2.383-6.12769,1.74749-5.11578,1.49841-6.21185,3.48931-13.53192.23548-.86584.93781-3.23,2.34241-7.95843,2.27966-7.67407,2.39038-7.89429,2.764-9.233,1.31317-4.70551,1.32837-6.94068,2.6383-20.17023,1.24256-12.54895,1.24244-10.67468,1.44684-14.04254.12836-2.11493.36139-6.6922-.08514-20.42554-.36926-11.35706-.5539-17.03558-1.19147-22.97876-.92706-8.64227-2.21142-15.19257-3.14892-19.91486-1.01654-5.12024-2.293-11.46844-4.68085-19.48938-2.25916-7.58886-2.74017-7.36041-6.12769-17.53192-2.57953-7.74542-2.55212-8.633-7.234-23.40423a161.72781,161.72781,0,0,0-6.46807-16.25531,31.01034,31.01034,0,0,0-5.61707-8.51068,15.939,15.939,0,0,0-5.36169-4.08509,12.2733,12.2733,0,0,0-6.9787-.93615,8.45316,8.45316,0,0,0-4.55323,1.87231c-1.37762,1.2439-1.45208,2.40289-3.36169,6.29791-.68121,1.38947-1.29053,2.504-1.70215,3.234" transform="translate(451.29037 -531.99908)"/>
    <path d="M762.27661,998.383a106.56431,106.56431,0,0,1-5.48938,10.72338,56.94594,56.94594,0,0,1-3.19147,4.72339,16.60777,16.60777,0,0,1-3.06213,3.387c-.91937.74115-2.8833,2.12866-3.32086,1.71936-.36994-.34607.50445-1.83295,2.04254-4.3404,2.57373-4.19586,3.86053-6.29382,4.97876-7.91491,1.01007-1.46436,1.77466-2.76776,5.87231-11.74469,4.15992-9.11341,6.23987-13.67,7.27662-16.3404a146.91018,146.91018,0,0,0,6.76593-23.10638c.72119-3.31677,1.2976-6.42834,3.82977-27.70215,2.185-18.35742,2.79242-24.74939,3.19153-32.17023.50653-9.41815.361-14.60656-.25531-19.91485-.55274-4.76074-1.3227-8.22693-1.0213-8.29791.43335-.102,2.9887,6.83557,4.21276,14.80853.92542,6.02765.7544,10.46155.383,18.89361-.2818,6.39716-.76874,10.90418-1.65961,19.14893-.55151,5.10413-1.31366,11.5249-2.42553,19.40424-1.69733,12.02807-2.546,18.04211-3.44678,21.82983C774.842,970.38428,773.18066,972.48962,762.27661,998.383Z" transform="translate(451.29037 -531.99908)"/>
    <path d="M757.02661,801.5c-.62659-.56354-.59582-.81586-1.04791-1.24469a4.55328,4.55328,0,0,0-3.31915-.93616,4.43377,4.43377,0,0,0-2.80848.85108c-1.11572.92468-1.30792,2.34478-1.53192,4a12.56985,12.56985,0,0,0-.08508,2.6383,37.69305,37.69305,0,0,0,2.29785,9.78723c2.89765,7.16193,4.449,10.99616,8.34039,13.617a27.67,27.67,0,0,0,6.21277,3.23407c2.14893.69549,3.19873.63531,4.42554,1.70209,2.06952,1.7995,2.56775,5.00146,1.95746,5.36169-.38275.226-1.06592-.74609-2.80853-1.95746a19.55575,19.55575,0,0,0-5.27655-2.46808,29.01184,29.01184,0,0,1-9.44684-6.38293c-3.79376-3.9729-5.09088-8.48548-6.46808-13.27661a38.75074,38.75074,0,0,1-1.3617-7.48938c-.64917-6.18524.33533-7.87689.85108-8.59571a6.29909,6.29909,0,0,1,3.57446-2.46814,6.98912,6.98912,0,0,1,5.42554,1.37769c1.78363,1.19421,3.0274,2.99274,2.82977,3.21808C758.64862,802.62616,757.70959,802.11432,757.02661,801.5Z" transform="translate(451.29037 -531.99908)"/>
    <path class="k" d="M481.47812,1017.68927l7.224-1.817" transform="translate(451.29037 -531.99908)"/>
    <path d="M709.93616,934.29785c-.277-2.43939-1.37342-4.11725-2.68085-6.06378-2.5661-3.82043-3.84912-5.73065-5.17023-7.46814a64.24739,64.24739,0,0,0-7.91485-8.48932,7.9536,7.9536,0,0,0-3.63831-1.65961c-1.246-.20147-1.59747.09974-1.72339.25531-.10284.12708-.33215.49927,0,1.46814a7.65162,7.65162,0,0,0,3.12763,3.57447c1.02771.6676,2.57873,2.61523,5.68084,6.51062,2.27637,2.85846,1.95264,3.11859,5.68085,8.68084,4.77216,7.11976,5.649,7.21058,6,7.08509C710.31543,937.8277,709.96539,934.55505,709.93616,934.29785Z" transform="translate(451.29037 -531.99908)"/>
    <path d="M698.82977,935c1.0174,1.01227,2.06171,1.96881,2.10639,3.383a2.47686,2.47686,0,0,1-.76593,1.97869c-.99909.72663-2.62146-.04724-3.19153-.31915-1.869-.89148-2.58173-2.21649-5.10639-5.68085-1.03259-1.41693-1.80938-2.42486-2.74462-3.6383-3.30329-4.286-3.62384-4.218-4.72345-6.06384a25.85981,25.85981,0,0,1-2.48932-6.12763c-1.20392-3.7746-.87574-4.53607-.51068-4.85107a2.00558,2.00558,0,0,1,2.10638-.06385,1.91642,1.91642,0,0,1,.70215.766c.9989,1.79071,1.67834,3.59808,2.29785,4.78723a16.41784,16.41784,0,0,0,1.4043,2.10638c3.83355,5.33576,5.75036,8.00366,6.89361,9.25531C696.15985,932.01135,697.40936,933.58673,698.82977,935Z" transform="translate(451.29037 -531.99908)"/>
    <path d="M782.19147,883.40424c-1.26551-2.62763-2.60028-3.87311-4.59571-6.21277-2.68042-3.14282-3.19677-4.32471-5.19152-5.10639-.77131-.30224-2.16834-.70324-2.46808-.25531-.27985.41822.528,1.38013,2.55322,3.74469,2.73187,3.18964,4.10773,4.79425,4.5957,5.27661.42456.41968,4.968,4.88648,5.61707,4.3404C782.7851,885.1217,782.90491,884.88556,782.19147,883.40424Z" transform="translate(451.29037 -531.99908)"/>
    <path d="M764.19147,978.21277a9.66916,9.66916,0,0,1,1.46808,3.6383c.13574.75354.282,1.61762-.12763,1.91486-.60583.43964-2.17969-.54077-3.19147-1.53186-1.30047-1.27393-1.41375-2.31232-2.74469-4.91492-.61181-1.19635-1.10961-1.98925-2.10638-3.57446-1.98541-3.15747-2.69946-3.675-3.89362-6-.9248-1.80066-1.90509-3.70929-1.27661-4.34045.60633-.60889,2.55762.12347,3.82978,1.21276a7.57275,7.57275,0,0,1,2.04254,3.19153A62.49979,62.49979,0,0,0,764.19147,978.21277Z" transform="translate(451.29037 -531.99908)"/>
    <path d="M755.76593,980.57446c.47858.67536,1.6579,2.29621,3,4.14893.90967,1.25574,1.36151,1.89575,1.21277,2.48938a2.62225,2.62225,0,0,1-2.74463,1.53192c-.78082-.09894-1.47376-.6062-3.95746-4.46808-.78808-1.22534-1.38788-2.21533-2.23407-3.6383a45.93836,45.93836,0,0,1-3.25531-6c-.9237-2.20667-1.4975-3.62592-.82977-4.40424a2.30841,2.30841,0,0,1,2.617-.25537c.83948.44189.923,1.21875,1.78723,3.12768.43451.95972.94922,1.8526,1.97876,3.63831C753.833,977.59906,754.62244,978.96075,755.76593,980.57446Z" transform="translate(451.29037 -531.99908)"/>
    <path d="M341.25531,869.78723a27.32943,27.32943,0,0,1-5.95743-2.04254c-2.51507-1.00159-4.7583-.68146-7.74469-.25531a20.4925,20.4925,0,0,0-8.59573,2.9787c-2.23123,1.446-3.65445,3.08856-4.766,2.55322a1.82822,1.82822,0,0,1-.85108-1.70215c.06681-1.1156,1.216-1.86157,2.383-2.55322a30.90324,30.90324,0,0,1,6.63827-3.31909,27.18058,27.18058,0,0,1,8.34043-1.78729,24.49863,24.49863,0,0,1,8.25534,1.27661c2.67276.75628,3.99444,1.48626,4.51062,2.72339.05768.13824.51178,1.264,0,1.87237C343.00543,870.08185,341.98911,869.92877,341.25531,869.78723Z" transform="translate(451.29037 -531.99908)"/>
    <path d="M344.14893,874.55316a2.39353,2.39353,0,0,0-1.95743.42554c-1.12305.65124-3.7558,1.2569-9.02127,2.46814a41.62752,41.62752,0,0,1-6.72342.93616c-3.97019.23309-5.95526.3496-7.40427-.17023-.71371-.256-1.59415-.66773-2.21277-.25531a2.20785,2.20785,0,0,0-.34042,2.72339c.64465,1.0354,2.217,1.08429,3.91492,1.10638a76.75265,76.75265,0,0,0,9.4468-.17023A63.79686,63.79686,0,0,0,338.78723,880c5.8013-1.51147,6.38986-2.59949,6.49738-3.2251A2.18967,2.18967,0,0,0,344.14893,874.55316Z" transform="translate(451.29037 -531.99908)"/>
    <path d="M314.88757,835.63892c.28043.10217-1.5408,5.13195-3.98666,14.31518-.67706,2.542-1.77551,6.68768-2.90091,11.96082-1.21719,5.70324-1.86108,9.89142-2.617,14.80847-1.38694,9.02124-2.06791,15.75738-2.29786,18.12768-.0704.72583-.33117,3.44-.6383,7.53193-.57355,7.64129-.87223,14.27038-1.14893,22.78723-.41971,12.91876-.62958,19.37811-.57446,26.04254.03879,4.69122.18994,13.1933.89361,23.87231.41062,6.23145.92872,13.88953,2.234,23.68085,1.8657,13.99457,3.99357,22.25031,3.383,22.4043-.538.13568-2.71591-6.14014-4.21277-11.80854a106.53337,106.53337,0,0,1-3.12765-18.44677c-1.20292-13.33606-1.80436-20.00409-2.04255-30.383-.31826-13.86749.12333-23.72333.89362-40.91492.56241-12.55249.86252-18.99853,1.78723-27.31915a267.16876,267.16876,0,0,1,4.72339-28.34039,137.66262,137.66262,0,0,1,5.68085-19.4043C312.614,840.11066,314.617,835.54034,314.88757,835.63892Z" transform="translate(451.29037 -531.99908)"/>
  </g>
</svg>
