<svg xmlns="http://www.w3.org/2000/svg" viewBox="0 0 570 570">
  <defs>
    <style>
      .a {
        fill: #b01e23;
      }
    </style>
  </defs>
  <title>logokanaa</title>
  <path class="a" d="M617,702v532H85V702H617m19-19H66v570H636V683Z" transform="translate(-66 -683)"/>
  <g>
    <path class="a" d="M124.44336,935.13574V869.08789h15.23193v9.72754h.896a23.17535,23.17535,0,0,1,4.416-7.93555q2.88062-3.32812,8.12842-3.32812,9.59986,0,11.77588,11.26367h.76807a24.89923,24.89923,0,0,1,1.91992-4.35156,14.53549,14.53549,0,0,1,2.81592-3.584,12.41324,12.41324,0,0,1,3.96777-2.43261,14.82177,14.82177,0,0,1,5.37647-.89551q13.82373,0,13.82373,20.35156v47.23242H178.33154v-45.3125q0-4.60694-1.60009-6.46386a5.239,5.239,0,0,0-4.16016-1.85547,5.90579,5.90579,0,0,0-4.15967,1.59961,6.41017,6.41017,0,0,0-1.728,4.92773v47.10449H151.32373v-45.3125q0-4.60694-1.47217-6.46386a4.8709,4.8709,0,0,0-4.03222-1.85547,5.86513,5.86513,0,0,0-6.14405,6.52734v47.10449Z" transform="translate(-66 -683)"/>
    <path class="a" d="M259.73828,935.13574q-5.88867,0-9.47217-3.00781a12.61152,12.61152,0,0,1-4.22363-8.64063h-.64014a16.20438,16.20438,0,0,1-7.104,9.85645,24.01368,24.01368,0,0,1-12.99219,3.32813q-9.59985,0-15.42383-5.18458-5.82567-5.18408-5.82421-14.52734,0-10.36816,7.55224-15.36035,7.55127-4.9922,22.144-4.99219h10.624V893.2793q0-5.88575-2.752-8.89551-2.7539-3.00586-9.28027-3.00781a18.23555,18.23555,0,0,0-9.728,2.30371,22.54879,22.54879,0,0,0-6.3999,6.01562l-10.36767-9.21582a24.8518,24.8518,0,0,1,10.43164-9.28027q7.10448-3.64746,18.24023-3.64746,13.56592,0,21.18408,6.208,7.61354,6.20946,7.61573,18.75195v28.92773h7.29589v13.69629Zm-27.26416-10.87988a14.30387,14.30387,0,0,0,8.44824-2.43262,8.07282,8.07282,0,0,0,3.45606-7.04v-7.93554H234.26611q-11.64843,0-11.648,7.80761v2.56055a5.90846,5.90846,0,0,0,2.688,5.24805A12.73078,12.73078,0,0,0,232.47412,924.25586Z" transform="translate(-66 -683)"/>
    <path class="a" d="M283.67334,920.28711h15.23193V883.93555H283.67334V869.08789h34.17578v18.6875h.896a37.69546,37.69546,0,0,1,2.49609-6.97559,22.73129,22.73129,0,0,1,4.09619-6.0166,18.14187,18.14187,0,0,1,6.07959-4.16015,21.33565,21.33565,0,0,1,8.44824-1.53516h6.272v17.40723H332.05713q-7.04077,0-10.624,4.14453a14.95614,14.95614,0,0,0-3.584,10.13769v19.50977h21.76026v14.84863h-55.936Z" transform="translate(-66 -683)"/>
    <path class="a" d="M363.03223,920.28711h20.9917V883.93555h-20.9917V869.08789h39.93554v51.19922h19.45606v14.84863h-59.3916Zm30.46386-59.64746q-6.40209,0-8.896-2.624a8.8572,8.8572,0,0,1-2.4961-6.33594v-3.71192a8.803,8.803,0,0,1,2.4961-6.40039q2.49609-2.55908,8.896-2.55957,6.39918,0,8.896,2.55957a8.803,8.803,0,0,1,2.49609,6.40039v3.71192a8.85719,8.85719,0,0,1-2.49609,6.33594Q399.896,860.64063,393.49609,860.63965Z" transform="translate(-66 -683)"/>
    <path class="a" d="M477.335,923.10352h-.76807a23.5602,23.5602,0,0,1-6.84814,9.59961q-4.67358,3.9668-12.60791,3.96875a23.06348,23.06348,0,0,1-8.7041-1.60059,17.72659,17.72659,0,0,1-6.78369-4.79981,23.12039,23.12039,0,0,1-4.416-7.80761,32.29428,32.29428,0,0,1-1.6001-10.624V869.08789h18.94385V909.2793q0,12.80127,11.13623,12.7998a16.2347,16.2347,0,0,0,4.2876-.57519,10.7409,10.7409,0,0,0,3.7124-1.792,9.91571,9.91571,0,0,0,2.624-3.00878,8.37411,8.37411,0,0,0,1.02392-4.22364v-43.3916H496.2793v66.04785H477.335Z" transform="translate(-66 -683)"/>
    <path class="a" d="M542.22949,936.67188a50.31849,50.31849,0,0,1-19.13574-3.32813q-8.12988-3.32665-12.22363-9.08789l10.624-9.85645a27.515,27.515,0,0,0,9.02344,6.5918,28.18074,28.18074,0,0,0,11.83984,2.36817q5.63086,0,8.832-1.72754a5.66332,5.66332,0,0,0,3.2002-5.3125,3.98116,3.98116,0,0,0-2.17578-3.9043,21.933,21.933,0,0,0-6.0166-1.72754l-10.624-1.66406a43.84019,43.84019,0,0,1-8.31933-1.98438,21.70705,21.70705,0,0,1-6.65625-3.64746,16.98941,16.98941,0,0,1-4.48047-5.63183,17.87833,17.87833,0,0,1-1.66309-8.06446q0-10.36816,7.93555-16.25586,7.93506-5.88573,22.27246-5.88769a46.46524,46.46524,0,0,1,16.57519,2.624,26.26419,26.26419,0,0,1,10.94434,7.48731L562.71,888.415a24.12822,24.12822,0,0,0-7.55273-5.376,25.93441,25.93441,0,0,0-11.13575-2.17578q-11.00976,0-11.00781,6.65625a4.08572,4.08572,0,0,0,2.17578,4.03223,21.776,21.776,0,0,0,6.0166,1.72754l10.49512,1.66406a44.01831,44.01831,0,0,1,8.32031,1.98437,22.58165,22.58165,0,0,1,6.71973,3.64747,16.68608,16.68608,0,0,1,4.54492,5.63183,17.916,17.916,0,0,1,1.66309,8.06445,19.406,19.406,0,0,1-8,16.38379Q556.94824,936.67432,542.22949,936.67188Z" transform="translate(-66 -683)"/>
    <path class="a" d="M147.73975,1088.73535l-23.68018-66.04785h19.96777l8.57618,28.28809,6.272,22.01562h1.02392l6.272-22.01562,8.57617-28.28809h19.20019l-23.68017,66.04785Z" transform="translate(-66 -683)"/>
    <path class="a" d="M209.43457,1073.8877h20.9917v-36.35254h-20.9917V1022.6875h39.93555v51.2002h19.45605v14.84765h-59.3916Zm30.46387-59.64844q-6.40211,0-8.896-2.624a8.85552,8.85552,0,0,1-2.49609-6.33593v-3.71192a8.80227,8.80227,0,0,1,2.49609-6.39941q2.49609-2.55909,8.896-2.56055,6.39916,0,8.896,2.56055a8.80223,8.80223,0,0,1,2.4961,6.39941v3.71192a8.85548,8.85548,0,0,1-2.4961,6.33593Q246.29834,1014.24023,239.89844,1014.23926Z" transform="translate(-66 -683)"/>
    <path class="a" d="M311.833,1090.27148a50.31843,50.31843,0,0,1-19.13574-3.32812q-8.1299-3.32666-12.22413-9.08789L291.09717,1068a27.53616,27.53616,0,0,0,9.02392,6.5918,28.17924,28.17924,0,0,0,11.83985,2.36816q5.63159,0,8.832-1.72851a5.66112,5.66112,0,0,0,3.20019-5.31153,3.981,3.981,0,0,0-2.17578-3.90429,21.96472,21.96472,0,0,0-6.01611-1.72852l-10.624-1.66309a43.99045,43.99045,0,0,1-8.32032-1.98437,21.73842,21.73842,0,0,1-6.65576-3.64844,16.96224,16.96224,0,0,1-4.48-5.63183,17.86741,17.86741,0,0,1-1.66406-8.06348q0-10.36816,7.936-16.25586,7.93506-5.88722,22.272-5.88867a46.471,46.471,0,0,1,16.57617,2.624,26.25527,26.25527,0,0,1,10.94385,7.48828l-9.47217,10.752a24.12911,24.12911,0,0,0-7.55176-5.376,25.92671,25.92671,0,0,0-11.13623-2.17578q-11.00976,0-11.00781,6.65527a4.0847,4.0847,0,0,0,2.17578,4.03223,21.77319,21.77319,0,0,0,6.01611,1.72851l10.4961,1.66407a44.107,44.107,0,0,1,8.31982,1.98339,22.61463,22.61463,0,0,1,6.72021,3.64844,16.689,16.689,0,0,1,4.54395,5.63184,17.90632,17.90632,0,0,1,1.66406,8.06445,19.4085,19.4085,0,0,1-8,16.38379Q326.55225,1090.27344,311.833,1090.27148Z" transform="translate(-66 -683)"/>
    <path class="a" d="M363.03223,1073.8877h20.9917v-36.35254h-20.9917V1022.6875h39.93554v51.2002h19.45606v14.84765h-59.3916Zm30.46386-59.64844q-6.40209,0-8.896-2.624a8.85553,8.85553,0,0,1-2.4961-6.33593v-3.71192a8.80227,8.80227,0,0,1,2.4961-6.39941q2.49609-2.55909,8.896-2.56055,6.39918,0,8.896,2.56055a8.80227,8.80227,0,0,1,2.49609,6.39941v3.71192a8.85552,8.85552,0,0,1-2.49609,6.33593Q399.896,1014.24023,393.49609,1014.23926Z" transform="translate(-66 -683)"/>
    <path class="a" d="M466.19873,1090.27148a38.19979,38.19979,0,0,1-13.82373-2.36816,28.27271,28.27271,0,0,1-10.43213-6.84766,30.35343,30.35343,0,0,1-6.59228-10.87988,46.55761,46.55761,0,0,1,0-28.92773,30.38306,30.38306,0,0,1,6.59228-10.88086,28.33349,28.33349,0,0,1,10.43213-6.84766,41.53234,41.53234,0,0,1,27.64795,0,28.3576,28.3576,0,0,1,10.43213,6.84766,30.41672,30.41672,0,0,1,6.5918,10.88086,46.55761,46.55761,0,0,1,0,28.92773,30.387,30.387,0,0,1-6.5918,10.87988,28.29671,28.29671,0,0,1-10.43213,6.84766A38.20437,38.20437,0,0,1,466.19873,1090.27148Zm0-14.08007q6.39916,0,9.98389-3.96778,3.58227-3.96533,3.584-11.26367v-10.49609q0-7.29639-3.584-11.26465-3.58447-3.96534-9.98389-3.96777-6.40211,0-9.98389,3.96777-3.58519,3.96972-3.584,11.26465V1060.96q0,7.29492,3.584,11.26367Q459.79713,1076.1919,466.19873,1076.19141Z" transform="translate(-66 -683)"/>
    <path class="a" d="M512.918,1088.73535V1022.6875h18.94336v12.03223h.76855a28.14552,28.14552,0,0,1,2.81543-5.248,19.19588,19.19588,0,0,1,4.03223-4.28809,18.89126,18.89126,0,0,1,5.50391-2.94433,21.641,21.641,0,0,1,7.10449-1.08789,23.0835,23.0835,0,0,1,8.7041,1.60058,17.80033,17.80033,0,0,1,6.7832,4.79981,23.19573,23.19573,0,0,1,4.416,7.80762,32.35353,32.35353,0,0,1,1.60058,10.624v42.75195H554.64551V1048.544q0-12.79834-11.13574-12.80079a16.22854,16.22854,0,0,0-4.28809.57618,11.44207,11.44207,0,0,0-3.77637,1.792,8.513,8.513,0,0,0-3.584,7.23242v43.3916Z" transform="translate(-66 -683)"/>
  </g>
</svg>
