<svg xmlns="http://www.w3.org/2000/svg" viewBox="0 0 1846.24805 469.50873">
  <defs>
    <style>
      .a {
        fill: #cf9766;
      }

      .b {
        fill: #f8f8f8;
      }

      .c {
        fill: none;
        stroke: #000;
        stroke-miterlimit: 10;
      }
    </style>
  </defs>
  <title>logobig</title>
  <g>
    <g>
      <path class="a" d="M872.90523,493.20819c3.15228-2.03863,4.81859.01491,22.877,2.00255,8.54676.94076,9.99648.68134,10.67313,1.9873,1.78822,3.45158-8.81832,12.14106-30.10442,29.37886-3.5813,2.90014-7.69583,6.16964-9.7929,4.89645-1.76463-1.07133-1.14-5.02078.18122-12.8758C870.58637,495.72664,871.10713,494.37108,872.90523,493.20819Z" transform="translate(-38.05764 -366.99912)"/>
      <path d="M900.9,515c-.18005.15-.36.29-.52.43-1.63,1.39-3.36,2.68-5.1,3.93-2.39,1.72-4.82,3.39-7.13,5.21-4.85,3.82995-9.47,9.04-14.88,12.06-8.63,4.81-12.95-2.67-13.33-10.37,0-.02-.01-.03-.01-.05-.01-.29-.02-.58-.02-.87v-.05c.02-.25.04-.49.06-.75v-.01c.49-3.05,3.92-3.99,6.26-2.83a3.89715,3.89715,0,0,1,2.2,3.64c.05,6.21,2.4,2.51,5.97-.43,2.56995-2.12,5.11-4.29,7.72-6.36,4.4-3.5,9.22-6.48,13.42-10.2,1.12-.98,8.54-7.34,8.23-8.76-.06-.29-6.30005-.05-8.07-.13a80.66149,80.66149,0,0,1-21.08-4.04c-.07-.02-.15-.05-.22-.07a4.12343,4.12343,0,0,1-2.2-1.56c-2.05-2.89.23-8.02,4.47-6.66.49.16.98.31,1.47.47a72.38524,72.38524,0,0,0,20.51,3.4c4.4.04,10.83-1.12,13.99,2.91C917.95,500.69,905.8,510.86,900.9,515Z" transform="translate(-38.05764 -366.99912)"/>
      <path d="M922.6,489.06c-9.16,0-9.15-14.2,0-14.2S931.74,489.06,922.6,489.06Z" transform="translate(-38.05764 -366.99912)"/>
      <path d="M933.66535,560.03393c-2.38666-1.64793-4.71645-3.40945-6.98935-5.25611.45451-.31266.90919-.59671,1.3637-.88093C932.131,551.3115,935.90981,556.68136,933.66535,560.03393Z" transform="translate(-38.05764 -366.99912)"/>
      <path d="M1126.43994,548.61a192.08455,192.08455,0,0,1-238.21,38.02,4.31421,4.31421,0,0,1,0-7.36q19.23-12.24,38.45-24.49c.45-.31.91-.6,1.36-.88a4.50568,4.50568,0,0,1,.42-.24,3.88334,3.88334,0,0,1,.42-.19,1.42364,1.42364,0,0,1,.27-.09.48485.48485,0,0,0,.06995-.03c.04-.01.07-.02.1-.03,4.01-1.31,9.07,1.9,7.06,4.91a19.05264,19.05264,0,0,1-2.47,1.96c-.7.5-1.33.93-1.55,1.07q-16.8,10.695-33.61,21.42a185.4089,185.4089,0,0,0,19.9,8.94h.01q4.5,1.71,9.06,3.17a180.62518,180.62518,0,0,0,24.19,5.99q4.245.765,8.5,1.3a181.02425,181.02425,0,0,0,24.8,1.49h.01c3.26-.02,6.52-.14,9.77-.34H995a182.555,182.555,0,0,0,21.88-2.68c3.33-.6,6.62-1.28,9.92005-2.08a179.86166,179.86166,0,0,0,21.54993-6.64q5.1-1.90494,10.1-4.15a181.09642,181.09642,0,0,0,21.46-11.33q4.53-2.775,8.92017-5.85a184.64522,184.64522,0,0,0,22.09985-18.14c-32.61987,3.78-63.96-10.71-91.88995-27.39a3.96475,3.96475,0,0,1-1.85-2.27c-1.02-3.21,2.43-7.30005,6.14-5.08.82.49,1.65.98,2.48,1.47,29.19995,17.19,62.22,31.89,96.48,22.39C1126.55005,540.32,1129.22,545.54,1126.43994,548.61Z" transform="translate(-38.05764 -366.99912)"/>
      <g>
        <path d="M891.07,461.68a4.90657,4.90657,0,0,0-1.33-.26c-35.54-1.85-68.78-15-103.59-21.08-31.88-5.55-60.52-1.11-91.06,8.77a523.28148,523.28148,0,0,0-166.24,90.44c-3.12,2.53-.28,7.07,3.02,7.27A325.3271,325.3271,0,0,0,695.4,515.06c13.41-6.57,26.2-14.32,40.69-18.36,14.4-4,29.55-5.91,44.46-6.9,28.24-1.86,57.2.34,83.72,10.59.54.21,1.07.42,1.6.63a3.33582,3.33582,0,0,0,4.22-1.09,4.90573,4.90573,0,0,0,.86-3.49,4.41309,4.41309,0,0,0-2.8-3.63c-.38-.15-.77-.31-1.16-.46-46.3-18.11-109.88-17.17-154.68,4.5-10.82,5.22-21.47,10.35-32.24,15.11a.616.616,0,0,1-.7-.98q12.15-13.425,24.27-26.83-24.195,17.98507-48.41,35.99a1.13262,1.13262,0,0,1-1.56-1.62q13.59-17.205,27.24-34.37-27.47991,17.68506-54.94,35.4a1.13717,1.13717,0,0,1-1.42-1.76l36.48-36.49Q631.15,494.77,601.28,508.24a1.14338,1.14338,0,0,1-1.11005-1.99l24.41-16.24a196.47415,196.47415,0,0,1,31.72-17.3q22.425-9.54,45.78-16.86c33.02-10.34,62.93-11.88,96.74-4.24,27.51,6.2,54.39,14.94,82.48,17.69q4.2.42,8.44.64C894.73,470.19,895.16,463.15,891.07,461.68ZM534.88,545.57c-1-2.41-1.99-4.83-3.01-7.27,1.47.08,2.95.17,4.43.25a3.28072,3.28072,0,0,0-.29,2.42,3.63146,3.63146,0,0,0,2.16,1.99C537.07,543.81,535.96,544.69,534.88,545.57Z" transform="translate(-38.05764 -366.99912)"/>
        <path d="M538.17375,542.95844c-1.1081.85231-2.2162,1.73307-3.29586,2.61383-.99434-2.41493-1.98868-4.82986-3.01164-7.2734q2.2162.128,4.43223.25578a3.24631,3.24631,0,0,0-.28405,2.41493A3.5902,3.5902,0,0,0,538.17375,542.95844Z" transform="translate(-38.05764 -366.99912)"/>
      </g>
      <path d="M1086.2,578.58q-3.16479-1.08-6.29-2.23A263.82866,263.82866,0,0,1,1042.15,559.01c-4.79-2.68-.49011-10.04,4.29993-7.36005a252.18881,252.18881,0,0,0,42.02,18.71,3.83965,3.83965,0,0,1,.36011.14C1093.53,572.51,1091.28,580.31,1086.2,578.58Z" transform="translate(-38.05764 -366.99912)"/>
      <path d="M1053.65991,594.75q-2.68487-1.41-5.30993-2.92a165.97914,165.97914,0,0,1-30.5-22.5c-4.03-3.75,2.01-9.76,6.02-6.03a157.271,157.271,0,0,0,34.09,24.09c.17.09.34009.19.49.29C1062.52,590.46,1058.34009,597.21,1053.65991,594.75Z" transform="translate(-38.05764 -366.99912)"/>
      <path d="M988.53,608.85a61.11038,61.11038,0,0,1-3.31006-5.28h-.01a65.28759,65.28759,0,0,1-8.07-29.16c-.05-1.03-.08-2.08-.08-3.12,0-5.5,8.52-5.49,8.53,0,0,.99.02,1.97.06994,2.94a56.43368,56.43368,0,0,0,9.33,29H995c.28.44.58.88.89,1.32C999.04,609.06,991.64,613.31,988.53,608.85Z" transform="translate(-38.05764 -366.99912)"/>
      <g>
        <path class="b" d="M1016.88,600.55A182.555,182.555,0,0,1,995,603.23h-.01a56.43368,56.43368,0,0,1-9.33-29,111.38572,111.38572,0,0,0,13.41-1.67A64.16445,64.16445,0,0,0,1016.88,600.55Z" transform="translate(-38.05764 -366.99912)"/>
        <path d="M1026.80005,598.47c-3.30005.8-6.59,1.48-9.92005,2.08a64.16445,64.16445,0,0,1-17.81-27.99,111.38572,111.38572,0,0,1-13.41,1.67q-4.275.285-8.52.18a82.04089,82.04089,0,0,1-11.08-1,72.65308,72.65308,0,0,1-8.33-1.78,70.2479,70.2479,0,0,1-11.1-4.07c-.25-.1-.5-.22-.75-.34-2.26-1.09-4.48-2.29-6.64-3.58-1.82-1.08-3.59-2.23-5.33-3.45-.08-.05-.16-.1-.24-.16a4.01576,4.01576,0,0,0,.67-2.24,3.862,3.862,0,0,0-.03-.48,2.54674,2.54674,0,0,0-.04-.29,1.35936,1.35936,0,0,0-.06-.29c-.02-.1-.05-.22-.08-.32-.01-.01-.01-.01-.01-.02a3.83308,3.83308,0,0,0-.22-.56,1.91388,1.91388,0,0,0-.16-.32.052.052,0,0,0-.02-.04,2.2037,2.2037,0,0,0-.15-.26c-.01-.01-.01-.02-.02-.03a3.49513,3.49513,0,0,0-.37-.49c-.1-.12-.21-.24-.32-.35a2.7931,2.7931,0,0,0-.31-.28,2.61175,2.61175,0,0,0-.34-.24,3.34938,3.34938,0,0,0-.36-.21,1.68394,1.68394,0,0,0-.28-.12,1.66658,1.66658,0,0,0-.2-.08,2.417,2.417,0,0,0-.36-.1,1.96519,1.96519,0,0,0-.35-.06,2.5915,2.5915,0,0,0-.4-.03c-.09,0-.19,0-.29.01a1.2397,1.2397,0,0,0-.27.03.85667.85667,0,0,0-.27.05c-.03,0-.07.01-.11.01-.03.01-.06.02-.1.03a.48485.48485,0,0,1-.06995.03,1.42364,1.42364,0,0,0-.27.09,3.88334,3.88334,0,0,0-.42.19,4.50568,4.50568,0,0,0-.42.24c-.45.28-.91.57-1.36.88-11.6-9.46-21.63-21.2-30.43-32.59a4.4,4.4,0,0,1-.97-2.83c.04-2.99,3.08-5.63,5.62-4.36a3.88661,3.88661,0,0,1,1.37,1.17c11.22,14.49,24.21,29.32,39.86,39.2,17.48,11.03,37.48,12.53,57.28,8.47a7.41656,7.41656,0,0,1,4.22.87,7.312,7.312,0,0,1,2.63,2.44l.22.47c3.27,12.29,6.98,17.47,9.92,19.87.93.76,3.92,5,9.18006,9.31A3.5334,3.5334,0,0,1,1026.80005,598.47Z" transform="translate(-38.05764 -366.99912)"/>
        <path d="M1019.55384,602.85045c-.909-.73873-1.81805-1.5059-2.67054-2.30134,3.324-.59671,6.62016-1.27856,9.91568-2.07418C1028.07737,601.82767,1023.13375,605.74833,1019.55384,602.85045Z" transform="translate(-38.05764 -366.99912)"/>
      </g>
      <g>
        <path class="b" d="M985.21,603.57a181.02425,181.02425,0,0,1-24.8-1.49,170.45741,170.45741,0,0,0,5.65-28.67,82.04089,82.04089,0,0,0,11.08,1A65.28759,65.28759,0,0,0,985.21,603.57Z" transform="translate(-38.05764 -366.99912)"/>
        <path d="M966.29,571.29c-.07.71-.15,1.42-.23,2.12a170.45741,170.45741,0,0,1-5.65,28.67c-.15.53-.31,1.06-.47,1.59-1.59,5.25-9.81,3-8.22-2.26.06006-.21.13-.42.19-.63a159.26429,159.26429,0,0,0,5.82-29.15c.02-.11.03-.23.04-.34C958.31,565.87,966.84,565.83,966.29,571.29Z" transform="translate(-38.05764 -366.99912)"/>
      </g>
      <g>
        <path class="b" d="M957.73,571.63a159.26429,159.26429,0,0,1-5.82,29.15,180.62518,180.62518,0,0,1-24.19-5.99,90.802,90.802,0,0,0,18.59-26.33,4.621,4.621,0,0,0,.32-.9A70.2479,70.2479,0,0,0,957.73,571.63Z" transform="translate(-38.05764 -366.99912)"/>
        <path class="b" d="M939.24,563.64a3.68434,3.68434,0,0,0-.29.52,84.61308,84.61308,0,0,1-20.29,27.46h-.01a185.4089,185.4089,0,0,1-19.9-8.94q16.785-10.695,33.61-21.42c.22-.14.85-.57,1.55-1.07C935.65,561.41,937.42,562.56,939.24,563.64Z" transform="translate(-38.05764 -366.99912)"/>
        <path d="M946.63,567.56a4.621,4.621,0,0,1-.32.9,90.802,90.802,0,0,1-18.59,26.33c-1.06995,1.06-2.16,2.09-3.29,3.09-4.09,3.64-10.13-2.37-6.03-6.03.08-.08.17-.15.25-.23h.01a84.61308,84.61308,0,0,0,20.29-27.46,3.68434,3.68434,0,0,1,.29-.52C941.65,559.78,947.7,563.22,946.63,567.56Z" transform="translate(-38.05764 -366.99912)"/>
      </g>
      <path class="c" d="M861.329,494.08478" transform="translate(-38.05764 -366.99912)"/>
      <path class="b" d="M881.3,469.3c-6.25,6.31-10.93,14.32-14.31,23.05-46.3-18.11-109.88-17.17-154.68,4.5-10.82,5.22-21.47,10.35-32.24,15.11a.616.616,0,0,1-.7-.98q12.15-13.425,24.27-26.83-24.195,17.98507-48.41,35.99a1.13262,1.13262,0,0,1-1.56-1.62q13.59-17.205,27.24-34.37-27.47991,17.68506-54.94,35.4a1.13717,1.13717,0,0,1-1.42-1.76l36.48-36.49Q631.15,494.77,601.28,508.24a1.14338,1.14338,0,0,1-1.11005-1.99l24.41-16.24a196.47415,196.47415,0,0,1,31.72-17.3q22.425-9.54,45.78-16.86c33.02-10.34,62.93-11.88,96.74-4.24C826.33,457.81,853.21,466.55,881.3,469.3Z" transform="translate(-38.05764 -366.99912)"/>
      <path class="b" d="M1305.49,379.28l-73.39-3.1,2.3-.14c-2.53-.03-5.08-.06-7.61-.09-50.72-.51-109.02-3.92-154.16,23.19-38.16,22.93-66.94,64.69-114.02,70.43a67.7537,67.7537,0,0,1-26.48-1.76c-8.49-2.36-15.91-4.8-24.92-3.01-13.87,2.75-23.09,11.57-29.07,22.8a72.38524,72.38524,0,0,0,20.51,3.4c4.4.04,10.83-1.12,13.99,2.91,5.31,6.78-6.84,16.95-11.74,21.09a3.88661,3.88661,0,0,1,1.37,1.17c11.22,14.49,24.21,29.32,39.86,39.2,17.48,11.03,37.48,12.53,57.28,8.47a7.41656,7.41656,0,0,1,4.22.87,7.312,7.312,0,0,1,2.63,2.44l.22.47c3.27,12.29,6.98,17.47,9.92,19.87.93.76,3.92,5,9.18006,9.31a3.5334,3.5334,0,0,1,1.22,1.67,179.86166,179.86166,0,0,0,21.54993-6.64,165.97914,165.97914,0,0,1-30.5-22.5c-4.03-3.75,2.01-9.76,6.02-6.03a157.271,157.271,0,0,0,34.09,24.09c.17.09.34009.19.49.29a181.09642,181.09642,0,0,0,21.46-11.33A263.82866,263.82866,0,0,1,1042.15,559.01c-4.79-2.68-.49011-10.04,4.29993-7.36005a252.18881,252.18881,0,0,0,42.02,18.71,3.83965,3.83965,0,0,1,.36011.14,184.64522,184.64522,0,0,0,22.09985-18.14c-32.61987,3.78-63.96-10.71-91.88995-27.39a3.96475,3.96475,0,0,1-1.85-2.27,4.20116,4.20116,0,0,1-.56-6.33c22.98-24.24,47.93006-47.08,77.76-62.6,27.76-14.46,60.02991-25.88,90.86-31.36a165.98166,165.98166,0,0,1,24.71-2.21c11.7-.31,23.39-.95,35.08008-1.37,7.05994-.24,13.74-1.52,20.61987-1.22,1.3.06,1.76-1.73.54-2.1-13.33-4.18-26.6499-6.57-39.98-10.75q31.96509-.675,63.96-1.36005a1.09956,1.09956,0,0,0,.34009-2.16l-48.87-11.42c21.27991-3.52,42.62-4.89,63.9-8.41A1.06585,1.06585,0,0,0,1305.49,379.28ZM922.6,489.06c-9.16,0-9.15-14.2,0-14.2S931.74,489.06,922.6,489.06Z" transform="translate(-38.05764 -366.99912)"/>
      <path d="M1391.89,377.03a4.72869,4.72869,0,0,1-.56994.54c-21.93006,20.97-52.08008,31.97-80.89014,39.87-32.66992,8.92-64.97,10.45-98.58984,11.1-36.11011.71-74.12012,13.87-106.54,29.33-30.69006,14.62-56.12012,36.92-79.49,61.22q-1.59009,1.635-3.16,3.3a3.84057,3.84057,0,0,1-5.46.31,4.20116,4.20116,0,0,1-.56-6.33c22.98-24.24,47.93006-47.08,77.76-62.6,27.76-14.46,60.02991-25.88,90.86-31.36a165.98166,165.98166,0,0,1,24.71-2.21c11.7-.31,23.39-.95,35.08008-1.37,7.05994-.24,13.74-1.52,20.61987-1.22,1.3.06,1.76-1.73.54-2.1-13.33-4.18-26.6499-6.57-39.98-10.75q31.96509-.675,63.96-1.36005a1.09956,1.09956,0,0,0,.34009-2.16l-48.87-11.42c21.27991-3.52,42.62-4.89,63.9-8.41a1.06585,1.06585,0,0,0-.06006-2.13l-73.39-3.1,2.3-.14c-2.53-.03-5.08-.06-7.61-.09-50.72-.51-109.02-3.92-154.16,23.19-38.16,22.93-66.94,64.69-114.02,70.43a67.7537,67.7537,0,0,1-26.48-1.76c-8.49-2.36-15.91-4.8-24.92-3.01-13.87,2.75-23.09,11.57-29.07,22.8q-1.245,2.31-2.29,4.77c-.44,1-.85,2.02-1.23,3.05a106.27964,106.27964,0,0,0-6.19,29.92,4.23258,4.23258,0,0,1-2.92,3.82c-2.32.81-5.23-.16-5.57-2.9,0-.02-.01-.03-.01-.05a4.15553,4.15553,0,0,1-.02-.87v-.05c.02-.25.04-.49.06-.75v-.01A121.59723,121.59723,0,0,1,864.27,500.39c.79-2.73,1.69995-5.42,2.72-8.04,3.38-8.73,8.06-16.74,14.31-23.05a45.88627,45.88627,0,0,1,30.6-13.79c7.16-.49,13.41,1.3,20.2,3.26a62.6802,62.6802,0,0,0,30.09,1.65c22.64-4.32,42.02-18.04,59.41-32.44,15.20007-12.53,29.78-26.03,46.74011-36.2C1085.13,381.72,1103.88,375.7,1123.11,372.37c42.04992-7.3,85.75-5.25,128.2301-4.63q67.9649,1.065,136.02991,2.05c.49.03.94006.03,1.42.03C1392.88,369.87,1393.93994,374.65,1391.89,377.03Z" transform="translate(-38.05764 -366.99912)"/>
    </g>
    <g>
      <path d="M196.83772,592h48.73379a4.87149,4.87149,0,0,1,4.87149,4.87149V829.1403a4.87149,4.87149,0,0,1-4.87149,4.87149h-31.7029a4.87149,4.87149,0,0,1-4.87149-4.87149V646.09552l1.49091,9.5411a4.87133,4.87133,0,0,1-.15723,2.18545l-44.88213,145.7878a4.8715,4.8715,0,0,1-4.65585,3.43814H127.684a4.8715,4.8715,0,0,1-4.64665-3.40858L78.15351,661.0754a4.87145,4.87145,0,0,1-.19069-2.03882l1.54069-12.94106V829.1403a4.87149,4.87149,0,0,1-4.87149,4.87149H42.92913a4.87149,4.87149,0,0,1-4.87149-4.87149V596.87149A4.87149,4.87149,0,0,1,42.92913,592H97.12168a5.04888,5.04888,0,0,1,4.85852,3.67558L143.43109,752.216a.852.852,0,0,0,1.6398,0l47.079-156.66954A4.87148,4.87148,0,0,1,196.83772,592Z" transform="translate(-38.05764 -366.99912)"/>
      <path d="M286.20991,823.27653q-13.73107-13.23337-13.73108-40.19648,0-25.63108,15.39558-38.45005,15.39423-12.81349,46.18813-12.81623h43.277l2.32948,34.78788H334.22912q-10.32084,0-15.47888,4.07727-5.16144,4.08206-5.16008,12.40113,0,8.48772,6.49141,12.56635,6.49073,4.08,19.64081,4.07727,18.30675,0,27.21366-4.16056,8.90145-4.15784,8.90554-12.98282l3.49422,25.1327a23.575,23.575,0,0,1-8.571,15.81342,49.5614,49.5614,0,0,1-18.97583,9.73574,87.43225,87.43225,0,0,1-24.05125,3.24571Q299.93963,836.50786,286.20991,823.27653Zm89.63167-98.78573q0-11.984-7.98931-18.47607-7.99-6.49072-22.63664-6.49141a60.27012,60.27012,0,0,0-19.14241,3.16241,58.51116,58.51116,0,0,0-12.23347,5.65936,7.07458,7.07458,0,0,1-8.70691-.89434l-19.12442-18.78664a7.081,7.081,0,0,1,.35715-10.37754,71.95729,71.95729,0,0,1,21.89792-12.96671,103.37625,103.37625,0,0,1,37.61712-6.5747q22.6346,0,38.61527,7.57285a54.39788,54.39788,0,0,1,24.38443,21.97029q8.40373,14.3988,8.40578,34.70459v105.844a5.17488,5.17488,0,0,1-5.17488,5.17488H381.01647a5.17489,5.17489,0,0,1-5.17489-5.17488Z" transform="translate(-38.05764 -366.99912)"/>
      <path d="M448.0532,661.24122h34.33934a5.40091,5.40091,0,0,1,5.40091,5.40091V829.04165a4.97014,4.97014,0,0,1-4.97014,4.97014H447.62242a4.97013,4.97013,0,0,1-4.97013-4.97014V666.64213A5.40091,5.40091,0,0,1,448.0532,661.24122Zm76.74423,43.109a29.34558,29.34558,0,0,0-10.28735-1.6645q-12.74615,0-19.73076,8.90555-6.98713,8.90555-6.98587,24.71759l-3.22464-44.94009q6.59981-15.48024,17.12081-24.05262a35.76355,35.76355,0,0,1,23.10781-8.571,45.87823,45.87823,0,0,1,18.04161,3.41229,38.97149,38.97149,0,0,1,11.08688,7.08942,4.86068,4.86068,0,0,1,.7845,6.27077L535.2702,704.88828a4.83886,4.83886,0,0,1-6.67627,1.34239A20.34039,20.34039,0,0,0,524.79743,704.35023Z" transform="translate(-38.05764 -366.99912)"/>
      <path d="M594.60789,592H599.881a20.16666,20.16666,0,0,1,20.16665,20.16666v5.27312A20.16666,20.16666,0,0,1,599.881,637.60644h-5.27313a20.16666,20.16666,0,0,1-20.16665-20.16666v-5.27312A20.16666,20.16666,0,0,1,594.60789,592ZM580.2751,661.24122h33.93871a5.83386,5.83386,0,0,1,5.83386,5.83387V828.17793a5.83386,5.83386,0,0,1-5.83386,5.83386H580.2751a5.83386,5.83386,0,0,1-5.83386-5.83386V667.07509A5.83386,5.83386,0,0,1,580.2751,661.24122Z" transform="translate(-38.05764 -366.99912)"/>
      <path d="M696.91091,766.26848q0,12.48374,7.07446,19.39093,7.07241,6.90855,19.89068,6.90787,12.81351,0,19.72274-7.07446,6.90446-7.07241,6.90787-20.22249l2.33085,37.78234A53.66144,53.66144,0,0,1,736.77558,826.854q-11.23639,9.65518-27.38162,9.65382-27.79808,0-42.94242-17.89166-15.14844-17.891-15.14571-50.68322V666.50633a5.26511,5.26511,0,0,1,5.26511-5.26511H691.6458a5.26511,5.26511,0,0,1,5.26511,5.26511Zm58.86086-105.02726h34.90964a5.26511,5.26511,0,0,1,5.26511,5.26511V828.74669a5.26511,5.26511,0,0,1-5.26511,5.2651H755.77177a5.26511,5.26511,0,0,1-5.26511-5.2651V666.50633A5.26511,5.26511,0,0,1,755.77177,661.24122Z" transform="translate(-38.05764 -366.99912)"/>
      <path d="M874.16384,836.50786a5.73408,5.73408,0,0,1-1.30853-.148q-2.11186-.4894-11.20351-2.59793a95.48883,95.48883,0,0,1-22.2041-8.07261,81.13616,81.13616,0,0,1-14.3381-9.33469,5.87965,5.87965,0,0,1-1.204-7.74274l16.60868-25.64726a5.83714,5.83714,0,0,1,8.2202-1.62369,80.06852,80.06852,0,0,0,16.28223,8.72893,57.47352,57.47352,0,0,0,20.99305,4.32852q12.91807,0,20.05026-3.57888,7.13218-3.57819,7.13274-9.9037,0-5.82506-3.09552-8.82225a17.41636,17.41636,0,0,0-7.93974-4.24385,105.74946,105.74946,0,0,0-13.591-2.24756q-2.42265-.32976-4.91266-.665-2.49054-.3318-5.04623-.66634a7.57712,7.57712,0,0,0-1.14371-.24988,8.57718,8.57718,0,0,0-1.14371-.08329q-15.61232-2.49471-25.03027-6.15824-9.4207-3.65806-15.94681-14.06426-6.52776-10.40073-6.52666-30.20949,0-17.30928,6.72868-29.62779a44.29968,44.29968,0,0,1,19.51263-18.72459q12.784-6.40674,30.952-6.40811a86.49181,86.49181,0,0,1,21.194,2.66265,94.81815,94.81815,0,0,1,33.79738,16.15229,5.89656,5.89656,0,0,1,1.391,7.962l-15.79078,23.84448a5.84786,5.84786,0,0,1-7.89343,1.76786,78.77334,78.77334,0,0,0-14.39769-6.78421,57.65085,57.65085,0,0,0-19.10858-3.49422q-11.17106,0-17.3599,3.16241-6.18995,3.16242-6.19,8.82089a7.86878,7.86878,0,0,0,3.29756,6.74129,21.55859,21.55859,0,0,0,8.208,3.49558q4.91156,1.08349,14.33171,2.41277,1.21215.168,2.42321.33317,1.2105.168,2.4221.33318a4.041,4.041,0,0,0,1.21106.16658,4.16212,4.16212,0,0,1,1.21105.16659q16.28131,2.33289,26.50958,5.99165,10.2255,3.66216,17.42723,14.64731,7.19677,10.98445,7.20008,32.29045,0,17.975-6.99805,30.79254A46.33637,46.33637,0,0,1,918.441,829.76793q-13.45791,6.74061-32.43126,6.73993Z" transform="translate(-38.05764 -366.99912)"/>
    </g>
  </g>
  <g>
    <path class="b" d="M1165.82577,660.14718h32.081a3.86544,3.86544,0,0,1,3.61847,5.225l-59.19,157.539a11.22461,11.22461,0,0,1-10.50745,7.27679h-16.23342a11.2246,11.2246,0,0,1-10.50742-7.27671l-59.19121-157.539a3.86544,3.86544,0,0,1,3.61846-5.225h43.41563a4.98288,4.98288,0,0,1,4.83155,3.7642l25.94973,102.88,36.46262-102.55256A5.94948,5.94948,0,0,1,1165.82577,660.14718Z" transform="translate(-38.05764 -366.99912)"/>
    <path class="b" d="M1247.22046,592h4.92807a19.97888,19.97888,0,0,1,19.97888,19.97889V616.907a19.97888,19.97888,0,0,1-19.97888,19.97888h-4.92807a19.97888,19.97888,0,0,1-19.97888-19.97888v-4.92806A19.97888,19.97888,0,0,1,1247.22046,592Zm-15.51529,68.14718h35.95865a4.46359,4.46359,0,0,1,4.46359,4.46359V825.7243a4.46359,4.46359,0,0,1-4.46359,4.46359h-35.95865a4.46359,4.46359,0,0,1-4.46359-4.46359V664.61077A4.46359,4.46359,0,0,1,1231.70517,660.14718Z" transform="translate(-38.05764 -366.99912)"/>
    <path class="b" d="M1359.52724,832.64452a4.45721,4.45721,0,0,1-.99009-.10682q-1.92984-.43036-11.63207-2.59574a100.14087,100.14087,0,0,1-22.70809-7.94506,82.94825,82.94825,0,0,1-15.42612-9.79528,4.67778,4.67778,0,0,1-.97956-6.25325l18.27194-27.15351a4.60425,4.60425,0,0,1,6.4018-1.27679,83.51058,83.51058,0,0,0,17.8813,9.42218,60.77231,60.77231,0,0,0,21.46955,4.26013q13.2113,0,20.50537-3.52233,7.29407-3.52166,7.29463-9.74722,0-5.733-3.16579-8.68285a18.03534,18.03534,0,0,0-8.12-4.1768,112.02631,112.02631,0,0,0-13.89943-2.212q-2.47765-.32455-5.02417-.65448-2.54707-.32656-5.16077-.65581a8.01081,8.01081,0,0,0-1.16967-.24593,9.1085,9.1085,0,0,0-1.16967-.082q-15.96669-2.45529-25.5984-6.06093-9.63455-3.60027-16.30878-13.842-6.67592-10.23639-6.67479-29.73216,0-17.03579,6.88141-29.15967a44.58991,44.58991,0,0,1,19.95552-18.42872q13.07412-6.30552,31.65449-6.30687a91.73249,91.73249,0,0,1,21.675,2.62058,99.06575,99.06575,0,0,1,20.7131,7.53518,96.743,96.743,0,0,1,14.69452,8.98028,4.67931,4.67931,0,0,1,1.1309,6.41651L1412.59539,708.578a4.60706,4.60706,0,0,1-6.14158,1.3772,82.35153,82.35153,0,0,0-15.922-7.38012,61.02063,61.02063,0,0,0-19.5423-3.439q-11.42462,0-17.75393,3.11244-6.33045,3.11244-6.33045,8.68151a7.649,7.649,0,0,0,3.3724,6.63477,22.50226,22.50226,0,0,0,8.39431,3.44035q5.023,1.06638,14.657,2.37465,1.23968.1653,2.47821.32791,1.238.1653,2.47708.32791a4.28319,4.28319,0,0,0,1.23854.16395,4.41205,4.41205,0,0,1,1.23854.164q16.65087,2.296,27.1113,5.897,10.4576,3.60432,17.82279,14.41588,7.36013,10.81091,7.36351,31.78025,0,17.69092-7.15689,30.306a46.64773,46.64773,0,0,1-20.91859,19.2485q-13.76338,6.6341-33.16739,6.63343Z" transform="translate(-38.05764 -366.99912)"/>
    <path class="b" d="M1490.85461,592h6.48532a19.20026,19.20026,0,0,1,19.20026,19.20026v6.48531a19.20025,19.20025,0,0,1-19.20026,19.20026h-6.48532a19.20025,19.20025,0,0,1-19.20026-19.20026v-6.48531A19.20026,19.20026,0,0,1,1490.85461,592Zm-12.10811,68.14718H1509.448a7.09215,7.09215,0,0,1,7.09215,7.09215V823.09574a7.09215,7.09215,0,0,1-7.09215,7.09215H1478.7465a7.09215,7.09215,0,0,1-7.09215-7.09215V667.23933A7.09215,7.09215,0,0,1,1478.7465,660.14718Z" transform="translate(-38.05764 -366.99912)"/>
    <path class="b" d="M1587.06067,823.963a58.14388,58.14388,0,0,1-25.0635-25.30943q-8.59953-16.62454-8.59953-40.05321V730.91628q0-23.0994,8.59953-39.56135a57.88587,57.88587,0,0,1,25.0635-25.06484q16.46329-8.59955,39.72531-8.59954,23.26066,0,39.7253,8.59954a57.88891,57.88891,0,0,1,25.06485,25.06484q8.59953,16.4633,8.59953,39.56135v28.17594q0,23.26269-8.59953,39.72531a58.35559,58.35559,0,0,1-25.06485,25.14547q-16.46328,8.68421-39.7253,8.68152Q1603.52329,832.64452,1587.06067,823.963Zm60.694-42.50984q7.53316-7.94439,7.53518-22.36094V730.91628q0-14.25192-7.53518-22.115-7.53719-7.86375-21.13263-7.86443-13.43349,0-20.88535,7.86443-7.45656,7.86174-7.45454,22.115v28.17594q0,14.41722,7.37256,22.36094,7.3719,7.94641,20.96733,7.94506Q1640.2188,789.39822,1647.75465,781.45316Z" transform="translate(-38.05764 -366.99912)"/>
    <path class="b" d="M1745.6469,660.14718h35.856a4.51627,4.51627,0,0,1,4.51628,4.51627V825.19692a4.991,4.991,0,0,1-4.991,4.991h-34.90659a4.991,4.991,0,0,1-4.991-4.991V664.66345A4.51627,4.51627,0,0,1,1745.6469,660.14718Zm93.773,67.00084q0-12.44775-7.1226-19.33047-7.128-6.88-20.23357-6.88071-12.44977,0-19.24984,6.96268-6.79739,6.96471-6.79469,19.57641l-3.44035-37.67722q7.69241-16.05408,18.42738-24.08112,10.72422-8.025,26.94762-8.027,26.867,0,41.60675,18.10082,14.74782,18.10417,14.74514,51.1927v98.21285a4.991,4.991,0,0,1-4.991,4.991h-34.9039a4.991,4.991,0,0,1-4.991-4.991Z" transform="translate(-38.05764 -366.99912)"/>
  </g>
</svg>
