<svg xmlns="http://www.w3.org/2000/svg" viewBox="0 0 801.30401 596.17373">
  <defs>
    <style>
      .a {
        fill: #cf9766;
      }

      .b {
        fill: none;
        stroke: #000;
        stroke-miterlimit: 10;
      }
    </style>
  </defs>
  <title>mv2</title>
  <g>
    <path d="M739.47123,922.69225h43.015a4.29984,4.29984,0,0,1,4.29984,4.29983v205.01278a4.29985,4.29985,0,0,1-4.29984,4.29984H754.5036a4.29984,4.29984,0,0,1-4.29983-4.29984v-161.565l1.316,8.42148a4.29986,4.29986,0,0,1-.13879,1.929l-39.61535,128.68a4.29983,4.29983,0,0,1-4.1095,3.03469H678.43244a4.29983,4.29983,0,0,1-4.10137-3.00859L634.71425,983.66186a4.29978,4.29978,0,0,1-.16831-1.79957l1.3599-11.42247v161.565a4.29985,4.29985,0,0,1-4.29984,4.29984H603.62334a4.29984,4.29984,0,0,1-4.29983-4.29984V926.99208a4.29983,4.29983,0,0,1,4.29983-4.29983h47.83323a4.4564,4.4564,0,0,1,4.28838,3.24426l36.58676,138.17091a.752.752,0,0,0,1.44737,0l41.55443-138.28485A4.29982,4.29982,0,0,1,739.47123,922.69225Z" transform="translate(-599.32351 -702.47078)"/>
    <path d="M818.35588,1126.82918q-12.11979-11.68047-12.11979-35.47954,0-22.62336,13.589-33.93806,13.58775-11.30986,40.76809-11.31228h38.19854l2.05612,30.70563H860.74018q-9.10973,0-13.66248,3.59882-4.55577,3.603-4.55456,10.94589,0,7.49171,5.72966,11.09173,5.72906,3.60122,17.336,3.59881,16.15851,0,24.02022-3.67233,7.8569-3.66993,7.8605-11.45932l3.08419,22.18345a20.8086,20.8086,0,0,1-7.56523,13.95776,43.74556,43.74556,0,0,1-16.74907,8.59329,77.17275,77.17275,0,0,1-21.22891,2.86483Q830.47445,1138.50786,818.35588,1126.82918Zm79.11366-87.19352q0-10.5777-7.05179-16.308-7.0524-5.72907-19.9803-5.72966a53.19743,53.19743,0,0,0-16.89611,2.79131,51.6442,51.6442,0,0,0-10.7979,4.99525,6.24443,6.24443,0,0,1-7.68519-.78939L818.178,1008.01312a6.25007,6.25007,0,0,1,.31523-9.15977,63.51338,63.51338,0,0,1,19.32828-11.44511,91.24534,91.24534,0,0,1,33.20286-5.80317q19.97848,0,34.08389,6.6842a48.01446,48.01446,0,0,1,21.523,19.39214q7.41758,12.70914,7.41939,30.63211v93.42355a4.56763,4.56763,0,0,1-4.56763,4.56763H902.03717a4.56763,4.56763,0,0,1-4.56763-4.56763Z" transform="translate(-599.32351 -702.47078)"/>
    <path d="M961.20735,983.80822h30.30972a4.76714,4.76714,0,0,1,4.76713,4.76714v143.34243a4.38691,4.38691,0,0,1-4.38691,4.38691H960.82712a4.38691,4.38691,0,0,1-4.38691-4.38691V988.57536A4.76714,4.76714,0,0,1,961.20735,983.80822Zm67.73853,38.0503a25.902,25.902,0,0,0-9.08016-1.46917q-11.25042,0-17.41541,7.8605-6.16722,7.86051-6.16611,21.81707l-2.84624-39.66651q5.82534-13.66369,15.11174-21.23012a31.56678,31.56678,0,0,1,20.39618-7.56522,40.49476,40.49476,0,0,1,15.92448,3.01186,34.39827,34.39827,0,0,1,9.78587,6.25751,4.29028,4.29028,0,0,1,.69244,5.5349l-17.159,25.92409a4.271,4.271,0,0,1-5.89284,1.18486A17.95373,17.95373,0,0,0,1028.94588,1021.85852Z" transform="translate(-599.32351 -702.47078)"/>
    <path d="M1090.5643,922.69225h4.65434a17.80016,17.80016,0,0,1,17.80016,17.80016v4.65434a17.80017,17.80017,0,0,1-17.80016,17.80016h-4.65434a17.80016,17.80016,0,0,1-17.80016-17.80016v-4.65434A17.80016,17.80016,0,0,1,1090.5643,922.69225Zm-12.65089,61.116h29.95611a5.14928,5.14928,0,0,1,5.14928,5.14928v142.19792a5.14928,5.14928,0,0,1-5.14928,5.14928h-29.95611a5.14928,5.14928,0,0,1-5.14927-5.14928V988.9575A5.14928,5.14928,0,0,1,1077.91341,983.80822Z" transform="translate(-599.32351 -702.47078)"/>
    <path d="M1180.86237,1076.51086q0,11.0188,6.24429,17.11546,6.24249,6.09786,17.55658,6.09725,11.30986,0,17.40833-6.24429,6.09424-6.24249,6.09726-17.84945l2.05732,33.3487a47.36438,47.36438,0,0,1-14.17711,21.00835q-9.91784,8.52219-24.16847,8.521-24.53605,0-37.90326-15.79212-13.37081-15.79152-13.3684-44.73571V988.45549a4.64726,4.64726,0,0,1,4.64726-4.64727h30.95894a4.64726,4.64726,0,0,1,4.64726,4.64727Zm51.95372-92.70264h30.8131a4.64726,4.64726,0,0,1,4.64726,4.64727v143.20194a4.64726,4.64726,0,0,1-4.64726,4.64727h-30.8131a4.64726,4.64726,0,0,1-4.64726-4.64727V988.45549A4.64726,4.64726,0,0,1,1232.81609,983.80822Z" transform="translate(-599.32351 -702.47078)"/>
    <path d="M1337.31521,1138.50786a5.06158,5.06158,0,0,1-1.155-.13065q-1.864-.432-9.88881-2.29307a84.28323,84.28323,0,0,1-19.59853-7.12532,71.6151,71.6151,0,0,1-12.65556-8.23929,5.18971,5.18971,0,0,1-1.06273-6.83416l14.65971-22.63763a5.15216,5.15216,0,0,1,7.25558-1.43315,70.673,70.673,0,0,0,14.37156,7.70462,50.72936,50.72936,0,0,0,18.52958,3.82058q11.40219,0,17.69743-3.15891,6.29524-3.15831,6.29573-8.74153,0-5.14151-2.73227-7.787a15.37263,15.37263,0,0,0-7.008-3.74585,93.34191,93.34191,0,0,0-11.99609-1.98381q-2.13837-.29106-4.33617-.58694-2.19829-.29288-4.45408-.58816a6.689,6.689,0,0,0-1.0095-.22055,7.5706,7.5706,0,0,0-1.0095-.07352q-13.78025-2.202-22.093-5.43559-8.31521-3.22881-14.0755-12.41386-5.76175-9.18023-5.76078-26.66449,0-15.2781,5.9391-26.15107a39.1012,39.1012,0,0,1,17.22288-16.52731q11.2838-5.65494,27.31983-5.65614a76.34256,76.34256,0,0,1,18.70693,2.35019,83.69121,83.69121,0,0,1,29.83136,14.25687,5.20461,5.20461,0,0,1,1.22779,7.02768l-13.93778,21.04641a5.16164,5.16164,0,0,1-6.96716,1.56041,69.52912,69.52912,0,0,0-12.70817-5.98811,50.88568,50.88568,0,0,0-16.86624-3.08418q-9.86016,0-15.32277,2.79131-5.46357,2.79132-5.46357,7.78578a6.94539,6.94539,0,0,0,2.91059,5.95022,19.02882,19.02882,0,0,0,7.24482,3.08539q4.3352.95634,12.64993,2.12964,1.06991.14825,2.13885.29407,1.06845.14824,2.13788.29408a3.56652,3.56652,0,0,0,1.06894.147,3.67371,3.67371,0,0,1,1.06894.147,122.95959,122.95959,0,0,1,23.39876,5.28854q9.02557,3.23243,15.3822,12.9285,6.35225,9.69546,6.35517,28.50126,0,15.86565-6.17685,27.17913a40.8989,40.8989,0,0,1-18.05406,17.2625q-11.87868,5.94961-28.62556,5.949Z" transform="translate(-599.32351 -702.47078)"/>
  </g>
  <g>
    <path d="M831.77371,1201.65509h18.03808a2.17341,2.17341,0,0,1,2.03455,2.93782l-33.28051,88.57884a6.31123,6.31123,0,0,1-5.908,4.09149h-9.1275a6.31122,6.31122,0,0,1-5.908-4.09145l-33.28122-88.57887a2.17341,2.17341,0,0,1,2.03454-2.93783h24.41114a2.8017,2.8017,0,0,1,2.71662,2.11648l14.59066,57.84594,20.50169-57.66185A3.3452,3.3452,0,0,1,831.77371,1201.65509Z" transform="translate(-599.32351 -702.47078)"/>
    <path d="M877.5392,1163.33823h2.77088a11.23346,11.23346,0,0,1,11.23346,11.23345v2.77089a11.23346,11.23346,0,0,1-11.23346,11.23345H877.5392a11.23345,11.23345,0,0,1-11.23345-11.23345v-2.77089A11.23345,11.23345,0,0,1,877.5392,1163.33823Zm-8.72372,38.31686h20.21833a2.50973,2.50973,0,0,1,2.50973,2.50973v90.58869a2.50974,2.50974,0,0,1-2.50973,2.50973H868.81548a2.50973,2.50973,0,0,1-2.50973-2.50973v-90.58869A2.50972,2.50972,0,0,1,868.81548,1201.65509Z" transform="translate(-599.32351 -702.47078)"/>
    <path d="M940.68551,1298.64452a2.50621,2.50621,0,0,1-.5567-.06006q-1.08509-.242-6.54031-1.4595a56.30572,56.30572,0,0,1-12.768-4.46724,46.639,46.639,0,0,1-8.67359-5.50756,2.63016,2.63016,0,0,1-.55077-3.516l10.2737-15.2675a2.5888,2.5888,0,0,1,3.59951-.71789,46.95535,46.95535,0,0,0,10.05406,5.29777,34.1701,34.1701,0,0,0,12.0716,2.39533q7.42827,0,11.52947-1.98049,4.10121-1.98011,4.10153-5.48053a6.35432,6.35432,0,0,0-1.78-4.88208,10.14073,10.14073,0,0,0-4.56557-2.34847,62.98977,62.98977,0,0,0-7.81518-1.24376q-1.3931-.18247-2.82492-.368-1.43214-.18363-2.90173-.36875a4.505,4.505,0,0,0-.65767-.13828,5.12251,5.12251,0,0,0-.65766-.04609,74.65021,74.65021,0,0,1-14.39312-3.40786,18.88556,18.88556,0,0,1-9.16987-7.78291q-3.75365-5.75557-3.753-16.71739a32.70546,32.70546,0,0,1,3.86919-16.39549A25.07135,25.07135,0,0,1,929.79676,1203.82q7.35113-3.54539,17.79825-3.54614a51.57825,51.57825,0,0,1,12.18714,1.47346,55.70148,55.70148,0,0,1,11.64628,4.23678,54.39637,54.39637,0,0,1,8.26223,5.0493,2.631,2.631,0,0,1,.63586,3.60779l-9.80258,14.24494a2.59039,2.59039,0,0,1-3.4532.77435,46.30381,46.30381,0,0,0-8.95244-4.14959,34.30981,34.30981,0,0,0-10.988-1.93363q-6.42367,0-9.98244,1.75-3.55939,1.75-3.55939,4.88132a4.30077,4.30077,0,0,0,1.89618,3.73051,12.65246,12.65246,0,0,0,4.71984,1.93439q2.82427.59958,8.24114,1.33518.697.09294,1.39341.18438.69608.09294,1.39278.18437a2.40839,2.40839,0,0,0,.69639.09218,2.48075,2.48075,0,0,1,.69639.09219,82.764,82.764,0,0,1,15.24377,3.31567,20.05581,20.05581,0,0,1,10.02115,8.10556q4.13835,6.07861,4.14025,17.869,0,9.947-4.02408,17.04a26.2283,26.2283,0,0,1-11.76181,10.82278q-7.73868,3.73014-18.6489,3.72976Z" transform="translate(-599.32351 -702.47078)"/>
    <path d="M1014.52646,1163.33823h3.64647a10.79566,10.79566,0,0,1,10.79566,10.79566v3.64647a10.79566,10.79566,0,0,1-10.79566,10.79566h-3.64647a10.79566,10.79566,0,0,1-10.79566-10.79566v-3.64647A10.79566,10.79566,0,0,1,1014.52646,1163.33823Zm-6.808,38.31686h17.26244a3.98768,3.98768,0,0,1,3.98768,3.98767v87.6328a3.98769,3.98769,0,0,1-3.98768,3.98768h-17.26244a3.98768,3.98768,0,0,1-3.98767-3.98768v-87.6328A3.98767,3.98767,0,0,1,1007.71847,1201.65509Z" transform="translate(-599.32351 -702.47078)"/>
    <path d="M1068.61987,1293.76319a32.69234,32.69234,0,0,1-14.09235-14.23063q-4.83524-9.34743-4.83523-22.52057v-15.56583q0-12.988,4.83523-22.244a32.54731,32.54731,0,0,1,14.09235-14.09311q9.25676-4.83524,22.3362-4.83523,13.07869,0,22.3362,4.83523a32.549,32.549,0,0,1,14.09312,14.09311q4.83522,9.25675,4.83522,22.244v15.84238q0,13.07984-4.83522,22.3362a32.81142,32.81142,0,0,1-14.09312,14.13845q-9.25675,4.88285-22.3362,4.88133Q1077.87625,1298.64452,1068.61987,1293.76319Zm34.12618-23.90184q4.23564-4.46686,4.23677-12.57281v-15.84238q0-8.01337-4.23677-12.43452-4.23791-4.42152-11.88216-4.4219-7.55321,0-11.74313,4.4219-4.19257,4.4204-4.19144,12.43452v15.84238q0,8.10633,4.14535,12.57281,4.145,4.468,11.78922,4.46724Q1098.5089,1274.32859,1102.74605,1269.86135Z" transform="translate(-599.32351 -702.47078)"/>
    <path d="M1157.78756,1201.65509h20.1606a2.53935,2.53935,0,0,1,2.53935,2.53935V1294.457a2.80627,2.80627,0,0,1-2.80626,2.80626h-19.62679a2.80626,2.80626,0,0,1-2.80625-2.80626v-90.26254A2.53934,2.53934,0,0,1,1157.78756,1201.65509Zm52.72536,37.67231q0-6.999-4.0048-10.86887-4.00782-3.86841-11.37665-3.86879-7.00008,0-10.82354,3.91488-3.82192,3.916-3.82042,11.00715l-1.9344-21.18463q4.32519-9.02667,10.3611-13.54,6.02986-4.51219,15.15174-4.51333,15.1064,0,23.39407,10.17748,8.29219,10.17936,8.29069,28.78392V1294.457a2.80626,2.80626,0,0,1-2.80625,2.80626h-19.62529a2.80626,2.80626,0,0,1-2.80625-2.80626Z" transform="translate(-599.32351 -702.47078)"/>
  </g>
  <g>
    <path class="a" d="M924.133,812.11588c2.73858-1.77109,4.18622.013,19.87469,1.73974,7.42511.8173,8.68458.59192,9.27243,1.7265,1.55354,2.99861-7.661,10.54771-26.15363,25.52329-3.1113,2.51953-6.68586,5.36-8.50771,4.25386-1.53306-.93074-.9904-4.36188.15743-11.186C922.11844,814.30382,922.57085,813.12616,924.133,812.11588Z" transform="translate(-599.32351 -702.47078)"/>
    <path d="M925.43323,813.97933a70.34533,70.34533,0,0,0,18.49986,3.569c1.54346.06665,6.962-.13892,7.01777.116.26978,1.23211-6.18191,6.75237-7.15139,7.61039-3.65134,3.23154-7.83479,5.82033-11.65694,8.85421-2.27235,1.80371-4.47509,3.68834-6.71407,5.53223-3.10184,2.5545-5.13581,5.761-5.18174.36769-.04056-4.76263-7.44559-4.774-7.40493,0,.05919,6.95039,3.80483,14.15524,11.60978,9.80641,4.70026-2.61893,8.71211-7.1477,12.927-10.47025,3.47232-2.73717,7.25808-5.07462,10.62483-7.9394,3.88853-3.30877,15.43691-12.58985,10.65182-18.6979-2.74761-3.50725-8.33483-2.49178-12.15246-2.52874a63.72327,63.72327,0,0,1-19.101-3.36005c-4.5477-1.4608-6.495,5.68643-1.96853,7.14042Z" transform="translate(-599.32351 -702.47078)"/>
    <path d="M967.30219,808.51413c7.9412,0,7.95435-12.34155,0-12.34155-7.9412,0-7.95435,12.34155,0,12.34155Z" transform="translate(-599.32351 -702.47078)"/>
    <path d="M976.91917,870.17166c-2.07345-1.43167-4.09748-2.962-6.0721-4.56632.39486-.27162.78988-.5184,1.18474-.76532C975.58618,862.59393,978.86908,867.25907,976.91917,870.17166Z" transform="translate(-599.32351 -702.47078)"/>
    <path d="M1144.39408,860.249a166.86755,166.86755,0,0,1-206.94331,33.026,3.74268,3.74268,0,0,1,0-6.39284q16.69815-10.626,33.3963-21.27682c.39486-.27162.78988-.5184,1.18474-.76532,3.55437-2.24609,9.19419.85511,7.24428,3.7677a29.99787,29.99787,0,0,1-3.4924,2.62529q-14.58772,9.29322-29.20015,18.611a159.22745,159.22745,0,0,0,102.63237,15.52577c2.88773-.5184,5.75135-1.11077,8.61438-1.802a159.68412,159.68412,0,0,0,73.08661-40.06062c-28.33614,3.28289-55.56137-9.30558-79.825-23.79454-4.09748-2.44361-.37031-8.83644,3.72717-6.39284,25.89255,15.4762,55.364,29.2247,85.97112,20.73371C1144.49261,853.04158,1146.813,857.58334,1144.39408,860.249Z" transform="translate(-599.32351 -702.47078)"/>
    <g>
      <path d="M938.759,784.49657c-30.87858-1.60431-59.75783-13.0326-89.99463-18.31482-27.69436-4.81323-52.575-.96268-79.1093,7.62714a454.45556,454.45556,0,0,0-144.42083,78.5662c-2.71508,2.19683-.24677,6.14607,2.6164,6.31887a282.628,282.628,0,0,0,142.07591-27.59569c11.6505-5.70179,22.7579-12.44023,35.34622-15.94519,12.51434-3.4804,25.67048-5.13412,38.6291-5.99812,25.0287-1.65373,50.699.37031,74.12327,9.74985,4.41837,1.77726,6.34357-5.38089,1.97477-7.13345-40.30754-16.14269-96.1407-15.4762-135.38689,3.50511-9.39826,4.53944-18.64894,8.99459-28.00533,13.13157a.53982.53982,0,0,1-.61356-.85631q10.55262-11.65438,21.09058-23.30868-21.03,15.62451-42.05995,31.27359a.985.985,0,0,1-1.35769-1.407q11.81088-14.95811,23.67116-29.86664-23.88094,15.36531-47.73718,30.75519a.9888.9888,0,0,1-1.23415-1.53034l31.69316-31.69316q-25.9543,11.69991-51.90863,23.39968a.99262.99262,0,0,1-.96252-1.72785l21.21176-14.11006a170.07527,170.07527,0,0,1,27.55014-15.02529q19.48961-8.29,39.77636-14.65244c28.68175-8.98469,54.673-10.31752,84.04592-3.67791,26.28756,5.924,51.90863,14.51367,78.98591,15.92063C943.52286,792.14842,943.49816,784.74349,938.759,784.49657Zm-308.292,73.11132c-.86385-2.098-1.7277-4.196-2.61641-6.31886q1.92535.11118,3.85056.22221a2.82021,2.82021,0,0,0-.24677,2.098,3.119,3.119,0,0,0,1.87594,1.72785C632.36773,856.07755,631.40505,856.84272,630.46709,857.60789Z" transform="translate(-599.32351 -702.47078)"/>
      <path d="M633.33041,855.33709c-.96268.74046-1.92536,1.50563-2.86332,2.2708-.86385-2.098-1.7277-4.196-2.61641-6.31886q1.92535.11118,3.85056.22221a2.82021,2.82021,0,0,0-.24677,2.098A3.119,3.119,0,0,0,633.33041,855.33709Z" transform="translate(-599.32351 -702.47078)"/>
    </g>
    <path d="M1071.16636,869.28309a229.49564,229.49564,0,0,0,38.26958,17.00011c4.52235,1.53551,6.46349-5.6142,1.96852-7.14042a218.72852,218.72852,0,0,1-36.50069-16.25363c-4.1643-2.32729-7.90231,4.06632-3.73741,6.39394Z" transform="translate(-599.32351 -702.47078)"/>
    <path d="M1050.05182,878.24536a144.12254,144.12254,0,0,0,31.11642,22.08928c4.21462,2.21534,7.9618-4.17347,3.73741-6.39394a136.72865,136.72865,0,0,1-29.61776-20.93141c-3.48779-3.24054-8.73629,1.984-5.23607,5.23607Z" transform="translate(-599.32351 -702.47078)"/>
    <path d="M1014.62314,879.94805a56.39814,56.39814,0,0,0,9.95629,32.63259c2.70965,3.87841,9.13195.1816,6.39394-3.73741a49.35909,49.35909,0,0,1-8.9453-28.89518c-.0071-4.7644-7.412-4.7729-7.40493,0Z" transform="translate(-599.32351 -702.47078)"/>
    <g>
      <path d="M1040.182,876.762c2.8335,10.67758,6.05824,15.17987,8.61634,17.26115.80871.6579,3.40055,4.34892,7.97078,8.08844a3.03829,3.03829,0,0,1,1.06121,1.45622c-2.863.6912-5.72665,1.28357-8.61438,1.802a55.74628,55.74628,0,0,1-15.47635-24.31294c-15.6243,2.86332-31.64375,2.32021-46.20669-4.64044a76.61059,76.61059,0,0,1-10.6137-6.24474c1.94991-2.91259-1.333-7.57773-4.88736-5.33164-.39486.24692-.78988.4937-1.18474.76532-10.07074-8.21951-18.7838-18.41364-26.43565-28.31159-2.88788-3.72717,2.32022-9.00939,5.2328-5.2328,9.74986,12.58832,21.03,25.473,34.63046,34.06264,15.18017,9.57706,32.557,10.88533,49.76106,7.35552a6.36267,6.36267,0,0,1,5.95278,2.87266" transform="translate(-599.32351 -702.47078)"/>
      <path d="M1051.536,907.3691c-.78973-.64178-1.57946-1.30827-2.32007-1.99932,2.88773-.5184,5.75135-1.11077,8.61438-1.802C1058.9409,906.48055,1054.64607,909.88668,1051.536,907.3691Z" transform="translate(-599.32351 -702.47078)"/>
    </g>
    <path d="M997.8566,879.94805a137.964,137.964,0,0,1-5.25291,26.16715c-1.382,4.57149,5.76282,6.52531,7.14042,1.96852a148.10087,148.10087,0,0,0,5.51742-28.13567c.47739-4.73729-6.93089-4.70407-7.40493,0Z" transform="translate(-599.32351 -702.47078)"/>
    <path d="M981.511,873.75862a73.57145,73.57145,0,0,1-17.85433,24.05557c-3.56519,3.17694,1.68679,8.39885,5.23608,5.23607A78.781,78.781,0,0,0,987.90489,877.496c2.00654-4.29091-4.3748-8.05526-6.39394-3.73741Z" transform="translate(-599.32351 -702.47078)"/>
    <path class="b" d="M914.076,812.87743" transform="translate(-599.32351 -702.47078)"/>
    <path d="M1375.0081,711.18774a4.33837,4.33837,0,0,1-.49354.469c-19.05528,18.21614-45.24431,27.76849-70.27271,34.63046-28.38556,7.75053-56.45054,9.08336-85.65053,9.651-31.37243.61707-64.39812,12.04536-92.56162,25.473-27.867,13.27952-50.74829,33.84058-71.803,56.05537-3.28305,3.4557-8.5157-1.77726-5.23311-5.2328,19.96885-21.05476,41.64068-40.89992,67.55793-54.37694,24.11544-12.56361,52.1551-22.48627,78.9365-27.25009a144.29115,144.29115,0,0,1,21.469-1.9185c10.16185-.26736,20.31308-.82646,30.47212-1.18524,6.13689-.21673,11.93591-1.326,17.91189-1.06177,1.13563.04927,1.53034-1.50578.46914-1.82667-11.57653-3.62835-23.15276-5.70758-34.72929-9.33608q27.76848-.59229,55.56168-1.18474a.95491.95491,0,0,0,.29648-1.87594l-42.45087-9.92307c18.48762-3.06068,37.02041-4.245,55.508-7.30568a.92627.92627,0,0,0-.04912-1.85123l-63.75663-2.69053,1.99947-.12338c-2.19713-.02471-4.41837-.04942-6.6152-.074-44.05927-.44443-94.709-3.40628-133.93051,20.14134-33.14954,19.91928-58.15338,56.20346-99.05329,61.18935a58.776,58.776,0,0,1-23.00467-1.53034c-7.38022-2.04859-13.82247-4.17145-21.647-2.61641-24.28824,4.81324-32.13744,31.02668-33.69249,52.59968-.3456,4.73926-7.75053,4.73926-7.40493,0,1.94991-26.92919,13.82248-58.64707,45.17-60.671,6.22019-.41972,11.6505,1.13533,17.54965,2.83847a54.48,54.48,0,0,0,26.13946,1.43166c19.67236-3.75188,36.50625-15.67386,51.61215-28.18806,13.20569-10.88533,25.86814-22.6098,40.60387-31.44639,14.5878-8.73776,30.87858-13.97057,47.58909-16.85845,36.5308-6.34357,74.49372-4.56646,111.39483-4.02335q59.05415.9256,118.18269,1.77711c.41972.0247.81443.0247,1.23416.0247C1375.87225,704.9677,1376.78521,709.11444,1375.0081,711.18774Z" transform="translate(-599.32351 -702.47078)"/>
  </g>
</svg>
